<svg aria-hidden="true" style="position: absolute; width: 0; height: 0; overflow: hidden;" version="1.1" xmlns="http://www.w3.org/2000/svg" xmlns:xlink="http://www.w3.org/1999/xlink">
<defs>
<symbol id="icon-film" viewBox="0 0 32 32">
<path fill="none" stroke="#818181" style="stroke: var(--color2, #818181)" stroke-linejoin="round" stroke-linecap="round" stroke-miterlimit="4" stroke-width="2.6667" d="M26.427 2.667h-20.853c-1.605 0-2.907 1.301-2.907 2.907v20.853c0 1.605 1.301 2.907 2.907 2.907h20.853c1.605 0 2.907-1.301 2.907-2.907v-20.853c0-1.605-1.301-2.907-2.907-2.907z"></path>
<path fill="none" stroke="#818181" style="stroke: var(--color2, #818181)" stroke-linejoin="round" stroke-linecap="round" stroke-miterlimit="4" stroke-width="2.6667" d="M9.333 2.667v26.667"></path>
<path fill="none" stroke="#818181" style="stroke: var(--color2, #818181)" stroke-linejoin="round" stroke-linecap="round" stroke-miterlimit="4" stroke-width="2.6667" d="M22.667 2.667v26.667"></path>
<path fill="none" stroke="#818181" style="stroke: var(--color2, #818181)" stroke-linejoin="round" stroke-linecap="round" stroke-miterlimit="4" stroke-width="2.6667" d="M2.667 16h26.667"></path>
<path fill="none" stroke="#818181" style="stroke: var(--color2, #818181)" stroke-linejoin="round" stroke-linecap="round" stroke-miterlimit="4" stroke-width="2.6667" d="M2.667 9.333h6.667"></path>
<path fill="none" stroke="#818181" style="stroke: var(--color2, #818181)" stroke-linejoin="round" stroke-linecap="round" stroke-miterlimit="4" stroke-width="2.6667" d="M2.667 22.667h6.667"></path>
<path fill="none" stroke="#818181" style="stroke: var(--color2, #818181)" stroke-linejoin="round" stroke-linecap="round" stroke-miterlimit="4" stroke-width="2.6667" d="M22.667 22.667h6.667"></path>
<path fill="none" stroke="#818181" style="stroke: var(--color2, #818181)" stroke-linejoin="round" stroke-linecap="round" stroke-miterlimit="4" stroke-width="2.6667" d="M22.667 9.333h6.667"></path>
</symbol>
<symbol id="icon-search" viewBox="0 0 32 32">
<path fill="none" stroke="#fff" style="stroke: var(--color3, #fff)" stroke-linejoin="round" stroke-linecap="round" stroke-miterlimit="4" stroke-width="2.6667" d="M14.667 25.333c5.891 0 10.667-4.776 10.667-10.667s-4.776-10.667-10.667-10.667c-5.891 0-10.667 4.776-10.667 10.667s4.776 10.667 10.667 10.667z"></path>
<path fill="none" stroke="#fff" style="stroke: var(--color3, #fff)" stroke-linejoin="round" stroke-linecap="round" stroke-miterlimit="4" stroke-width="2.6667" d="M28 28.001l-5.8-5.8"></path>
</symbol>
<symbol id="icon-heart" viewBox="0 0 34 32">
<path fill="#FF6B08" style="fill: var(--color1, #FF6B08)" d="M17.231 31.705l-2.412-2.412c-8.96-7.926-14.818-13.268-14.818-19.815 0-5.342 4.135-9.477 9.477-9.477 2.929 0 5.858 1.378 7.754 3.618 1.895-2.24 4.825-3.618 7.754-3.618 5.342 0 9.477 4.135 9.477 9.477 0 6.548-5.858 11.889-14.818 19.815l-2.412 2.412z"></path>
</symbol>
<symbol id="icon-close" viewBox="0 0 32 32">
<path fill="currentColor" stroke="currentColor" stroke-linejoin="miter" stroke-linecap="butt" stroke-miterlimit="4" stroke-width="2.1333" d="M8.533 8.533l14.933 14.933"></path>
<path fill="currentColor" stroke="currentColor" stroke-linejoin="miter" stroke-linecap="butt" stroke-miterlimit="4" stroke-width="2.1333" d="M8.533 23.467l14.933-14.933"></path>
</symbol>
<symbol id="icon-camera-open" viewBox="0 0 32 32">
<path d="M27.314 4.686c-3.022-3.022-7.040-4.686-11.314-4.686s-8.292 1.664-11.314 4.686-4.686 7.040-4.686 11.314 1.664 8.292 4.686 11.314 7.040 4.686 11.314 4.686 8.292-1.664 11.314-4.686 4.686-7.040 4.686-11.314-1.664-8.292-4.686-11.314zM30.645 12.911c-0.022 0.016-0.044 0.033-0.064 0.053l-5.521 5.521v-14.396c0.531 0.406 1.040 0.849 1.521 1.33 2.083 2.083 3.476 4.673 4.064 7.491zM13.012 24.023l-5.035-5.035v-6.511l4.501-4.501h6.511l5.035 5.035v6.511l-4.501 4.501h-6.511zM24.023 3.364v8.182l-10.332-10.332c0.757-0.117 1.528-0.177 2.309-0.177 2.886 0 5.647 0.812 8.023 2.327zM5.419 5.419c1.973-1.973 4.401-3.327 7.047-3.964l5.485 5.485h-13.862c0.406-0.531 0.849-1.040 1.33-1.521zM3.364 7.977h7.648l-9.863 9.863c-0.074-0.606-0.111-1.22-0.111-1.84 0-2.886 0.812-5.647 2.327-8.023zM1.355 19.089c0.022-0.016 0.044-0.033 0.064-0.053l5.521-5.521v14.396c-0.531-0.406-1.040-0.849-1.521-1.33-2.083-2.083-3.476-4.673-4.064-7.492zM7.977 28.636v-8.182l10.332 10.332c-0.757 0.117-1.528 0.177-2.309 0.177-2.886 0-5.647-0.812-8.023-2.327zM26.581 26.581c-1.973 1.973-4.401 3.327-7.047 3.964l-5.485-5.485h13.862c-0.406 0.531-0.849 1.040-1.33 1.521zM28.636 24.023h-7.648l9.863-9.863c0.074 0.606 0.111 1.22 0.111 1.84 0 2.886-0.812 5.647-2.327 8.023z"></path>
</symbol>
<symbol id="icon-camera-close" viewBox="0 0 32 32">
<path d="M27.314 4.686c-3.022-3.022-7.040-4.686-11.314-4.686s-8.292 1.664-11.314 4.686-4.686 7.040-4.686 11.314 1.664 8.292 4.686 11.314c3.022 3.022 7.040 4.686 11.314 4.686s8.292-1.664 11.314-4.686 4.686-7.040 4.686-11.314-1.664-8.292-4.686-11.314zM30.814 18.154h-12.462l10.245-10.245c1.543 2.392 2.371 5.178 2.371 8.092 0 0.727-0.052 1.446-0.153 2.154zM13.847 16.892v-1.784l1.261-1.261h1.784l1.262 1.261v1.784l-1.262 1.262h-1.784l-1.261-1.262zM28.003 7.054c-0.024 0.017-0.047 0.036-0.069 0.057l-8.749 8.749v-14.489c2.782 0.6 5.338 1.985 7.398 4.045 0.516 0.516 0.99 1.064 1.419 1.638zM18.154 1.186v12.462l-10.245-10.245c2.392-1.543 5.178-2.371 8.092-2.371 0.727 0 1.446 0.052 2.154 0.153zM5.416 5.416c0.516-0.516 1.064-0.99 1.638-1.419 0.017 0.024 0.036 0.047 0.057 0.069l8.749 8.749h-14.489c0.6-2.782 1.985-5.338 4.045-7.398zM1.186 13.847h12.462l-10.245 10.245c-1.543-2.392-2.371-5.178-2.371-8.092 0-0.727 0.052-1.446 0.153-2.154zM3.997 24.946c0.024-0.017 0.047-0.036 0.069-0.057l8.749-8.749v14.489c-2.782-0.6-5.338-1.985-7.398-4.045-0.516-0.516-0.99-1.064-1.419-1.638zM13.847 30.814v-12.463l10.245 10.245c-2.392 1.543-5.178 2.371-8.092 2.371-0.727 0-1.446-0.052-2.154-0.153zM26.584 26.584c-0.516 0.516-1.064 0.99-1.638 1.419-0.017-0.024-0.036-0.047-0.057-0.069l-8.749-8.749h14.489c-0.6 2.782-1.985 5.338-4.045 7.398z"></path>
</symbol>
<symbol id="icon-cam_focus_1" viewBox="0 0 32 32">
<path d="M16.081 0c-8.934 0-16.081 7.147-16.081 16.081s7.147 16.081 16.081 16.081c8.772 0 16.081-7.147 16.081-16.081s-7.31-16.081-16.081-16.081zM27.777 6.497v3.411l-8.772-8.772c3.574 0.812 6.497 2.761 8.772 5.36zM27.614 11.046v9.909l-6.822 6.822h-9.584l-6.985-6.985v-9.746l6.822-6.822h9.746l6.822 6.822zM16.081 0.975c0.487 0 1.137 0 1.624 0.162l2.437 2.437h-12.508c2.437-1.624 5.36-2.599 8.447-2.599zM6.497 4.223h3.411l-8.609 8.609c0.65-3.411 2.599-6.497 5.198-8.609zM3.411 24.365c-1.624-2.437-2.437-5.198-2.437-8.284 0-0.65 0-1.137 0.162-1.787l2.437-2.437v12.508zM4.223 25.503v-3.411l8.772 8.609c-3.411-0.65-6.497-2.599-8.772-5.198zM16.081 31.025c-0.487 0-1.137 0-1.624-0.162l-2.437-2.437h12.345c-2.437 1.624-5.36 2.599-8.284 2.599zM25.503 27.777h-3.411l8.772-8.609c-0.812 3.411-2.761 6.497-5.36 8.609zM28.589 20.142v-12.508c1.624 2.437 2.437 5.198 2.437 8.284 0 0.65 0 1.137-0.162 1.787l-2.274 2.437z"></path>
</symbol>
<symbol id="icon-cam_focus_2" viewBox="0 0 32 32">
<path d="M16.081 0c-8.934 0-16.081 7.147-16.081 16.081s7.147 16.081 16.081 16.081c8.772 0 16.081-7.147 16.081-16.081s-7.31-16.081-16.081-16.081zM25.34 4.223c2.761 2.274 4.873 5.523 5.523 9.096l-5.523 5.523v-14.619zM16.081 0.975c3.086 0 6.010 0.975 8.447 2.599v7.797l-10.233-10.396c0.65 0 1.137 0 1.787 0zM24.528 12.508v6.822l-5.036 5.198h-6.822l-5.198-5.036v-6.66l5.198-5.36h6.985l4.873 5.036zM13.32 1.137l5.523 5.523h-14.619c2.112-2.761 5.36-4.873 9.096-5.523zM0.975 16.081c0-3.086 0.975-6.010 2.599-8.447h7.797l-10.233 10.233c-0.162-0.65-0.162-1.3-0.162-1.787zM6.66 27.777c-2.761-2.274-4.711-5.36-5.523-8.934l5.523-5.523v14.457zM16.081 31.025c-3.086 0-6.010-0.975-8.447-2.599v-7.797l10.233 10.233c-0.65 0.162-1.3 0.162-1.787 0.162zM18.68 30.863l-5.523-5.523h14.619c-2.112 2.761-5.36 4.711-9.096 5.523zM20.629 24.528l10.233-10.233c0 0.487 0.162 1.137 0.162 1.624 0 3.086-0.975 6.010-2.599 8.447h-7.797z"></path>
</symbol>
<symbol id="icon-cam_focus_3" viewBox="0 0 32 32">
<path d="M16.081 0c-8.934 0-16.081 7.147-16.081 16.081 0 8.772 7.147 16.081 16.081 16.081 8.772 0 16.081-7.147 16.081-16.081-0.162-8.934-7.31-16.081-16.081-16.081zM22.904 2.599c3.249 1.787 5.848 4.711 7.147 8.122l-7.147 7.147v-15.269zM16.081 0.975c2.274 0 4.223 0.487 6.173 1.3v10.071l-10.721-10.721c1.462-0.487 2.924-0.65 4.548-0.65zM10.721 1.949l7.147 7.147h-15.269c1.787-3.249 4.548-5.848 8.122-7.147zM0.975 16.081c0-2.274 0.487-4.223 1.3-6.173h10.071l-10.721 10.721c-0.487-1.462-0.65-3.086-0.65-4.548zM9.096 29.401c-3.249-1.624-5.685-4.548-6.985-7.959l6.985-7.147v15.107zM9.909 13.645l3.736-3.898h5.036l3.574 3.574v5.036l-3.736 3.736h-4.873l-3.736-3.574v-4.873zM16.081 31.025c-2.274 0-4.223-0.487-6.173-1.299v-10.071l10.558 10.721c-1.462 0.487-2.924 0.65-4.386 0.65zM21.279 30.051l-6.985-7.147h15.107c-1.787 3.411-4.711 5.848-8.122 7.147zM19.655 22.091l10.721-10.558c0.487 1.462 0.65 2.924 0.65 4.548 0 2.274-0.487 4.223-1.299 6.173h-10.071z"></path>
</symbol>
<symbol id="icon-cam_focus_4" viewBox="0 0 32 32">
<path d="M16.081 0c-8.934 0-16.081 7.147-16.081 16.081 0 8.772 7.147 16.081 16.081 16.081 8.772 0 16.081-7.147 16.081-16.081-0.162-8.934-7.31-16.081-16.081-16.081zM20.142 1.462c3.574 0.975 6.66 3.411 8.609 6.497l-8.609 8.609v-15.107zM16.081 0.975c1.137 0 2.274 0.162 3.411 0.325v12.183l-10.721-10.721c2.112-1.137 4.548-1.787 7.31-1.787zM19.33 14.619v2.599l-1.949 2.112h-2.761l-1.949-1.949v-2.599l1.949-2.112h2.761l1.949 1.949zM7.959 3.249l8.609 8.609h-15.107c1.137-3.574 3.411-6.66 6.497-8.609zM0.975 16.081c0-1.137 0.162-2.274 0.325-3.411h12.183l-10.558 10.721c-1.3-2.274-1.949-4.711-1.949-7.31zM11.858 30.538c-3.574-0.975-6.66-3.411-8.609-6.335l8.609-8.609v14.944zM16.081 31.025c-1.137 0-2.274-0.162-3.411-0.325v-12.183l10.558 10.721c-2.112 1.137-4.711 1.787-7.147 1.787zM23.878 28.751l-8.447-8.609h15.107c-1.137 3.574-3.411 6.66-6.66 8.609zM18.518 19.33l10.558-10.721c1.137 2.112 1.949 4.711 1.949 7.31 0 1.137-0.162 2.274-0.325 3.411h-12.183z"></path>
</symbol>
<symbol id="icon-arrow" viewBox="0 0 16 16"  fill="none">
<path d="M12.667 8H3.333M8 12.667 3.333 8 8 3.333" stroke-width="1.333" stroke-linecap="round" stroke-linejoin="round"/>
</svg>
</symbol>

</defs>
</svg>


