<?xml version="1.0" encoding="utf-8"?>
<!-- Generator: Adobe Illustrator 25.2.1, SVG Export Plug-In . SVG Version: 6.00 Build 0)  -->
<svg version="1.1" id="Layer_1" xmlns="http://www.w3.org/2000/svg" xmlns:xlink="http://www.w3.org/1999/xlink" x="0px" y="0px"
	 viewBox="0 0 20 20" style="enable-background:new 0 0 20 20;" xml:space="preserve">
<style type="text/css">
	.st0{fill:#E2E2E2;}
</style>
<g>
	<g>
		<g>
			<path class="st0" d="M3.43,7.44C3.37,7.4,3.28,7.4,3.18,7.43C2.84,7.53,2.34,7.73,2,7.88l0.09,0.05C2.43,7.78,2.88,7.6,3.2,7.51
				c0.08-0.02,0.14-0.02,0.18,0c0.06,0.03,0.07,0.1,0.07,0.13c0,0.07-0.03,0.16-0.07,0.18c0,0-0.01,0-0.01,0
				c0,0-0.03-0.03-0.02-0.15c0-0.05-0.03-0.08-0.04-0.09C3.25,7.55,3.14,7.59,2.98,7.66c-0.07,0.03-0.37,0.2-0.7,0.37l0.08,0.05
				c0.31-0.17,0.59-0.32,0.65-0.35c0.06-0.03,0.23-0.1,0.26-0.08c0,0,0,0,0,0.01c0,0.13,0.02,0.2,0.06,0.23
				c0.02,0.01,0.05,0.02,0.09-0.01c0.07-0.04,0.11-0.16,0.1-0.25C3.53,7.55,3.5,7.48,3.43,7.44z"/>
		</g>
	</g>
	<g>
		<g>
			<path class="st0" d="M4.96,8.3C4.89,8.27,4.81,8.27,4.73,8.31C4.65,8.36,4.57,8.45,4.57,8.53c0,0.05,0.03,0.07,0.04,0.08
				c0.05,0.03,0.12,0.01,0.23-0.06c0.01-0.01,0.01-0.01,0.01-0.01c0.03,0.02,0.05,0.2,0.06,0.27C4.92,8.88,4.94,9.2,4.95,9.55
				L5.04,9.6C5.02,9.22,5.01,8.88,5,8.8c-0.02-0.17-0.04-0.29-0.1-0.33C4.88,8.46,4.84,8.45,4.8,8.48C4.69,8.55,4.65,8.54,4.65,8.54
				c0,0,0,0,0-0.01c0-0.04,0.06-0.12,0.12-0.15C4.8,8.37,4.86,8.34,4.92,8.37C4.96,8.4,5,8.45,5.02,8.53
				C5.1,8.85,5.18,9.34,5.23,9.71l0.09,0.05C5.27,9.38,5.19,8.86,5.1,8.51C5.07,8.41,5.02,8.34,4.96,8.3z"/>
		</g>
	</g>
	<g>
		<path class="st0" d="M5.4,9.74L2,7.82C1.93,7.78,1.83,7.8,1.79,7.87L1.26,8.82C1.22,8.89,1.25,8.98,1.32,9.02l1.41,0.8
			C2.81,9.87,2.9,9.84,2.94,9.77C2.97,9.74,3.21,9.43,3.3,9.3c0,0,0.04-0.01,0.1,0.02c0.05,0.03,0.07,0.06,0.08,0.06
			C3.38,9.6,3.24,9.94,3.24,9.94C3.2,10.01,3.23,10.1,3.3,10.15l1.41,0.8c0.07,0.04,0.17,0.02,0.21-0.05l0.53-0.95
			C5.5,9.88,5.47,9.78,5.4,9.74z M5.39,9.91l-0.53,0.95c-0.02,0.03-0.06,0.04-0.1,0.02l-1.41-0.8c-0.04-0.02-0.05-0.06-0.03-0.1
			c0,0,0.14-0.34,0.24-0.56c0.03-0.06-0.04-0.13-0.11-0.17l0,0c-0.09-0.05-0.16-0.05-0.2,0C3.14,9.38,2.88,9.72,2.87,9.73l0,0.01
			c-0.02,0.03-0.06,0.04-0.1,0.02l-1.41-0.8C1.32,8.93,1.31,8.89,1.33,8.86l0.53-0.95c0.02-0.03,0.06-0.04,0.1-0.02l3.4,1.92
			C5.39,9.83,5.41,9.88,5.39,9.91z"/>
	</g>
	<g>
		<path class="st0" d="M3.15,8.68l-1.06-0.6C2.01,8.03,1.92,8.06,1.88,8.14L1.57,8.78C1.52,8.86,1.55,8.95,1.63,8.99L2.6,9.55
			c0.07,0.04,0.17,0.02,0.21-0.06l0.39-0.6C3.25,8.81,3.23,8.72,3.15,8.68z M3.14,8.85l-0.39,0.6c-0.02,0.04-0.06,0.05-0.1,0.03
			L1.67,8.92C1.63,8.9,1.62,8.86,1.64,8.82l0.31-0.64c0.02-0.04,0.06-0.05,0.1-0.03l1.06,0.6C3.15,8.77,3.16,8.81,3.14,8.85z"/>
	</g>
	<g>
		<path class="st0" d="M5.14,9.8L4.07,9.2C4,9.16,3.9,9.18,3.86,9.26L3.55,9.9c-0.04,0.07-0.02,0.17,0.06,0.21l0.98,0.55
			c0.07,0.04,0.17,0.02,0.21-0.06l0.39-0.6C5.24,9.94,5.21,9.84,5.14,9.8z M5.12,9.97l-0.39,0.6c-0.02,0.04-0.06,0.05-0.1,0.03
			l-0.98-0.55c-0.04-0.02-0.05-0.06-0.03-0.1L3.93,9.3C3.95,9.26,4,9.25,4.03,9.27l1.06,0.6C5.13,9.89,5.14,9.93,5.12,9.97z"/>
	</g>
</g>
<g>
	<g>
		<g>
			<path class="st0" d="M12.78,9.85c-0.07,0.02-0.13,0.07-0.19,0.16c-0.18,0.31-0.41,0.79-0.56,1.14l0.1-0.02
				c0.15-0.34,0.36-0.78,0.53-1.07c0.04-0.07,0.09-0.11,0.14-0.12c0.06-0.01,0.11,0.03,0.14,0.05c0.05,0.05,0.09,0.14,0.07,0.18
				c0,0,0,0.01,0,0.01c-0.01,0-0.04-0.01-0.12-0.1c-0.04-0.04-0.07-0.04-0.09-0.03c-0.07,0.02-0.12,0.13-0.19,0.29
				c-0.03,0.07-0.14,0.4-0.26,0.75l0.09-0.02c0.11-0.33,0.21-0.63,0.24-0.7c0.03-0.06,0.1-0.23,0.13-0.24c0,0,0,0,0.01,0.01
				c0.08,0.1,0.15,0.14,0.2,0.12c0.02,0,0.05-0.02,0.06-0.07c0.02-0.08-0.03-0.19-0.1-0.26C12.94,9.86,12.86,9.83,12.78,9.85z"/>
		</g>
	</g>
	<g>
		<g>
			<path class="st0" d="M14.5,9.44c-0.07,0.02-0.13,0.08-0.16,0.16c-0.03,0.09-0.02,0.21,0.03,0.27c0.03,0.04,0.07,0.04,0.09,0.03
				c0.05-0.01,0.09-0.08,0.12-0.2c0-0.01,0-0.01,0-0.01c0.04-0.01,0.17,0.11,0.23,0.15c0.06,0.05,0.28,0.27,0.53,0.52l0.09-0.02
				c-0.27-0.26-0.51-0.5-0.57-0.55c-0.13-0.11-0.23-0.19-0.3-0.17c-0.02,0-0.05,0.02-0.07,0.07c-0.03,0.13-0.06,0.14-0.06,0.14
				c0,0,0,0-0.01-0.01c-0.03-0.03-0.04-0.13-0.01-0.19c0.01-0.03,0.04-0.09,0.1-0.11c0.05-0.01,0.11,0.01,0.18,0.05
				c0.28,0.18,0.67,0.48,0.96,0.71l0.1-0.02c-0.29-0.24-0.71-0.57-1.02-0.76C14.65,9.44,14.57,9.42,14.5,9.44z"/>
		</g>
	</g>
	<g>
		<path class="st0" d="M15.98,10.3c-0.02-0.08-0.1-0.13-0.19-0.11L12,11.1c-0.08,0.02-0.14,0.1-0.12,0.18l0.25,1.06
			c0.02,0.08,0.1,0.13,0.19,0.11l1.58-0.38c0.08-0.02,0.13-0.1,0.12-0.18c0-0.04-0.04-0.44-0.06-0.6c0-0.01,0.02-0.03,0.09-0.05
			c0.06-0.01,0.09-0.01,0.1-0.01c0.08,0.22,0.21,0.57,0.21,0.57c0.02,0.08,0.1,0.13,0.19,0.11l1.58-0.38
			c0.08-0.02,0.14-0.1,0.12-0.18L15.98,10.3z M16.1,11.46l-1.58,0.38c-0.04,0.01-0.08-0.01-0.09-0.05c0,0-0.13-0.35-0.21-0.57
			c-0.02-0.06-0.12-0.06-0.2-0.05l-0.01,0c-0.1,0.02-0.15,0.08-0.14,0.14c0.02,0.16,0.06,0.59,0.06,0.6l0,0.01
			c0.01,0.04-0.02,0.07-0.06,0.08l-1.58,0.38c-0.04,0.01-0.08-0.01-0.09-0.05l-0.25-1.06c-0.01-0.04,0.02-0.07,0.06-0.08l3.8-0.9
			c0.04-0.01,0.08,0.01,0.09,0.05l0.25,1.06C16.16,11.42,16.14,11.45,16.1,11.46z"/>
	</g>
	<g>
		<path class="st0" d="M13.61,11.06c-0.02-0.08-0.1-0.13-0.19-0.12l-1.19,0.28c-0.08,0.02-0.13,0.1-0.11,0.19l0.21,0.68
			c0.02,0.08,0.1,0.13,0.19,0.12l1.09-0.26c0.08-0.02,0.13-0.1,0.12-0.18L13.61,11.06z M13.6,11.87l-1.09,0.26
			c-0.04,0.01-0.08-0.02-0.09-0.06L12.2,11.4c-0.01-0.04,0.02-0.08,0.05-0.09l1.19-0.28c0.04-0.01,0.08,0.02,0.09,0.05l0.12,0.71
			C13.66,11.83,13.63,11.86,13.6,11.87z"/>
	</g>
	<g>
		<path class="st0" d="M15.83,10.53c-0.02-0.08-0.1-0.13-0.19-0.12l-1.19,0.28c-0.08,0.02-0.13,0.1-0.11,0.19l0.21,0.68
			c0.02,0.08,0.1,0.13,0.19,0.12l1.09-0.26c0.08-0.02,0.13-0.1,0.12-0.18L15.83,10.53z M15.81,11.35l-1.09,0.26
			c-0.04,0.01-0.08-0.02-0.09-0.06l-0.21-0.68c-0.01-0.04,0.02-0.08,0.05-0.09l1.19-0.28c0.04-0.01,0.08,0.02,0.09,0.05l0.12,0.71
			C15.88,11.3,15.85,11.34,15.81,11.35z"/>
	</g>
</g>
<g>
	<g>
		<g>
			<g>
				<path class="st0" d="M6.14,3.96L5.94,3.5c-0.04,0.02-0.08,0-0.09-0.04L4.18,4.19L2.52,4.91c0.02,0.04,0,0.08-0.04,0.09l0.2,0.46
					l0,0l0.35,0.82c0.04-0.02,0.08,0,0.09,0.04l1.55-0.67c0,0,0,0,0,0l0.11-0.05L4.9,5.55c0,0,0,0,0,0l1.55-0.68
					c-0.02-0.04,0-0.08,0.04-0.09L6.14,3.96L6.14,3.96z M6.35,4.82L4.76,5.51L3.17,6.2C3.15,6.17,3.11,6.15,3.08,6.17L2.78,5.49l0,0
					L2.59,5.05c0.04-0.02,0.05-0.06,0.04-0.09l1.45-0.63l0,0l0.14-0.06l0.14-0.06l0,0l1.45-0.63C5.82,3.61,5.87,3.63,5.9,3.61
					l0.19,0.44l0,0l0.29,0.68C6.35,4.74,6.33,4.78,6.35,4.82z"/>
			</g>
		</g>
		<g>
			<g>
				<path class="st0" d="M2.16,4.83l0.78,1.79l3.88-1.69L6.05,3.14L2.16,4.83z M2.98,6.52L2.27,4.87l3.74-1.62l0.71,1.64L2.98,6.52z
					"/>
			</g>
		</g>
		<g>
			
				<rect x="2.9" y="5.27" transform="matrix(0.9171 -0.3987 0.3987 0.9171 -1.7902 2.0173)" class="st0" width="2.12" height="0.08"/>
		</g>
		<g>
			
				<rect x="2.98" y="5.46" transform="matrix(0.9171 -0.3987 0.3987 0.9171 -1.86 2.0666)" class="st0" width="2.12" height="0.08"/>
		</g>
		<g>
			
				<rect x="5.07" y="4.12" transform="matrix(0.9171 -0.3987 0.3987 0.9171 -1.205 2.5301)" class="st0" width="0.82" height="0.08"/>
		</g>
		<g>
			
				<rect x="5.25" y="4.53" transform="matrix(0.9171 -0.3987 0.3987 0.9171 -1.3536 2.6351)" class="st0" width="0.82" height="0.08"/>
		</g>
		<g>
			
				<rect x="5.33" y="4.72" transform="matrix(0.9171 -0.3987 0.3987 0.9171 -1.4233 2.6842)" class="st0" width="0.82" height="0.08"/>
		</g>
		<g>
			<polygon class="st0" points="3.33,4.98 3.31,4.93 3.11,5.02 3.13,5.07 3.2,5.04 3.29,5.24 3.35,5.21 3.26,5.01 			"/>
			
				<rect x="3.4" y="4.89" transform="matrix(0.9171 -0.3987 0.3987 0.9171 -1.7209 1.7844)" class="st0" width="0.06" height="0.27"/>
			<path class="st0" d="M3.66,5.03c-0.04,0.02-0.07,0-0.1-0.06C3.54,4.92,3.55,4.88,3.59,4.86c0.02-0.01,0.03-0.01,0.05,0l0.02-0.05
				C3.63,4.8,3.6,4.8,3.57,4.81C3.5,4.84,3.47,4.91,3.51,5C3.54,5.08,3.61,5.1,3.68,5.08C3.71,5.06,3.73,5.04,3.74,5L3.7,4.98
				C3.69,5,3.68,5.02,3.66,5.03z"/>
			<polygon class="st0" points="3.88,4.68 3.82,4.71 3.79,4.85 3.79,4.85 3.74,4.74 3.69,4.77 3.8,5.02 3.85,5 3.82,4.93 3.84,4.88 
				3.94,4.96 4.01,4.93 3.85,4.82 			"/>
			<polygon class="st0" points="4.07,4.84 4.04,4.79 4.13,4.75 4.11,4.7 4.02,4.74 4,4.69 4.1,4.64 4.08,4.6 3.92,4.67 4.03,4.92 
				4.19,4.85 4.17,4.8 			"/>
			<polygon class="st0" points="4.33,4.55 4.31,4.5 4.11,4.58 4.13,4.63 4.2,4.6 4.29,4.8 4.35,4.78 4.26,4.58 			"/>
		</g>
		<g>
			<path class="st0" d="M4.77,4.12C4.75,4.13,4.74,4.15,4.75,4.18S4.79,4.21,4.81,4.2c0.02-0.01,0.03-0.04,0.02-0.06
				C4.82,4.12,4.8,4.11,4.77,4.12z"/>
		</g>
		<g>
			<path class="st0" d="M4.86,4.32C4.84,4.33,4.83,4.36,4.84,4.38C4.85,4.4,4.87,4.41,4.9,4.4c0.02-0.01,0.03-0.04,0.02-0.06
				C4.91,4.32,4.88,4.31,4.86,4.32z"/>
		</g>
		<g>
			<path class="st0" d="M4.95,4.52C4.93,4.53,4.92,4.55,4.92,4.58C4.93,4.6,4.96,4.61,4.98,4.6C5,4.59,5.01,4.56,5,4.54
				C5,4.52,4.97,4.51,4.95,4.52z"/>
		</g>
		<g>
			<path class="st0" d="M5.04,4.72C5.01,4.73,5,4.76,5.01,4.78C5.02,4.8,5.05,4.81,5.07,4.8C5.09,4.79,5.1,4.77,5.09,4.74
				C5.08,4.72,5.06,4.71,5.04,4.72z"/>
		</g>
		<g>
			<path class="st0" d="M5.12,4.93C5.1,4.94,5.09,4.96,5.1,4.98c0.01,0.02,0.04,0.03,0.06,0.02C5.18,5,5.19,4.97,5.18,4.95
				C5.17,4.93,5.15,4.92,5.12,4.93z"/>
		</g>
		<g>
			<path class="st0" d="M5.21,5.13C5.19,5.14,5.18,5.16,5.19,5.18C5.2,5.21,5.22,5.22,5.25,5.21C5.27,5.2,5.28,5.17,5.27,5.15
				C5.26,5.13,5.23,5.12,5.21,5.13z"/>
		</g>
	</g>
	<g>
		<g>
			<g>
				<path class="st0" d="M5.14,2.06L5.14,2.06L4.81,1.68c-0.03,0.03-0.07,0.02-0.1-0.01l-1.36,1.2L1.99,4.07
					c0.03,0.03,0.02,0.07-0.01,0.1l0.33,0.38l0,0l0.18,0.2l0.08-0.03L2.41,4.54l0,0L2.1,4.18c0.03-0.03,0.03-0.07,0.01-0.1
					l1.19-1.04l0,0l0.12-0.1l0.12-0.1l0,0l1.19-1.04c0.03,0.03,0.07,0.03,0.1,0.01l0.32,0.36l0,0l0.49,0.55
					c-0.03,0.03-0.03,0.07-0.01,0.1l-1.3,1.14l0.26-0.11l1.15-1.01C5.7,2.8,5.7,2.75,5.73,2.73L5.14,2.06z"/>
			</g>
		</g>
		<g>
			<g>
				<polygon class="st0" points="1.62,4.1 2.27,4.84 2.35,4.81 1.74,4.11 4.8,1.42 5.98,2.77 4.95,3.67 5.19,3.57 6.1,2.78 
					4.81,1.31 				"/>
			</g>
		</g>
		<g>
			<polygon class="st0" points="2.67,4.67 2.91,4.56 4.3,3.35 4.24,3.29 			"/>
		</g>
		<g>
			<polygon class="st0" points="3.3,4.39 3.54,4.29 4.44,3.5 4.38,3.44 			"/>
		</g>
		<g>
			
				<rect x="4.17" y="2.41" transform="matrix(0.752 -0.6592 0.6592 0.752 -0.4815 3.6257)" class="st0" width="0.82" height="0.08"/>
		</g>
		<g>
			
				<rect x="4.46" y="2.75" transform="matrix(0.7519 -0.6592 0.6592 0.7519 -0.6299 3.9034)" class="st0" width="0.82" height="0.08"/>
		</g>
		<g>
			<rect x="4.6" y="2.91" transform="matrix(0.752 -0.6592 0.6592 0.752 -0.6997 4.0333)" class="st0" width="0.82" height="0.08"/>
		</g>
		<g>
			<polygon class="st0" points="2.78,3.89 2.74,3.85 2.58,3.99 2.62,4.03 2.67,3.98 2.82,4.15 2.87,4.11 2.72,3.94 			"/>
			
				<rect x="2.86" y="3.77" transform="matrix(0.752 -0.6591 0.6591 0.752 -1.8566 2.8719)" class="st0" width="0.06" height="0.27"/>
			<path class="st0" d="M3.11,3.83C3.08,3.86,3.04,3.85,3,3.81C2.96,3.77,2.96,3.72,2.99,3.7c0.01-0.01,0.03-0.02,0.05-0.02l0-0.05
				c-0.03,0-0.06,0-0.08,0.03c-0.05,0.05-0.06,0.13,0,0.19c0.06,0.07,0.14,0.07,0.19,0.02c0.03-0.02,0.04-0.05,0.04-0.09L3.13,3.78
				C3.13,3.8,3.12,3.82,3.11,3.83z"/>
			<polygon class="st0" points="3.21,3.44 3.16,3.48 3.18,3.62 3.17,3.62 3.1,3.54 3.05,3.58 3.23,3.78 3.28,3.74 3.23,3.69 
				3.23,3.63 3.36,3.68 3.41,3.63 3.22,3.57 			"/>
			<polygon class="st0" points="3.44,3.53 3.4,3.49 3.47,3.42 3.44,3.38 3.37,3.45 3.33,3.4 3.41,3.33 3.38,3.29 3.25,3.41 
				3.43,3.61 3.56,3.5 3.53,3.46 			"/>
			<polygon class="st0" points="3.6,3.17 3.56,3.13 3.4,3.27 3.44,3.31 3.5,3.26 3.64,3.43 3.69,3.39 3.54,3.22 			"/>
		</g>
		<g>
			<path class="st0" d="M3.89,2.63c-0.02,0.02-0.02,0.04,0,0.06c0.02,0.02,0.04,0.02,0.06,0c0.02-0.02,0.02-0.04,0-0.06
				C3.94,2.61,3.91,2.61,3.89,2.63z"/>
		</g>
		<g>
			<path class="st0" d="M4.04,2.79c-0.02,0.02-0.02,0.04,0,0.06c0.02,0.02,0.04,0.02,0.06,0c0.02-0.02,0.02-0.04,0-0.06
				C4.08,2.78,4.05,2.78,4.04,2.79z"/>
		</g>
		<g>
			<path class="st0" d="M4.18,2.96C4.16,2.97,4.16,3,4.18,3.02c0.02,0.02,0.04,0.02,0.06,0c0.02-0.02,0.02-0.04,0-0.06
				C4.22,2.94,4.2,2.94,4.18,2.96z"/>
		</g>
		<g>
			<path class="st0" d="M4.32,3.12c-0.02,0.02-0.02,0.04,0,0.06c0.02,0.02,0.04,0.02,0.06,0c0.02-0.02,0.02-0.04,0-0.06
				C4.37,3.11,4.34,3.11,4.32,3.12z"/>
		</g>
		<g>
			<path class="st0" d="M4.47,3.29c-0.02,0.02-0.02,0.04,0,0.06c0.02,0.02,0.04,0.02,0.06,0c0.02-0.02,0.02-0.04,0-0.06
				C4.52,3.27,4.49,3.27,4.47,3.29z"/>
		</g>
		<g>
			<path class="st0" d="M4.62,3.45C4.6,3.47,4.6,3.5,4.61,3.52c0.02,0.02,0.04,0.02,0.06,0c0.02-0.02,0.02-0.04,0-0.06
				C4.66,3.44,4.63,3.44,4.62,3.45z"/>
		</g>
	</g>
</g>
<g>
	<g>
		<g>
			<g>
				<path class="st0" d="M16.9,14.98c-0.02,0.03-0.06,0.04-0.1,0.02l-0.26,0.43l0,0l-0.46,0.76c0.03,0.02,0.04,0.06,0.02,0.1
					l1.45,0.87c0,0,0,0,0,0l0.1,0.06l0.1,0.06c0,0,0,0,0,0l1.45,0.87c0.02-0.03,0.06-0.04,0.1-0.02l0.46-0.76l0,0L20,17v-0.09
					c0-0.01,0-0.03,0-0.04v-0.02l-1.55-0.93L16.9,14.98z M18.54,16.07l1.35,0.81c-0.02,0.03-0.01,0.08,0.02,0.1l-0.25,0.41l0,0
					l-0.38,0.63c-0.03-0.02-0.08-0.01-0.1,0.02l-1.49-0.89l-1.49-0.9c0.02-0.03,0.01-0.08-0.02-0.1l0.38-0.63l0,0l0.25-0.41
					c0.03,0.02,0.08,0.01,0.1-0.02l1.35,0.82l0,0L18.41,16L18.54,16.07L18.54,16.07z"/>
			</g>
		</g>
		<g>
			<g>
				<polygon class="st0" points="15.75,16.32 19.38,18.51 20,17.47 20,17.32 19.35,18.39 15.86,16.29 16.78,14.76 20,16.69 20,16.6 
					16.76,14.65 				"/>
			</g>
		</g>
		<g>
			
				<rect x="17.36" y="15.33" transform="matrix(0.5155 -0.8569 0.8569 0.5155 -5.6084 22.8514)" class="st0" width="0.08" height="2.12"/>
		</g>
		<g>
			
				<rect x="17.26" y="15.51" transform="matrix(0.5155 -0.8569 0.8569 0.5155 -5.8149 22.8458)" class="st0" width="0.08" height="2.12"/>
		</g>
		<g>
			
				<rect x="19.19" y="16.55" transform="matrix(0.5155 -0.8569 0.8569 0.5155 -5.2182 24.6911)" class="st0" width="0.08" height="0.82"/>
		</g>
		<g>
			
				<rect x="18.96" y="16.93" transform="matrix(0.5155 -0.8569 0.8569 0.5155 -5.6579 24.6792)" class="st0" width="0.08" height="0.82"/>
		</g>
		<g>
			
				<rect x="18.85" y="17.11" transform="matrix(0.5155 -0.8569 0.8569 0.5155 -5.8644 24.6736)" class="st0" width="0.08" height="0.82"/>
		</g>
		<g>
			<polygon class="st0" points="17.13,15.57 17.19,15.61 17.08,15.8 17.13,15.83 17.25,15.64 17.31,15.68 17.34,15.64 17.15,15.53 
							"/>
			
				<rect x="17.19" y="15.76" transform="matrix(0.5155 -0.8569 0.8569 0.5155 -5.1375 22.5007)" class="st0" width="0.27" height="0.06"/>
			<path class="st0" d="M17.59,15.78c-0.06-0.04-0.14-0.02-0.19,0.06c-0.05,0.08-0.02,0.15,0.04,0.19c0.03,0.02,0.06,0.02,0.1,0.01
				l-0.01-0.05c-0.02,0.01-0.04,0.01-0.06-0.01c-0.03-0.02-0.04-0.06-0.01-0.11c0.03-0.05,0.07-0.06,0.1-0.04
				c0.02,0.01,0.02,0.02,0.03,0.04l0.05-0.02C17.63,15.83,17.62,15.8,17.59,15.78z"/>
			<polygon class="st0" points="17.69,15.98 17.69,15.98 17.74,15.88 17.69,15.85 17.55,16.09 17.6,16.12 17.64,16.06 17.69,16.04 
				17.69,16.17 17.75,16.2 17.75,16.01 17.87,15.96 17.82,15.93 			"/>
			<polygon class="st0" points="17.77,16.22 17.92,16.31 17.95,16.27 17.85,16.21 17.88,16.15 17.96,16.2 17.99,16.16 17.91,16.11 
				17.94,16.06 18.03,16.12 18.06,16.07 17.91,15.98 			"/>
			<polygon class="st0" points="18.06,16.14 18.13,16.18 18.01,16.37 18.07,16.4 18.18,16.21 18.25,16.25 18.27,16.2 18.09,16.09 
							"/>
		</g>
		<g>
			<path class="st0" d="M18.85,16.36c-0.02-0.01-0.05-0.01-0.06,0.01c-0.01,0.02-0.01,0.05,0.01,0.06c0.02,0.01,0.05,0.01,0.06-0.01
				C18.88,16.4,18.87,16.37,18.85,16.36z"/>
		</g>
		<g>
			<path class="st0" d="M18.74,16.55c-0.02-0.01-0.05-0.01-0.06,0.01c-0.01,0.02-0.01,0.05,0.01,0.06c0.02,0.01,0.05,0.01,0.06-0.01
				C18.77,16.59,18.76,16.56,18.74,16.55z"/>
		</g>
		<g>
			<path class="st0" d="M18.63,16.73c-0.02-0.01-0.05-0.01-0.06,0.01c-0.01,0.02-0.01,0.05,0.01,0.06s0.05,0.01,0.06-0.01
				C18.65,16.77,18.65,16.75,18.63,16.73z"/>
		</g>
		<g>
			<path class="st0" d="M18.51,16.92c-0.02-0.01-0.05-0.01-0.06,0.01c-0.01,0.02-0.01,0.05,0.01,0.06c0.02,0.01,0.05,0.01,0.06-0.01
				C18.54,16.96,18.53,16.94,18.51,16.92z"/>
		</g>
		<g>
			<path class="st0" d="M18.4,17.11c-0.02-0.01-0.05-0.01-0.06,0.01c-0.01,0.02-0.01,0.05,0.01,0.06c0.02,0.01,0.05,0.01,0.06-0.01
				C18.42,17.15,18.42,17.13,18.4,17.11z"/>
		</g>
		<g>
			<path class="st0" d="M18.28,17.3c-0.02-0.01-0.05-0.01-0.06,0.01c-0.01,0.02-0.01,0.05,0.01,0.06c0.02,0.01,0.05,0.01,0.06-0.01
				C18.31,17.34,18.31,17.31,18.28,17.3z"/>
		</g>
	</g>
	<g>
		<g>
			<g>
				<polygon class="st0" points="18.96,16.03 20,16.28 20,16.19 18.72,15.89 				"/>
				<path class="st0" d="M17.28,14.06c-0.01,0.04-0.05,0.06-0.08,0.05l-0.12,0.49l0,0l-0.06,0.26l0.07,0.04l0.05-0.22l0,0l0.11-0.47
					c0.04,0.01,0.08-0.01,0.08-0.05l1.54,0.36l0,0l0.15,0.04l0.15,0.04l0,0l0.83,0.2V14.7l-0.96-0.23L17.28,14.06z"/>
			</g>
		</g>
		<g>
			<g>
				<polygon class="st0" points="19.54,16.38 20,16.49 20,16.41 19.32,16.25 				"/>
				<polygon class="st0" points="16.81,14.74 16.88,14.78 17.1,13.88 20,14.57 20,14.48 17.04,13.78 				"/>
			</g>
		</g>
		<g>
			<polygon class="st0" points="17.41,15.1 19.2,15.52 19.22,15.45 17.18,14.96 			"/>
		</g>
		<g>
			<polygon class="st0" points="18,15.45 19.16,15.73 19.17,15.65 17.77,15.32 			"/>
		</g>
		<g>
			<polygon class="st0" points="19.69,15.18 20,15.25 20,15.17 19.7,15.1 			"/>
		</g>
		<g>
			<polygon class="st0" points="19.58,15.61 20,15.71 20,15.63 19.6,15.53 			"/>
		</g>
		<g>
			<polygon class="st0" points="19.53,15.82 20,15.93 20,15.84 19.55,15.74 			"/>
		</g>
		<g>
			<polygon class="st0" points="17.67,14.55 17.75,14.57 17.7,14.79 17.76,14.8 17.81,14.58 17.88,14.6 17.89,14.55 17.69,14.5 			
				"/>
			
				<rect x="17.8" y="14.67" transform="matrix(0.2298 -0.9732 0.9732 0.2298 -0.4942 28.7759)" class="st0" width="0.27" height="0.06"/>
			<path class="st0" d="M18.17,14.61c-0.07-0.02-0.14,0.02-0.16,0.11c-0.02,0.09,0.02,0.15,0.09,0.17c0.03,0.01,0.07,0,0.09-0.02
				l-0.02-0.04c-0.02,0.01-0.03,0.02-0.06,0.01c-0.04-0.01-0.06-0.05-0.04-0.1c0.01-0.05,0.05-0.08,0.09-0.07
				c0.02,0,0.03,0.02,0.04,0.03l0.04-0.03C18.23,14.64,18.21,14.62,18.17,14.61z"/>
			<polygon class="st0" points="18.44,14.68 18.33,14.77 18.33,14.77 18.36,14.66 18.29,14.64 18.23,14.91 18.29,14.93 18.31,14.85 
				18.35,14.82 18.39,14.95 18.45,14.96 18.4,14.78 18.5,14.69 			"/>
			<polygon class="st0" points="18.48,14.97 18.65,15.01 18.67,14.96 18.56,14.93 18.57,14.87 18.66,14.89 18.67,14.84 18.58,14.82 
				18.59,14.77 18.7,14.79 18.71,14.74 18.55,14.7 			"/>
			<polygon class="st0" points="18.74,14.8 18.81,14.82 18.76,15.04 18.82,15.05 18.87,14.83 18.94,14.85 18.96,14.8 18.75,14.75 
							"/>
		</g>
		<g>
			<path class="st0" d="M19.55,14.78c-0.02-0.01-0.05,0.01-0.05,0.03c-0.01,0.02,0.01,0.05,0.03,0.05c0.02,0.01,0.05-0.01,0.05-0.03
				C19.59,14.81,19.58,14.78,19.55,14.78z"/>
		</g>
		<g>
			<path class="st0" d="M19.5,14.99c-0.02-0.01-0.05,0.01-0.05,0.03c-0.01,0.02,0.01,0.05,0.03,0.05c0.02,0.01,0.05-0.01,0.05-0.03
				C19.54,15.02,19.53,15,19.5,14.99z"/>
		</g>
		<g>
			<path class="st0" d="M19.45,15.2c-0.02-0.01-0.05,0.01-0.05,0.03c-0.01,0.02,0.01,0.05,0.03,0.05c0.02,0.01,0.05-0.01,0.05-0.03
				C19.49,15.23,19.48,15.21,19.45,15.2z"/>
		</g>
		<g>
			<path class="st0" d="M19.4,15.42c-0.02-0.01-0.05,0.01-0.05,0.03c-0.01,0.02,0.01,0.05,0.03,0.05s0.05-0.01,0.05-0.03
				C19.44,15.44,19.43,15.42,19.4,15.42z"/>
		</g>
		<g>
			<path class="st0" d="M19.35,15.63c-0.02-0.01-0.05,0.01-0.05,0.03c-0.01,0.02,0.01,0.05,0.03,0.05c0.02,0.01,0.05-0.01,0.05-0.03
				C19.39,15.66,19.38,15.64,19.35,15.63z"/>
		</g>
		<g>
			<path class="st0" d="M19.3,15.85c-0.02-0.01-0.05,0.01-0.05,0.03c-0.01,0.02,0.01,0.05,0.03,0.05c0.02,0.01,0.05-0.01,0.05-0.03
				C19.34,15.88,19.33,15.85,19.3,15.85z"/>
		</g>
	</g>
</g>
<g>
	<g>
		<g>
			<g>
				<path class="st0" d="M0,16.91V17l0.03-0.05C0.02,16.94,0,16.93,0,16.91z"/>
				<path class="st0" d="M0,16.85v0.02C0,16.86,0,16.86,0,16.85L0,16.85z"/>
			</g>
		</g>
		<g>
			<g>
				<polygon class="st0" points="0,16.6 0,16.69 0.27,16.86 0,17.32 0,17.47 0.38,16.83 				"/>
			</g>
		</g>
	</g>
	<g>
		<g>
			<g>
				<path class="st0" d="M0.54,16.33l0.2-0.87l0,0l0.11-0.49c-0.04-0.01-0.06-0.05-0.05-0.08L0,14.7v0.09l0.71,0.17
					C0.7,15,0.72,15.04,0.76,15.05l-0.11,0.47l0,0l-0.17,0.72c-0.04-0.01-0.08,0.01-0.08,0.05L0,16.19v0.09l0.45,0.11
					C0.46,16.35,0.5,16.32,0.54,16.33z"/>
			</g>
		</g>
		<g>
			<g>
				<polygon class="st0" points="1.16,14.76 0,14.48 0,14.57 1.06,14.82 0.65,16.56 0,16.41 0,16.49 0.71,16.66 				"/>
			</g>
		</g>
		<g>
			<polygon class="st0" points="0.5,15.29 0,15.17 0,15.25 0.49,15.37 			"/>
		</g>
		<g>
			<polygon class="st0" points="0.4,15.72 0,15.63 0,15.71 0.38,15.8 			"/>
		</g>
		<g>
			<polygon class="st0" points="0.35,15.93 0,15.84 0,15.93 0.33,16.01 			"/>
		</g>
	</g>
</g>
<g>
	<g>
		<g>
			<g>
				<polygon class="st0" points="2.59,1.55 2.61,0 2.53,0 2.5,1.48 1.52,1.65 0.88,0 0.79,0 1.47,1.75 				"/>
			</g>
		</g>
	</g>
	<g>
		<g>
			<path class="st0" d="M0.89,0.16C0.9,0.19,0.91,0.22,0.92,0.24L1.28,0H1.13L0.89,0.16C0.89,0.16,0.89,0.16,0.89,0.16z"/>
		</g>
	</g>
	<g>
		<g>
			<path class="st0" d="M1.11,0.72c0,0.01,0,0.01,0,0.02L2.22,0H2.07L1.09,0.65C1.1,0.67,1.11,0.7,1.11,0.72z"/>
		</g>
	</g>
	<g>
		<g>
			<path class="st0" d="M2.58,0.3l-1.3,0.87C1.29,1.19,1.3,1.22,1.31,1.25L2.58,0.4c0-0.02,0-0.04,0-0.06
				C2.58,0.33,2.58,0.31,2.58,0.3z"/>
		</g>
	</g>
	<g>
		<g>
			<path class="st0" d="M1.5,1.72l1.06-0.71c0-0.03,0-0.07,0.01-0.1l-1.1,0.74C1.48,1.67,1.49,1.7,1.5,1.72z"/>
		</g>
	</g>
</g>
<g>
	<g>
		<g>
			<g>
				<polygon class="st0" points="14.23,13.72 14.3,13.77 15.28,12.46 15.4,12.55 14.41,13.85 14.48,13.9 15.51,12.53 15.27,12.35 
									"/>
			</g>
			<g>
				<polygon class="st0" points="14.97,14.58 13.21,16.15 12.41,15.55 13.45,13.43 13.48,13.39 13.41,13.34 13.38,13.38 
					12.31,15.58 13.21,16.26 15.03,14.64 15.06,14.59 15,14.54 				"/>
			</g>
		</g>
		<g>
			<path class="st0" d="M13.32,13.35l1.76,1.33l0.18-0.24l-1.76-1.33L13.32,13.35z M15.15,14.45l-0.08,0.11l-1.62-1.23l0.08-0.11
				L15.15,14.45z"/>
		</g>
	</g>
	<g>
		<g>
			<path class="st0" d="M13.08,14.07C13.08,14.08,13.08,14.08,13.08,14.07c-0.02,0.03-0.03,0.05-0.04,0.07l1.95,0.47
				c0.01-0.01,0.01-0.02,0.02-0.02c0.02-0.03,0.01-0.04,0-0.06L13.08,14.07z"/>
		</g>
	</g>
	<g>
		<g>
			<path class="st0" d="M12.82,14.62c0,0-0.01,0.01-0.01,0.01l1.7,0.41c0.01-0.01,0.02-0.01,0.02-0.02
				c0.02-0.02,0.04-0.03,0.05-0.05l-1.74-0.42C12.84,14.58,12.83,14.6,12.82,14.62z"/>
		</g>
	</g>
	<g>
		<g>
			<path class="st0" d="M12.57,15.12l1.49,0.36c0.01-0.01,0.03-0.03,0.04-0.04c0.01-0.01,0.02-0.02,0.03-0.03l-1.52-0.36
				C12.59,15.07,12.58,15.1,12.57,15.12z"/>
		</g>
	</g>
	<g>
		<g>
			<path class="st0" d="M12.35,15.58l1.24,0.3c0.02-0.02,0.05-0.05,0.08-0.07l-1.29-0.31C12.37,15.53,12.36,15.56,12.35,15.58z"/>
		</g>
	</g>
</g>
<g>
	<g>
		<g>
			<g>
				<path class="st0" d="M4.15,16.07L3.8,15.99l0.17-0.74l-0.08-0.02L3.7,16.06l0.43,0.1c0.05,0.01,0.09,0.04,0.11,0.09L2.73,15.9
					c0.04-0.03,0.08-0.04,0.13-0.03l0.43,0.1l0.19-0.82L3.4,15.12l-0.17,0.74l-0.35-0.08c-0.1-0.02-0.21,0.03-0.26,0.12l-0.03,0.05
					l1.75,0.39l0-0.05C4.33,16.18,4.25,16.1,4.15,16.07z"/>
			</g>
		</g>
		<g>
			<g>
				<g>
					<path class="st0" d="M4.69,12.11l-0.59-0.13c-0.32-0.07-0.65,0.13-0.72,0.46l-0.41,1.82c0.03,0,0.05,0.01,0.08,0.02
						c0,0,0,0,0,0l0.41-1.82c0.06-0.28,0.34-0.46,0.62-0.39l0.56,0.13c0.28,0.06,0.46,0.34,0.39,0.62l-0.41,1.83
						c0.03,0.01,0.05,0.01,0.08,0.02l0.41-1.83C5.19,12.51,5,12.2,4.69,12.11z"/>
				</g>
				<g>
					<path class="st0" d="M2.4,14.31l0.04,0.01c0.01-0.02,0.02-0.04,0.03-0.06c0-0.01,0.02-0.02,0.03-0.03l0.07-0.31
						c-0.03,0.02-0.06,0.03-0.09,0.04L2.4,14.31z"/>
				</g>
				<g>
					<path class="st0" d="M5.22,14.49L5.16,14.8c0.01,0.02,0.02,0.05,0.01,0.08c0,0.02-0.01,0.03-0.01,0.05l0.06,0.01l0.08-0.37
						c-0.01,0-0.01-0.01-0.01-0.01C5.26,14.55,5.24,14.52,5.22,14.49z"/>
				</g>
				<g>
					<path class="st0" d="M5.38,12.04l-1.9-0.43c-0.25-0.06-0.5,0.1-0.56,0.35l-0.29,1.3c0.03,0.01,0.05,0.04,0.07,0.06l0.3-1.34
						c0.05-0.21,0.25-0.34,0.46-0.29l1.9,0.43c0.21,0.05,0.34,0.25,0.29,0.46l-0.31,1.4c0.01-0.01,0.02-0.02,0.03-0.03
						c0.02-0.02,0.05-0.04,0.08-0.05l0.29-1.3C5.79,12.35,5.63,12.1,5.38,12.04z"/>
				</g>
			</g>
		</g>
		<g>
			<path class="st0" d="M4.34,12.24c-0.14-0.03-0.26,0.01-0.28,0.1c-0.02,0.09,0.07,0.18,0.21,0.21c0.14,0.03,0.26-0.01,0.28-0.1
				C4.57,12.37,4.48,12.28,4.34,12.24z M4.28,12.48c-0.1-0.02-0.16-0.08-0.15-0.12c0.01-0.03,0.08-0.06,0.19-0.04
				c0.1,0.02,0.16,0.08,0.15,0.12C4.46,12.47,4.39,12.5,4.28,12.48z"/>
		</g>
		<g>
			<g>
				<g>
					<polygon class="st0" points="2.36,13.94 2.28,13.92 2.15,14.49 2.39,14.54 2.41,14.46 2.25,14.43 					"/>
				</g>
				<g>
					<polygon class="st0" points="5.32,15.12 5.13,15.08 5.12,15.16 5.38,15.22 5.51,14.66 5.43,14.64 					"/>
				</g>
				<g>
					<polygon class="st0" points="2.18,13.89 2.1,13.88 1.92,14.66 2.34,14.76 2.36,14.68 2.02,14.6 					"/>
				</g>
				<g>
					<polygon class="st0" points="5.46,15.38 5.09,15.29 5.07,15.37 5.52,15.47 5.69,14.7 5.61,14.68 					"/>
				</g>
			</g>
			<g>
				<g>
					<path class="st0" d="M2.62,13.21l-0.44-0.1c-0.1-0.02-0.19,0.04-0.21,0.13l-0.1,0.43c-0.02,0.1,0.04,0.19,0.13,0.21l0.44,0.1
						c0.1,0.02,0.19-0.04,0.21-0.13l0.1-0.43C2.77,13.33,2.71,13.23,2.62,13.21z M2.67,13.4l-0.1,0.43
						c-0.01,0.05-0.06,0.08-0.11,0.07l-0.44-0.1c-0.05-0.01-0.08-0.06-0.07-0.11l0.1-0.43c0.01-0.05,0.06-0.08,0.11-0.07l0.44,0.1
						C2.65,13.3,2.68,13.35,2.67,13.4z"/>
				</g>
				<g>
					<path class="st0" d="M5.95,13.97l-0.44-0.1C5.41,13.84,5.32,13.9,5.3,14l-0.1,0.43c-0.02,0.1,0.04,0.19,0.13,0.21l0.44,0.1
						c0.1,0.02,0.19-0.04,0.21-0.13l0.1-0.43C6.11,14.08,6.05,13.99,5.95,13.97z M6,14.16l-0.1,0.43c-0.01,0.05-0.06,0.08-0.11,0.07
						l-0.44-0.1c-0.05-0.01-0.08-0.06-0.07-0.11l0.1-0.43c0.01-0.05,0.06-0.08,0.11-0.07l0.44,0.1C5.98,14.06,6.02,14.11,6,14.16z"
						/>
				</g>
			</g>
		</g>
		<g>
			<path class="st0" d="M5.08,14.7l-2.46-0.55c-0.1-0.02-0.19,0.04-0.21,0.14l-0.1,0.43c-0.03,0.12,0.03,0.23,0.13,0.26l2.46,0.55
				c0.1,0.02,0.2-0.06,0.22-0.18l0.1-0.43C5.24,14.82,5.18,14.72,5.08,14.7z M5.13,14.9l-0.1,0.43c-0.02,0.07-0.07,0.13-0.12,0.11
				l-2.46-0.55c-0.05-0.01-0.08-0.08-0.06-0.16l0.1-0.43c0.01-0.05,0.06-0.08,0.12-0.07l2.46,0.55C5.11,14.79,5.15,14.85,5.13,14.9z
				"/>
		</g>
	</g>
	<g>
		
			<rect x="4.14" y="12.26" transform="matrix(0.2193 -0.9757 0.9757 0.2193 -9.3611 14.1856)" class="st0" width="0.08" height="1.36"/>
	</g>
	<g>
		
			<rect x="3.92" y="13.24" transform="matrix(0.2193 -0.9757 0.9757 0.2193 -10.4883 14.7355)" class="st0" width="0.08" height="1.36"/>
	</g>
</g>
<g>
	<g>
		<g>
			<g>
				<g>
					<path class="st0" d="M11.49,2.45l-0.09,0c-0.04,0-0.08,0.03-0.08,0.08l0,0.13l0.09,0l0-0.12l0.07,0l0,0.12l0.09,0l0-0.13
						C11.56,2.48,11.53,2.45,11.49,2.45z"/>
				</g>
				<g>
					
						<rect x="11.48" y="3.53" transform="matrix(1 -1.016127e-03 1.016127e-03 1 -3.997579e-03 0.0117)" class="st0" width="0.09" height="0.82"/>
				</g>
				<g>
					
						<rect x="11.32" y="3.53" transform="matrix(1 -1.021566e-03 1.021566e-03 1 -4.019193e-03 0.0116)" class="st0" width="0.09" height="0.82"/>
				</g>
			</g>
			<g>
				<g>
					<path class="st0" d="M14.22,2.44l-0.09,0c-0.04,0-0.08,0.03-0.08,0.08l0,0.13l0.09,0l0-0.12l0.07,0l0,0.12l0.09,0l0-0.13
						C14.3,2.48,14.27,2.44,14.22,2.44z"/>
				</g>
				<g>
					
						<rect x="14.22" y="3.53" transform="matrix(1 -1.015694e-03 1.015694e-03 1 -3.991630e-03 0.0145)" class="st0" width="0.09" height="0.82"/>
				</g>
				<g>
					
						<rect x="14.06" y="3.53" transform="matrix(1 -1.016127e-03 1.016127e-03 1 -3.993577e-03 0.0143)" class="st0" width="0.09" height="0.82"/>
				</g>
			</g>
		</g>
		<g>
			<path class="st0" d="M14.31,4.3l-3,0c-0.04,0-0.07,0.03-0.08,0.07c-0.04,0.22-0.08,0.48-0.08,0.5c0,0.04,0.03,0.08,0.08,0.08
				l3.16,0c0.04,0,0.08-0.03,0.08-0.08c0-0.02-0.04-0.28-0.08-0.5C14.39,4.33,14.35,4.3,14.31,4.3z M11.25,4.86
				c0.01-0.06,0.05-0.31,0.07-0.47l2.98,0c0.03,0.16,0.07,0.41,0.08,0.47L11.25,4.86z"/>
		</g>
		<g>
			<path class="st0" d="M14.36,2.61l-3.1,0c-0.04,0-0.08,0.03-0.08,0.08l0,0.8c0,0.04,0.03,0.08,0.08,0.08l3.1,0
				c0.04,0,0.08-0.03,0.08-0.08l0-0.8C14.44,2.65,14.41,2.61,14.36,2.61z M11.27,3.48l0-0.78l3.08,0l0,0.78L11.27,3.48z"/>
		</g>
	</g>
	<g>
		<g>
			<polygon class="st0" points="11.82,4.9 13.63,6.61 13.69,6.55 11.95,4.9 			"/>
		</g>
	</g>
	<g>
		<g>
			<polygon class="st0" points="11.82,6.55 11.88,6.61 13.68,4.9 13.56,4.9 			"/>
		</g>
	</g>
	<g>
		
			<rect x="12.07" y="6.32" transform="matrix(1 -1.023384e-03 1.023384e-03 1 -6.510518e-03 0.0131)" class="st0" width="1.37" height="0.09"/>
	</g>
	<g>
		<path class="st0" d="M11.87,2.91l-0.08,0l0,0.3l0.09,0c0.09,0,0.14-0.05,0.14-0.15C12.02,2.96,11.96,2.91,11.87,2.91z M11.87,3.16
			l-0.01,0l0-0.19l0.01,0c0.05,0,0.08,0.02,0.08,0.09C11.95,3.13,11.92,3.16,11.87,3.16z"/>
		
			<rect x="12.08" y="2.91" transform="matrix(1 -1.023587e-03 1.023587e-03 1 -3.127881e-03 0.0124)" class="st0" width="0.07" height="0.3"/>
		<path class="st0" d="M12.43,3.01c0-0.07-0.05-0.09-0.11-0.09l-0.11,0l0,0.3l0.07,0l0-0.11l0.04,0l0.06,0.11l0.07,0l-0.07-0.12
			C12.41,3.08,12.43,3.05,12.43,3.01z M12.31,3.05l-0.03,0l0-0.08l0.03,0c0.03,0,0.05,0.01,0.05,0.04
			C12.37,3.04,12.35,3.05,12.31,3.05z"/>
		<polygon class="st0" points="12.56,3.15 12.56,3.09 12.66,3.09 12.66,3.03 12.56,3.03 12.56,2.97 12.68,2.97 12.68,2.91 
			12.49,2.91 12.49,3.21 12.68,3.21 12.68,3.15 		"/>
		<path class="st0" d="M12.87,3.16c-0.04,0-0.07-0.04-0.07-0.1c0-0.06,0.03-0.1,0.07-0.1c0.02,0,0.03,0.01,0.05,0.02l0.04-0.04
			c-0.02-0.02-0.05-0.04-0.09-0.04c-0.08,0-0.14,0.06-0.14,0.16c0,0.1,0.06,0.15,0.14,0.15c0.04,0,0.07-0.02,0.09-0.04l-0.04-0.04
			C12.91,3.15,12.89,3.16,12.87,3.16z"/>
		<polygon class="st0" points="13.2,2.91 12.97,2.91 12.97,2.97 13.05,2.97 13.05,3.21 13.12,3.21 13.12,2.97 13.2,2.97 		"/>
		<path class="st0" d="M13.36,2.91c-0.08,0-0.13,0.06-0.13,0.15c0,0.1,0.05,0.15,0.13,0.15c0.08,0,0.13-0.06,0.13-0.15
			C13.49,2.96,13.44,2.91,13.36,2.91z M13.36,3.16c-0.04,0-0.07-0.04-0.07-0.1c0-0.06,0.03-0.09,0.07-0.09
			c0.04,0,0.07,0.04,0.07,0.09C13.42,3.12,13.4,3.16,13.36,3.16z"/>
		<path class="st0" d="M13.77,3c0-0.07-0.05-0.09-0.11-0.09l-0.11,0l0,0.3l0.07,0l0-0.11l0.04,0l0.06,0.11l0.07,0l-0.07-0.12
			C13.74,3.08,13.77,3.05,13.77,3z M13.65,3.05l-0.03,0l0-0.08l0.03,0c0.03,0,0.05,0.01,0.05,0.04C13.7,3.03,13.68,3.05,13.65,3.05z
			"/>
	</g>
</g>
<g>
	<g>
		<g>
			<g>
				<g>
					<path class="st0" d="M8.04,15.73l-0.09,0.04c-0.04,0.02-0.06,0.06-0.04,0.1l0.05,0.12l0.08-0.04L8,15.85l0.07-0.03l0.05,0.11
						l0.08-0.04l-0.05-0.12C8.12,15.73,8.08,15.72,8.04,15.73z"/>
				</g>
				<g>
					
						<rect x="8.62" y="16.68" transform="matrix(0.9175 -0.3977 0.3977 0.9175 -6.0826 4.8552)" class="st0" width="0.09" height="0.82"/>
				</g>
				<g>
					
						<rect x="8.47" y="16.74" transform="matrix(0.9175 -0.3977 0.3977 0.9175 -6.1201 4.802)" class="st0" width="0.09" height="0.82"/>
				</g>
			</g>
			<g>
				<g>
					<path class="st0" d="M10.58,14.63l-0.09,0.04c-0.04,0.02-0.06,0.06-0.04,0.1l0.05,0.12l0.08-0.04l-0.05-0.11l0.07-0.03
						l0.05,0.11l0.08-0.04l-0.05-0.12C10.67,14.63,10.62,14.61,10.58,14.63z"/>
				</g>
				<g>
					
						<rect x="11.16" y="15.58" transform="matrix(0.9175 -0.3977 0.3977 0.9175 -5.4335 5.7769)" class="st0" width="0.09" height="0.82"/>
				</g>
				<g>
					
						<rect x="11.02" y="15.64" transform="matrix(0.9175 -0.3977 0.3977 0.9175 -5.471 5.7236)" class="st0" width="0.09" height="0.82"/>
				</g>
			</g>
		</g>
		<g>
			<path class="st0" d="M11.5,16.33c-0.02-0.04-0.06-0.05-0.1-0.04l-2.79,1.21c-0.04,0.02-0.06,0.06-0.04,0.1
				c0.05,0.21,0.12,0.47,0.13,0.49c0.02,0.04,0.06,0.06,0.1,0.04l2.94-1.27c0.04-0.02,0.06-0.06,0.04-0.1
				C11.76,16.74,11.62,16.52,11.5,16.33z M8.77,18.05c-0.02-0.06-0.08-0.31-0.12-0.46l2.77-1.2c0.09,0.14,0.23,0.35,0.26,0.4
				L8.77,18.05z"/>
		</g>
		<g>
			<path class="st0" d="M10.88,14.77c-0.02-0.04-0.06-0.06-0.1-0.04l-2.89,1.25c-0.04,0.02-0.06,0.06-0.04,0.1l0.32,0.73
				c0.02,0.04,0.06,0.06,0.1,0.04l2.89-1.25c0.04-0.02,0.06-0.06,0.04-0.1L10.88,14.77z M8.25,16.77l-0.31-0.71l2.87-1.24l0.31,0.71
				L8.25,16.77z"/>
		</g>
	</g>
	<g>
		<g>
			<polygon class="st0" points="9.32,17.85 11.69,18.69 11.72,18.61 9.44,17.8 			"/>
		</g>
	</g>
	<g>
		<g>
			<polygon class="st0" points="9.97,19.37 10.05,19.4 11.05,17.1 10.94,17.15 			"/>
		</g>
	</g>
	<g>
		
			<rect x="10.08" y="18.78" transform="matrix(0.9175 -0.3977 0.3977 0.9175 -6.5977 5.8376)" class="st0" width="1.39" height="0.09"/>
	</g>
	<g>
		<path class="st0" d="M8.58,16.01l-0.08,0.03l0.12,0.27l0.08-0.04c0.08-0.03,0.12-0.1,0.08-0.19C8.74,15.99,8.67,15.97,8.58,16.01z
			 M8.68,16.23l-0.01,0.01l-0.07-0.17l0.01-0.01c0.05-0.02,0.09-0.01,0.11,0.05C8.74,16.17,8.72,16.21,8.68,16.23z"/>
		
			<rect x="8.83" y="15.9" transform="matrix(0.9175 -0.3977 0.3977 0.9175 -5.6511 4.8485)" class="st0" width="0.07" height="0.3"/>
		<path class="st0" d="M9.14,15.87C9.11,15.8,9.06,15.8,9,15.83l-0.1,0.04l0.12,0.27l0.06-0.03l-0.04-0.1L9.07,16l0.09,0.07
			l0.07-0.03l-0.11-0.08C9.15,15.94,9.16,15.91,9.14,15.87z M9.05,15.95l-0.03,0.01l-0.03-0.08l0.03-0.01
			c0.03-0.01,0.05-0.01,0.07,0.01C9.09,15.92,9.08,15.94,9.05,15.95z"/>
		<polygon class="st0" points="9.32,15.95 9.29,15.89 9.38,15.85 9.36,15.8 9.27,15.84 9.24,15.78 9.35,15.73 9.33,15.68 
			9.16,15.76 9.28,16.03 9.45,15.95 9.43,15.9 		"/>
		<path class="st0" d="M9.6,15.83c-0.04,0.02-0.08,0-0.1-0.06c-0.02-0.05-0.01-0.1,0.03-0.12c0.02-0.01,0.04-0.01,0.06,0L9.6,15.6
			c-0.03-0.01-0.06-0.01-0.1,0c-0.07,0.03-0.11,0.11-0.07,0.2c0.04,0.09,0.12,0.11,0.19,0.08c0.03-0.01,0.06-0.04,0.07-0.08
			l-0.05-0.02C9.64,15.8,9.62,15.82,9.6,15.83z"/>
		<polygon class="st0" points="9.84,15.52 9.82,15.47 9.61,15.56 9.63,15.62 9.7,15.58 9.8,15.8 9.86,15.78 9.77,15.56 		"/>
		<path class="st0" d="M9.96,15.4c-0.07,0.03-0.1,0.1-0.06,0.19c0.04,0.09,0.11,0.12,0.19,0.09c0.07-0.03,0.1-0.11,0.06-0.2
			C10.11,15.4,10.03,15.37,9.96,15.4z M10.06,15.63c-0.04,0.02-0.08-0.01-0.1-0.06c-0.02-0.05-0.01-0.1,0.02-0.11
			c0.04-0.02,0.08,0.01,0.1,0.06C10.1,15.57,10.1,15.62,10.06,15.63z"/>
		<path class="st0" d="M10.38,15.33c-0.03-0.06-0.08-0.06-0.14-0.04l-0.1,0.04l0.12,0.27l0.06-0.03l-0.04-0.1l0.03-0.01l0.1,0.07
			l0.07-0.03l-0.11-0.08C10.39,15.4,10.4,15.37,10.38,15.33z M10.29,15.42l-0.03,0.01l-0.03-0.08l0.03-0.01
			c0.03-0.01,0.05-0.01,0.07,0.01C10.33,15.38,10.32,15.4,10.29,15.42z"/>
	</g>
</g>
<g>
	<g>
		<g>
			<g>
				<g>
					<polygon class="st0" points="16.42,2.92 15.93,2.89 15.95,2.57 15.87,2.56 15.85,2.97 16.5,3.01 16.52,2.6 16.44,2.59 					"/>
				</g>
			</g>
			<g>
				<g>
					<path class="st0" d="M16.64,2.53C16.64,2.53,16.64,2.54,16.64,2.53l-0.88-0.04c0,0-0.01,0-0.01-0.01l0-0.09l-0.08,0l0,0.09
						c0,0.05,0.04,0.09,0.08,0.09l0.87,0.05c0.05,0,0.09-0.04,0.09-0.08l0-0.09l-0.08,0L16.64,2.53z"/>
				</g>
			</g>
		</g>
		<g>
			<g>
				<path class="st0" d="M17.81,1.24l-0.03,0.48l0.77,0.39l0.11,0.01l0.06-1.18l-0.11-0.01L17.81,1.24z M18.64,1.02l-0.05,1.02
					l-0.01,0l-0.76-0.39l0.02-0.33l0.8-0.3L18.64,1.02z"/>
			</g>
		</g>
		<g>
			<g>
				<path class="st0" d="M17.78,0.45L15.04,0.3c-0.07,0-0.13,0.05-0.13,0.12l-0.1,1.84c0,0.07,0.05,0.13,0.12,0.13l2.74,0.15
					c0.07,0,0.13-0.05,0.13-0.12l0.1-1.84C17.9,0.51,17.85,0.45,17.78,0.45z M17.71,2.41c0,0.02-0.02,0.04-0.04,0.04L14.93,2.3
					c-0.02,0-0.04-0.02-0.04-0.04l0.1-1.84c0-0.02,0.02-0.04,0.04-0.04l2.74,0.15c0.02,0,0.04,0.02,0.04,0.04L17.71,2.41z"/>
			</g>
			<g>
				<path class="st0" d="M16.92,0.12l-1.11-0.06c-0.05,0-0.09,0.04-0.09,0.08L15.7,0.42l1.29,0.07l0.01-0.28
					C17.01,0.16,16.97,0.12,16.92,0.12z M16.92,0.4l-1.12-0.06l0.01-0.19c0,0,0-0.01,0.01-0.01l1.11,0.06c0,0,0.01,0,0.01,0.01
					L16.92,0.4z"/>
			</g>
			<g>
				<g>
					
						<rect x="16.38" y="0.03" transform="matrix(0.0536 -0.9986 0.9986 0.0536 15.5026 16.4922)" class="st0" width="0.14" height="0.08"/>
				</g>
				<g>
					
						<rect x="16.14" y="0.02" transform="matrix(0.0536 -0.9986 0.9986 0.0536 15.274 16.2385)" class="st0" width="0.12" height="0.08"/>
				</g>
			</g>
		</g>
		<g>
			<path class="st0" d="M16.46,1.27l-1.2-0.06c-0.05,0-0.09,0.04-0.09,0.08L15.12,2.1c0,0.05,0.04,0.09,0.08,0.09l1.2,0.06
				c0.05,0,0.09-0.04,0.09-0.08l0.04-0.81C16.55,1.31,16.51,1.27,16.46,1.27z M16.42,2.17C16.42,2.17,16.41,2.18,16.42,2.17
				l-1.21-0.06c0,0-0.01,0-0.01-0.01l0.04-0.81c0,0,0-0.01,0.01-0.01l1.2,0.06c0,0,0.01,0,0.01,0.01L16.42,2.17z"/>
		</g>
		<g>
			<path class="st0" d="M16.67,0.65c-0.1-0.01-0.18,0.07-0.19,0.17c-0.01,0.1,0.07,0.18,0.17,0.19c0.1,0.01,0.18-0.07,0.19-0.17
				C16.84,0.74,16.76,0.66,16.67,0.65z M16.65,0.93c-0.05,0-0.09-0.05-0.09-0.1c0-0.05,0.05-0.09,0.1-0.09
				c0.05,0,0.09,0.05,0.09,0.1C16.75,0.89,16.7,0.93,16.65,0.93z"/>
		</g>
		<g>
			<path class="st0" d="M17.16,0.68c-0.1-0.01-0.18,0.07-0.19,0.17c-0.01,0.1,0.07,0.18,0.17,0.19c0.1,0.01,0.18-0.07,0.19-0.17
				C17.33,0.77,17.26,0.68,17.16,0.68z M17.14,0.95c-0.05,0-0.09-0.05-0.09-0.1c0-0.05,0.05-0.09,0.1-0.09
				c0.05,0,0.09,0.05,0.09,0.1C17.24,0.91,17.2,0.95,17.14,0.95z"/>
		</g>
		<g>
			<g>
				<path class="st0" d="M17.45,0h-0.59c0.08,0.03,0.16,0.06,0.26,0.06C17.23,0.07,17.35,0.04,17.45,0z"/>
			</g>
		</g>
	</g>
	<g>
		<g>
			<polygon class="st0" points="15.67,0.35 15.41,0 15.31,0 15.6,0.4 			"/>
		</g>
	</g>
	<g>
		<g>
			<polygon class="st0" points="17.25,0.48 17.57,0 17.47,0 17.18,0.44 			"/>
		</g>
	</g>
</g>
<g>
	<g>
		<g>
			<g>
				<g>
					<polygon class="st0" points="0.13,12.03 0.06,12.07 0.2,12.36 0,12.46 0,12.55 0.31,12.4 					"/>
				</g>
			</g>
			<g>
				<g>
					<path class="st0" d="M0.27,11.88L0.23,11.8l-0.07,0.04l0.04,0.08c0,0,0,0.01,0,0.01L0,12.02v0.09L0.23,12
						C0.28,11.98,0.3,11.92,0.27,11.88z"/>
				</g>
			</g>
		</g>
		<g>
			<g>
				<path class="st0" d="M1.14,9.56l-0.56,0.66l0.21,0.44l0.87-0.04l0.1-0.05L1.25,9.51L1.14,9.56z M1.65,10.54L0.8,10.58l-0.15-0.3
					L1.2,9.62l0.01-0.01l0.45,0.92L1.65,10.54z"/>
			</g>
		</g>
		<g>
			<g>
				<path class="st0" d="M1.15,11.25L0.34,9.6c-0.03-0.06-0.1-0.09-0.16-0.06L0,9.63v0.09l0.21-0.1c0.02-0.01,0.04,0,0.05,0.02
					l0.81,1.65c0.01,0.02,0,0.04-0.02,0.05L0,11.86v0.09l1.09-0.54C1.15,11.38,1.18,11.31,1.15,11.25z"/>
			</g>
		</g>
		<g>
			<path class="st0" d="M0,10.18v0.05C0,10.22,0,10.2,0,10.18z"/>
		</g>
	</g>
</g>
<g>
	<g>
		<g>
			<g>
				<g>
					<path class="st0" d="M10.02,6.68C9.99,6.7,9.97,6.72,9.94,6.75C9.9,6.79,9.84,6.86,9.8,6.88C9.74,6.92,9.67,6.9,9.62,6.83
						c-0.09-0.14-0.24-0.47-0.2-0.55c0.02-0.04,0.08-0.11,0.13-0.16c0.04-0.05,0.08-0.09,0.11-0.13C9.67,5.96,9.68,5.93,9.67,5.9
						C9.66,5.88,9.64,5.84,9.61,5.81C9.58,5.82,9.55,5.82,9.53,5.82C9.55,5.86,9.58,5.9,9.59,5.93c0,0,0,0.01-0.01,0.02
						c-0.02,0.03-0.06,0.07-0.1,0.12C9.43,6.13,9.37,6.19,9.34,6.24C9.26,6.4,9.55,6.87,9.55,6.87c0.08,0.12,0.21,0.15,0.32,0.06
						l0.01,0l0.01-0.01C9.92,6.88,9.96,6.84,10,6.81c0.04-0.04,0.08-0.07,0.13-0.1c0,0,0.01,0,0.01-0.01
						C10.09,6.7,10.05,6.7,10.02,6.68z"/>
				</g>
				<g>
					<path class="st0" d="M10.3,5.63c-0.06,0-0.14,0.03-0.22,0.05c-0.05,0.02-0.1,0.03-0.13,0.04c-0.02,0-0.03,0-0.03,0
						C9.89,5.7,9.85,5.64,9.83,5.6C9.82,5.63,9.8,5.66,9.79,5.69c0.02,0.03,0.05,0.07,0.06,0.09C9.88,5.81,9.92,5.81,9.96,5.8
						C10,5.79,10.05,5.78,10.1,5.76c0.07-0.02,0.15-0.05,0.2-0.05c0.09,0,0.32,0.27,0.41,0.41c0.02,0.04,0.03,0.08,0.03,0.11
						c-0.01,0.03-0.02,0.06-0.05,0.08c-0.05,0.03-0.13,0.05-0.18,0.07c-0.03,0.01-0.07,0.03-0.1,0.05c-0.01,0.05-0.04,0.1-0.07,0.14
						c0.01-0.01,0.03-0.02,0.05-0.04c0.05-0.03,0.09-0.05,0.14-0.07c0.05-0.02,0.1-0.04,0.16-0.06l0.01,0l0,0
						c0.01,0,0.02-0.01,0.02-0.01c0.05-0.03,0.08-0.08,0.09-0.13c0.01-0.06,0-0.11-0.04-0.17C10.78,6.07,10.48,5.62,10.3,5.63z"/>
				</g>
			</g>
			<g>
				<g>
					<path class="st0" d="M10.61,7.79c-0.04-0.06-0.1-0.14-0.16-0.23c-0.12-0.17-0.25-0.36-0.36-0.5C10.02,6.98,9.95,6.9,9.91,6.87
						c0,0,0,0-0.01,0.01C9.89,6.9,9.87,6.91,9.85,6.93C9.87,6.94,9.94,7,10.03,7.11c0.11,0.14,0.24,0.33,0.36,0.5
						c0.06,0.09,0.12,0.17,0.16,0.23c0.29,0.39,0.74,0.85,0.91,1.01l0.07-0.04C11.37,8.65,10.9,8.19,10.61,7.79z"/>
					<path class="st0" d="M11.12,7.15c-0.1-0.17-0.23-0.38-0.31-0.54c-0.06-0.12-0.08-0.2-0.09-0.22c-0.01,0-0.01,0.01-0.02,0.01
						c-0.02,0.01-0.04,0.02-0.05,0.02c0.01,0.05,0.04,0.13,0.09,0.23c0.08,0.16,0.21,0.38,0.32,0.55c0.05,0.09,0.1,0.17,0.13,0.23
						c0.26,0.46,0.48,1.06,0.54,1.25l0.07-0.05c-0.07-0.21-0.29-0.79-0.54-1.24C11.22,7.32,11.17,7.24,11.12,7.15z"/>
				</g>
			</g>
		</g>
		<g>
			<path class="st0" d="M9.35,5.2C9.21,5.29,9.18,5.5,9.28,5.67C9.39,5.83,9.59,5.89,9.73,5.8C9.87,5.71,9.9,5.5,9.8,5.33
				C9.69,5.17,9.49,5.11,9.35,5.2z M9.69,5.73C9.58,5.8,9.43,5.75,9.35,5.62C9.27,5.5,9.29,5.34,9.39,5.27
				C9.5,5.2,9.65,5.25,9.73,5.38C9.81,5.51,9.79,5.66,9.69,5.73z"/>
		</g>
		<g>
			<g>
				<g>
					<polygon class="st0" points="11.05,9.08 11.17,9.26 11.24,9.22 11.16,9.1 12.15,8.46 12.23,8.58 12.29,8.53 12.18,8.35 					
						"/>
				</g>
			</g>
			<g>
				<path class="st0" d="M12.43,8.4L11,9.33c-0.08,0.05-0.1,0.16-0.05,0.24l0.08,0.12l1.72-1.11l-0.08-0.12
					C12.61,8.38,12.5,8.35,12.43,8.4z M11.05,9.57l-0.03-0.05c-0.03-0.04-0.01-0.1,0.03-0.12l1.43-0.92
					c0.04-0.03,0.1-0.01,0.12,0.03l0.03,0.05L11.05,9.57z"/>
			</g>
		</g>
		<g>
			<path class="st0" d="M9.87,6.01C9.69,6.13,9.64,6.37,9.75,6.55c0.12,0.18,0.36,0.23,0.54,0.12c0.18-0.12,0.23-0.36,0.12-0.54
				C10.29,5.95,10.05,5.89,9.87,6.01z M10.25,6.6C10.1,6.69,9.91,6.65,9.82,6.5C9.73,6.36,9.77,6.17,9.91,6.08
				c0.14-0.09,0.33-0.05,0.43,0.09C10.43,6.31,10.39,6.5,10.25,6.6z"/>
		</g>
	</g>
	<g>
		<path class="st0" d="M10.59,7.13c-0.11,0.07-0.21,0.02-0.21,0.02l-0.02,0.04l-0.02,0.04c0.01,0,0.13,0.06,0.26,0l1,1.55l0.07-0.04
			l-1.04-1.62L10.59,7.13z"/>
	</g>
	<g>
		<path class="st0" d="M10.7,6.95c0,0,0.01,0.1-0.1,0.18c0,0,0,0,0,0l0.04,0.07c0,0,0,0,0,0c0.16-0.1,0.14-0.25,0.14-0.26L10.7,6.95
			z"/>
	</g>
</g>
<g>
	<g>
		<g>
			<g>
				<g>
					<path class="st0" d="M13.07,0.47c0-0.09,0.01-0.26,0.02-0.47h-0.08C13,0.19,12.99,0.36,12.99,0.45L13.07,0.47z"/>
					<path class="st0" d="M13.38,0.55c0.06-0.1,0.16-0.31,0.28-0.55h-0.09c-0.11,0.24-0.22,0.44-0.27,0.53L13.38,0.55z"/>
				</g>
			</g>
		</g>
		<g>
			<g>
				<g>
					<polygon class="st0" points="12.49,0.52 12.56,0.54 12.6,0.41 13.74,0.71 13.7,0.84 13.78,0.86 13.84,0.65 12.54,0.31 					"/>
				</g>
			</g>
			<g>
				<path class="st0" d="M13.97,0.87l-1.64-0.43c-0.09-0.02-0.19,0.03-0.21,0.12L12.08,0.7l1.97,0.52l0.04-0.14
					C14.11,0.99,14.06,0.9,13.97,0.87z M14.01,1.06l-0.02,0.06l-1.82-0.48l0.02-0.06c0.01-0.05,0.06-0.08,0.11-0.06l1.64,0.43
					C13.99,0.97,14.02,1.01,14.01,1.06z"/>
			</g>
		</g>
	</g>
	<g>
		<polygon class="st0" points="13.22,0.53 13.36,0 13.27,0 13.14,0.51 		"/>
	</g>
</g>
<g>
	<g>
		<g>
			<g>
				<g>
					<path class="st0" d="M13.88,17.11c0,0-0.01,0-0.02,0c-0.04,0.01-0.09,0.01-0.15,0.01c-0.08,0-0.17,0-0.23,0.02
						c-0.17,0.05-0.32,0.57-0.32,0.58c-0.04,0.14,0.03,0.26,0.17,0.28l0.01,0l0.01,0c0.06,0,0.11,0,0.17,0.01
						c0.05,0,0.11,0.01,0.16,0.03c0,0,0.01,0,0.01,0c-0.03-0.03-0.05-0.06-0.06-0.1c-0.04-0.01-0.07-0.01-0.11-0.01
						c-0.05,0-0.15,0-0.2-0.01c-0.07-0.02-0.1-0.09-0.08-0.17c0.04-0.17,0.18-0.5,0.27-0.52c0.05-0.01,0.13-0.01,0.21-0.01
						c0.06,0,0.12,0,0.17-0.01c0.03-0.01,0.07-0.01,0.08-0.05c0.01-0.02,0.02-0.06,0.03-0.1c-0.03-0.02-0.05-0.04-0.07-0.06
						C13.91,17.03,13.89,17.08,13.88,17.11z"/>
				</g>
				<g>
					<path class="st0" d="M14.39,17.3c-0.05-0.03-0.09-0.05-0.12-0.07c-0.02-0.01-0.02-0.02-0.03-0.02c0.01-0.04,0.03-0.1,0.04-0.15
						c-0.03,0.02-0.06,0.03-0.09,0.03c-0.01,0.04-0.02,0.08-0.03,0.11c0,0.04,0.03,0.07,0.06,0.09c0.03,0.02,0.08,0.05,0.13,0.08
						c0.06,0.04,0.14,0.08,0.17,0.11c0.06,0.06,0.02,0.42-0.02,0.58c-0.01,0.04-0.03,0.08-0.06,0.1c-0.03,0.02-0.06,0.02-0.09,0.01
						c-0.06-0.02-0.13-0.06-0.18-0.09c-0.03-0.02-0.07-0.03-0.1-0.04c-0.04,0.02-0.1,0.04-0.15,0.04c0.02,0,0.04,0.01,0.06,0.01
						c0.05,0.01,0.1,0.03,0.15,0.06c0.05,0.02,0.1,0.05,0.15,0.08l0.01,0l0.01,0c0.01,0,0.02,0.01,0.03,0.01
						c0.06,0.01,0.11,0.01,0.16-0.02c0.05-0.03,0.08-0.08,0.1-0.14c0-0.01,0.13-0.54,0-0.66C14.54,17.39,14.46,17.35,14.39,17.3z"/>
				</g>
			</g>
			<g>
				<g>
					<path class="st0" d="M13.26,18.85c0.05-0.2,0.1-0.43,0.13-0.61c0.02-0.1,0.02-0.21,0.02-0.25c0,0-0.01,0-0.01,0
						c-0.02,0-0.05,0-0.07-0.01c0,0.03,0.01,0.12-0.01,0.25c-0.03,0.18-0.08,0.4-0.13,0.6c-0.02,0.11-0.05,0.2-0.06,0.27
						c-0.06,0.28-0.09,0.62-0.11,0.9h0.08c0.02-0.27,0.05-0.61,0.11-0.88C13.21,19.05,13.23,18.95,13.26,18.85z"/>
					<path class="st0" d="M14.01,19.06c0.06-0.19,0.13-0.43,0.19-0.6c0.05-0.13,0.09-0.2,0.11-0.22c-0.01,0-0.01-0.01-0.02-0.01
						c-0.02-0.01-0.04-0.01-0.05-0.03c-0.03,0.04-0.07,0.12-0.11,0.22c-0.06,0.17-0.14,0.41-0.19,0.6c-0.03,0.1-0.06,0.19-0.08,0.25
						c-0.08,0.24-0.18,0.49-0.29,0.71h0.09c0.1-0.21,0.2-0.46,0.27-0.69C13.95,19.25,13.98,19.16,14.01,19.06z"/>
				</g>
			</g>
		</g>
		<g>
			<path class="st0" d="M14.25,16.44c-0.16-0.04-0.34,0.08-0.39,0.27c-0.05,0.19,0.04,0.38,0.2,0.42c0.16,0.04,0.34-0.08,0.39-0.27
				C14.51,16.67,14.42,16.49,14.25,16.44z M14.38,16.84c-0.04,0.15-0.17,0.24-0.29,0.21c-0.12-0.03-0.19-0.18-0.15-0.32
				c0.04-0.15,0.17-0.24,0.29-0.21C14.35,16.55,14.42,16.7,14.38,16.84z"/>
		</g>
		<g>
			<path class="st0" d="M14.01,17.37c-0.21-0.05-0.42,0.07-0.48,0.28c-0.05,0.21,0.07,0.42,0.28,0.48c0.21,0.05,0.42-0.07,0.48-0.28
				C14.34,17.64,14.22,17.43,14.01,17.37z M14.21,17.83c-0.04,0.16-0.21,0.26-0.38,0.22c-0.16-0.04-0.26-0.21-0.22-0.38
				c0.04-0.16,0.21-0.26,0.38-0.22C14.15,17.49,14.25,17.66,14.21,17.83z"/>
		</g>
	</g>
	<g>
		<path class="st0" d="M13.67,18.66c-0.13-0.03-0.16-0.14-0.16-0.14l-0.04,0.01l-0.04,0.01c0,0.01,0.04,0.14,0.18,0.19L13.27,20
			h0.08l0.35-1.33L13.67,18.66z"/>
	</g>
	<g>
		<path class="st0" d="M13.67,18.66C13.67,18.66,13.67,18.66,13.67,18.66l-0.02,0.08c0,0,0,0,0,0c0.18,0.05,0.28-0.07,0.28-0.07
			l-0.06-0.05C13.87,18.62,13.81,18.7,13.67,18.66z"/>
	</g>
</g>
<g>
	<g>
		<g>
			<path class="st0" d="M17,5.54c0.05-0.08,0.07-0.18-0.02-0.29c-0.01-0.01-0.02-0.02-0.03-0.03c0.04-0.07,0.05-0.15,0.01-0.23
				c-0.03-0.05-0.08-0.09-0.14-0.11c-0.07-0.02-0.15-0.01-0.22,0.02c-0.01-0.01-0.01-0.02-0.02-0.03c-0.02-0.02-0.03-0.03-0.06-0.04
				c0.04-0.09,0.03-0.18-0.04-0.26c-0.07-0.08-0.19-0.09-0.3-0.04c-0.02-0.06-0.06-0.11-0.12-0.14c-0.07-0.03-0.15-0.03-0.23,0.02
				c-0.08,0.05-0.14,0.13-0.16,0.21C15.55,4.6,15.4,4.64,15.36,4.8c0,0.01,0,0.01,0,0.02c-0.05,0-0.09,0.01-0.14,0.04
				c-0.08,0.05-0.14,0.13-0.16,0.21c-0.12-0.03-0.27,0.01-0.31,0.17c-0.01,0.04-0.01,0.08,0.01,0.12l0.1,0.02
				c-0.01-0.01-0.01-0.01-0.01-0.02c-0.02-0.03-0.03-0.07-0.02-0.1c0.04-0.15,0.17-0.13,0.22-0.12c0.01,0,0.03,0.01,0.04,0.01
				l0.05,0.02l0-0.06c0-0.01,0-0.02,0-0.03c0.01-0.06,0.06-0.13,0.12-0.17c0.03-0.02,0.08-0.04,0.13-0.03l0,0l0.05,0.01l0-0.05
				c0-0.01,0-0.03,0-0.04c0.04-0.15,0.17-0.13,0.22-0.12c0.01,0,0.03,0.01,0.04,0.01l0.05,0.02l0-0.06c0-0.01,0-0.02,0-0.03
				c0.01-0.06,0.06-0.13,0.12-0.17c0.04-0.02,0.1-0.05,0.15-0.02c0.06,0.03,0.09,0.07,0.09,0.13l0,0.06l0.05-0.03
				c0.06-0.04,0.13-0.05,0.19-0.04c0.03,0.01,0.05,0.02,0.07,0.04c0.08,0.09,0.04,0.17,0.01,0.21L16.4,4.88l0.05,0.01
				c0.03,0.01,0.05,0.02,0.06,0.04c0.01,0.01,0.02,0.03,0.03,0.04l0.02,0.03l0.03-0.02c0.06-0.03,0.14-0.04,0.2-0.03
				c0.05,0.01,0.08,0.03,0.1,0.07c0.04,0.09,0.01,0.15-0.02,0.18l-0.04,0.04l0.05,0.02c0.02,0.01,0.03,0.02,0.04,0.03
				c0.09,0.11,0.02,0.2-0.01,0.23l-0.05,0.05l0.08,0.01c0.03,0.01,0.05,0.02,0.07,0.04c0.04,0.05,0.06,0.11,0.03,0.16
				c-0.01,0.04-0.04,0.07-0.08,0.1l0.09,0.02c0.03-0.03,0.05-0.06,0.06-0.09c0.03-0.08,0.01-0.16-0.05-0.24
				C17.04,5.57,17.02,5.55,17,5.54z"/>
		</g>
		<path class="st0" d="M14.67,5.56l-0.38,2.21l1.38,0.34c0.02-0.01,0.04-0.03,0.06-0.04c0.01,0,0.02-0.01,0.03-0.02l-1.38-0.34
			l0.37-2.14l2.24,0.55l-0.63,1.98c0.01,0.01,0.02,0.02,0.03,0.03c0.01,0.02,0.02,0.03,0.03,0.05l0.65-2.04l0.06-0.24l-2.39-0.58
			L14.67,5.56z M14.78,5.42l2.25,0.55L17,6.06l-2.25-0.55L14.78,5.42z"/>
		<g>
			<g>
				<path class="st0" d="M15.85,8.54c-0.09,0-0.2-0.05-0.26-0.12c-0.04-0.05-0.06-0.11-0.06-0.17c0.02-0.15,0.14-0.21,0.24-0.21
					c0.08,0,0.15,0.03,0.2,0.07c0,0,0,0,0.01,0.01c0.06-0.05,0.15-0.09,0.23-0.09c0.07,0,0.12,0.02,0.16,0.07
					c0.06,0.07,0.08,0.15,0.05,0.23c-0.04,0.1-0.14,0.17-0.24,0.19c-0.08,0.01-0.14-0.01-0.19-0.04c-0.03,0.03-0.07,0.05-0.11,0.05
					C15.87,8.54,15.86,8.54,15.85,8.54z M15.77,8.12c-0.05,0-0.16,0.01-0.17,0.15c0,0.04,0.01,0.08,0.04,0.11
					c0.05,0.06,0.16,0.1,0.23,0.09c0.03,0,0.07-0.03,0.09-0.06l0.02-0.03l0.02,0.03c0.04,0.04,0.09,0.06,0.16,0.05
					c0.08-0.01,0.16-0.07,0.19-0.15c0.02-0.06,0.01-0.11-0.03-0.16C16.3,8.12,16.26,8.1,16.22,8.1c-0.07,0-0.16,0.04-0.21,0.09
					l-0.02,0.03L15.96,8.2c-0.01-0.01-0.02-0.02-0.03-0.02C15.89,8.14,15.83,8.12,15.77,8.12z"/>
			</g>
			<g>
				<path class="st0" d="M16.8,8.7C16.8,8.7,16.8,8.7,16.8,8.7c-0.03,0-0.07-0.01-0.09-0.02c-0.08-0.04-0.15-0.14-0.17-0.24
					c-0.01-0.07,0-0.14,0.04-0.19c0.05-0.05,0.11-0.08,0.17-0.08c0.13,0,0.24,0.12,0.27,0.22c0.03,0.1,0.01,0.19-0.06,0.25
					C16.92,8.68,16.86,8.7,16.8,8.7z M16.76,8.23c-0.04,0-0.09,0.02-0.12,0.06c-0.04,0.04-0.04,0.09-0.03,0.13
					c0.02,0.08,0.07,0.16,0.14,0.19c0.02,0.01,0.04,0.01,0.06,0.01c0,0,0,0,0,0c0.04,0,0.09-0.02,0.12-0.04
					c0.05-0.04,0.07-0.1,0.04-0.19C16.94,8.32,16.85,8.23,16.76,8.23z"/>
			</g>
		</g>
	</g>
	<g>
		<path class="st0" d="M14.63,6.09c0,0.03-0.01,0.05-0.02,0.08l1.49-0.27c-0.05-0.01-0.1-0.03-0.15-0.05L14.63,6.09z"/>
	</g>
	<g>
		<path class="st0" d="M14.53,6.67L17,6.22c0-0.01,0-0.01,0.01-0.02c0-0.02,0-0.04,0.01-0.06l-2.5,0.46L14.53,6.67z"/>
	</g>
	<g>
		<path class="st0" d="M14.45,7.12l2.39-0.44c0.01-0.02,0.01-0.03,0.02-0.05c0-0.01,0.01-0.02,0.01-0.03l-2.4,0.44L14.45,7.12z"/>
	</g>
	<g>
		<path class="st0" d="M14.36,7.61l2.32-0.42c0.01-0.02,0.02-0.04,0.02-0.06c0-0.01,0.01-0.01,0.01-0.02l-2.37,0.43L14.36,7.61z"/>
	</g>
	<g>
		<path class="st0" d="M15.09,7.92l1.43-0.26c0.01-0.03,0.02-0.06,0.04-0.08l-1.63,0.3C14.99,7.89,15.04,7.9,15.09,7.92z"/>
	</g>
</g>
<g>
	<g>
		<g>
			<g>
				<g>
					<path class="st0" d="M10.27,11.68l-0.07,0.02l0.37,1.63c0,0.01,0,0.02-0.01,0.02l-3.14,0.72c-0.01,0-0.02,0-0.02-0.01
						l-0.37-1.63l-0.07,0.02l0.37,1.63c0.01,0.05,0.06,0.08,0.11,0.07l3.14-0.72c0.05-0.01,0.08-0.06,0.07-0.11L10.27,11.68z"/>
				</g>
			</g>
		</g>
		<g>
			<g>
				<path class="st0" d="M6.9,11.94c0.01,0.02,0.01,0.05,0.01,0.08l3.31-0.75l0.09,0.37l-3.42,0.78l-0.06-0.25
					c-0.01,0.01-0.03,0.02-0.04,0.02c-0.01,0-0.02,0-0.03,0l0.07,0.31l3.57-0.81l-0.12-0.52L6.9,11.94z"/>
			</g>
			<g>
				<g>
					<path class="st0" d="M6.39,11.68l0.24,0.25c0-0.01,0-0.01,0.01-0.02c0-0.01-0.01-0.02,0-0.03c0.01-0.01,0.02-0.02,0.03-0.03
						L6.5,11.68l2.57-2.39l0.26,0.28l-2.49,2.31c0.02,0.02,0.04,0.04,0.04,0.07l2.55-2.37L9.07,9.19L6.39,11.68z"/>
				</g>
			</g>
			<g>
				<path class="st0" d="M6.71,11.82c-0.11,0.02-0.18,0.13-0.15,0.24c0.02,0.11,0.13,0.18,0.24,0.15c0.11-0.02,0.18-0.13,0.15-0.24
					S6.82,11.79,6.71,11.82z M6.78,12.14c-0.07,0.02-0.14-0.03-0.15-0.1c-0.02-0.07,0.03-0.14,0.1-0.15
					c0.07-0.02,0.14,0.03,0.15,0.1C6.89,12.06,6.85,12.12,6.78,12.14z"/>
			</g>
		</g>
	</g>
	<g>
		
			<rect x="7.53" y="12.52" transform="matrix(0.975 -0.2224 0.2224 0.975 -2.5733 2.2543)" class="st0" width="2.38" height="0.08"/>
	</g>
	<g>
		
			<rect x="7.61" y="12.87" transform="matrix(0.9749 -0.2224 0.2224 0.9749 -2.6512 2.282)" class="st0" width="2.38" height="0.08"/>
	</g>
	<g>
		
			<rect x="7.69" y="13.22" transform="matrix(0.975 -0.2224 0.2224 0.975 -2.7262 2.3077)" class="st0" width="2.38" height="0.08"/>
	</g>
	<g>
		
			<rect x="6.86" y="12.12" transform="matrix(0.4966 -0.868 0.868 0.4966 -6.9426 12.3426)" class="st0" width="0.62" height="0.08"/>
	</g>
	<g>
		
			<rect x="7.43" y="11.99" transform="matrix(0.4966 -0.868 0.868 0.4966 -6.5428 12.7722)" class="st0" width="0.62" height="0.08"/>
	</g>
	<g>
		
			<rect x="7.99" y="11.86" transform="matrix(0.4966 -0.868 0.868 0.4966 -6.1481 13.1963)" class="st0" width="0.62" height="0.08"/>
	</g>
	<g>
		
			<rect x="8.56" y="11.73" transform="matrix(0.4966 -0.868 0.868 0.4966 -5.7507 13.623)" class="st0" width="0.62" height="0.08"/>
	</g>
	<g>
		
			<rect x="9.12" y="11.6" transform="matrix(0.4966 -0.868 0.868 0.4966 -5.3532 14.0493)" class="st0" width="0.62" height="0.08"/>
	</g>
	<g>
		
			<rect x="9.7" y="11.47" transform="matrix(0.4966 -0.868 0.868 0.4966 -4.9496 14.4823)" class="st0" width="0.62" height="0.08"/>
	</g>
	<g>
		
			<rect x="6.85" y="11.25" transform="matrix(1 -5.877312e-03 5.877312e-03 1 -0.0679 0.0407)" class="st0" width="0.08" height="0.62"/>
	</g>
	<g>
		
			<rect x="7.28" y="10.86" transform="matrix(1 -5.884428e-03 5.884428e-03 1 -0.0656 0.0432)" class="st0" width="0.08" height="0.62"/>
	</g>
	<g>
		
			<rect x="7.7" y="10.46" transform="matrix(1 -5.877582e-03 5.877582e-03 1 -0.0632 0.0457)" class="st0" width="0.08" height="0.62"/>
	</g>
	<g>
		
			<rect x="8.13" y="10.07" transform="matrix(1 -5.877683e-03 5.877683e-03 1 -0.0609 0.0482)" class="st0" width="0.08" height="0.62"/>
	</g>
	<g>
		
			<rect x="8.55" y="9.67" transform="matrix(1 -5.863541e-03 5.863541e-03 1 -0.0584 0.0505)" class="st0" width="0.08" height="0.62"/>
	</g>
	<g>
		
			<rect x="8.98" y="9.27" transform="matrix(1 -5.863541e-03 5.863541e-03 1 -0.056 0.0531)" class="st0" width="0.08" height="0.62"/>
	</g>
</g>
<g>
	<g>
		<g>
			<g>
				<g>
					<path class="st0" d="M0.47,6.3L1.18,4.8L1.11,4.76L0.4,6.27c0,0.01-0.01,0.01-0.02,0.01L0,6.1v0.08l0.34,0.16
						C0.39,6.37,0.45,6.35,0.47,6.3z"/>
				</g>
			</g>
		</g>
		<g>
			<g>
				<polygon class="st0" points="1.5,4.4 0,3.69 0,3.78 1.4,4.44 1.23,4.79 0,4.2 0,4.29 1.27,4.89 				"/>
			</g>
			<g>
				<g>
					<polygon class="st0" points="1.79,2.1 0,2.25 0,2.32 1.72,2.18 1.75,2.57 0,2.71 0,2.78 1.83,2.64 					"/>
				</g>
			</g>
		</g>
	</g>
	<g>
		<polygon class="st0" points="0.52,5 0,4.76 0,4.84 0.49,5.07 		"/>
	</g>
	<g>
		<polygon class="st0" points="0.36,5.34 0,5.16 0,5.25 0.33,5.4 		"/>
	</g>
	<g>
		<polygon class="st0" points="0.21,5.66 0,5.56 0,5.64 0.18,5.73 		"/>
	</g>
	<g>
		<polygon class="st0" points="0.3,3.85 0,3.97 0,4.06 0.33,3.92 		"/>
	</g>
	<g>
		
			<rect x="0.24" y="4.21" transform="matrix(0.9272 -0.3745 0.3745 0.9272 -1.552 0.5167)" class="st0" width="0.62" height="0.08"/>
	</g>
	<g>
		
			<rect x="0.77" y="4.47" transform="matrix(0.9272 -0.3745 0.3745 0.9272 -1.6081 0.735)" class="st0" width="0.62" height="0.08"/>
	</g>
	<g>
		
			<rect x="0.02" y="2.44" transform="matrix(0.6138 -0.7895 0.7895 0.6138 -1.8246 1.2198)" class="st0" width="0.62" height="0.08"/>
	</g>
	<g>
		<rect x="0.6" y="2.39" transform="matrix(0.6137 -0.7895 0.7895 0.6137 -1.5632 1.659)" class="st0" width="0.62" height="0.08"/>
	</g>
	<g>
		
			<rect x="1.19" y="2.34" transform="matrix(0.6138 -0.7895 0.7895 0.6138 -1.2977 2.1047)" class="st0" width="0.62" height="0.08"/>
	</g>
</g>
<g>
	<g>
		<g>
			<g>
				<g>
					<polygon class="st0" points="19.62,12.29 19.54,12.32 19.72,12.69 20,12.55 20,12.46 19.76,12.58 					"/>
				</g>
			</g>
			<g>
				<g>
					<path class="st0" d="M19.41,12.31l-0.04-0.08l-0.07,0.04l0.04,0.08c0.02,0.04,0.08,0.06,0.12,0.04L20,12.12v-0.09L19.41,12.31
						C19.41,12.31,19.41,12.31,19.41,12.31z"/>
				</g>
			</g>
		</g>
		<g>
			<g>
				<path class="st0" d="M17.66,10.92l0.81,1.65c0.03,0.06,0.1,0.09,0.16,0.06L20,11.95v-0.09l-1.4,0.69
					c-0.02,0.01-0.04,0-0.05-0.02l-0.81-1.65c-0.01-0.02,0-0.04,0.02-0.05L20,9.72V9.63l-2.29,1.12
					C17.65,10.78,17.63,10.86,17.66,10.92z"/>
			</g>
			<g>
				<path class="st0" d="M19.27,9.67l-1,0.49c-0.04,0.02-0.06,0.08-0.04,0.12l0.12,0.25l1.16-0.57l-0.12-0.25
					C19.36,9.67,19.31,9.65,19.27,9.67z M18.39,10.42l-0.09-0.17c0,0,0-0.01,0-0.01l1-0.49c0,0,0.01,0,0.01,0l0.09,0.17L18.39,10.42
					z"/>
			</g>
			<g>
				<g>
					<path class="st0" d="M18.39,9.01l-0.17,0.08c0.02,0.02,0.04,0.04,0.05,0.07l0.13-0.07c0,0,0,0,0-0.01
						C18.39,9.06,18.39,9.03,18.39,9.01z"/>
				</g>
				<g>
					<path class="st0" d="M18.65,9.4c-0.05-0.03-0.1-0.06-0.14-0.1l0.31,0.64L18.9,9.9L18.65,9.4C18.65,9.4,18.65,9.4,18.65,9.4z"/>
				</g>
				<g>
					<path class="st0" d="M18.35,9.54l0.25,0.5l0.07-0.04l-0.32-0.66C18.36,9.42,18.36,9.48,18.35,9.54z"/>
				</g>
			</g>
		</g>
		<g>
			<g>
				<path class="st0" d="M17.33,8.86c-0.37,0.18-0.52,0.63-0.34,1c0.18,0.37,0.63,0.52,1,0.34s0.52-0.63,0.34-1
					C18.15,8.83,17.7,8.68,17.33,8.86z M17.96,10.12c-0.33,0.16-0.73,0.03-0.89-0.3c-0.16-0.33-0.03-0.73,0.3-0.89
					c0.33-0.16,0.73-0.03,0.89,0.3C18.42,9.56,18.28,9.96,17.96,10.12z"/>
			</g>
		</g>
		<g>
			<path class="st0" d="M19.54,10.94c-0.02-0.04-0.08-0.06-0.12-0.04l-1.08,0.53c-0.04,0.02-0.06,0.08-0.04,0.12l0.36,0.73
				c0.02,0.04,0.08,0.06,0.12,0.04l1.08-0.53c0.04-0.02,0.06-0.08,0.04-0.12L19.54,10.94z M19.83,11.72l-1.08,0.53
				c0,0-0.01,0-0.01,0l-0.36-0.73c0,0,0-0.01,0-0.01l1.08-0.53c0,0,0.01,0,0.01,0L19.83,11.72C19.83,11.71,19.83,11.72,19.83,11.72z
				"/>
		</g>
		<g>
			<path class="st0" d="M19.3,10.27c-0.09,0.04-0.12,0.15-0.08,0.24c0.04,0.09,0.15,0.12,0.24,0.08c0.09-0.04,0.12-0.15,0.08-0.24
				C19.5,10.26,19.39,10.22,19.3,10.27z M19.42,10.51c-0.05,0.02-0.11,0-0.13-0.04c-0.02-0.05,0-0.11,0.04-0.13
				c0.05-0.02,0.11,0,0.13,0.04C19.49,10.43,19.47,10.49,19.42,10.51z"/>
		</g>
		<g>
			<path class="st0" d="M19.75,10.05c-0.09,0.04-0.12,0.15-0.08,0.24c0.04,0.09,0.15,0.12,0.24,0.08c0.05-0.03,0.09-0.08,0.1-0.13
				v-0.05c0-0.02-0.01-0.04-0.02-0.06C19.94,10.04,19.83,10,19.75,10.05z M19.87,10.29c-0.05,0.02-0.11,0-0.13-0.04
				c-0.02-0.05,0-0.11,0.04-0.13c0.05-0.02,0.11,0,0.13,0.04C19.93,10.21,19.91,10.27,19.87,10.29z"/>
		</g>
		<g>
			<g>
				<path class="st0" d="M17.45,9.09C17.2,9.21,17.1,9.5,17.22,9.74c0.12,0.24,0.41,0.34,0.66,0.22c0.24-0.12,0.34-0.41,0.22-0.66
					C17.98,9.07,17.69,8.97,17.45,9.09z M17.84,9.89c-0.2,0.1-0.45,0.02-0.55-0.19s-0.02-0.45,0.19-0.55
					c0.2-0.1,0.45-0.02,0.55,0.19C18.13,9.55,18.05,9.79,17.84,9.89z"/>
			</g>
		</g>
		<g>
			<g>
				<path class="st0" d="M18.75,8.19c-0.37,0.18-0.52,0.63-0.34,1c0.18,0.37,0.63,0.52,1,0.34c0.37-0.18,0.52-0.63,0.34-1
					C19.56,8.16,19.12,8.01,18.75,8.19z M19.37,9.46c-0.33,0.16-0.73,0.03-0.89-0.3c-0.16-0.33-0.03-0.73,0.3-0.89
					c0.33-0.16,0.73-0.03,0.89,0.3C19.83,8.9,19.7,9.3,19.37,9.46z"/>
			</g>
		</g>
		<g>
			<g>
				<path class="st0" d="M18.86,8.42c-0.24,0.12-0.34,0.41-0.22,0.66c0.12,0.24,0.41,0.34,0.66,0.22c0.24-0.12,0.34-0.41,0.22-0.66
					C19.4,8.4,19.1,8.3,18.86,8.42z M19.26,9.23c-0.2,0.1-0.45,0.02-0.55-0.19c-0.1-0.2-0.02-0.45,0.19-0.55
					c0.2-0.1,0.45-0.02,0.55,0.19C19.54,8.88,19.46,9.13,19.26,9.23z"/>
			</g>
		</g>
	</g>
	<g>
		<g>
			<path class="st0" d="M17.62,10.24c-0.02,0-0.04,0-0.06,0l0.69,0.32l0.03-0.07l-0.57-0.26C17.68,10.24,17.64,10.24,17.62,10.24z"
				/>
		</g>
	</g>
	<g>
		<g>
			<path class="st0" d="M19.7,9.11l-0.06,0.72l0.08,0.01l0.06-0.78l-0.03,0C19.74,9.07,19.72,9.09,19.7,9.11z"/>
		</g>
	</g>
</g>
<g>
	<g>
		<g>
			<g>
				<g>
					<path class="st0" d="M17.46,4.88l0.72-1.51l-0.07-0.03L17.4,4.85c-0.02,0.05,0,0.1,0.04,0.12L20,6.18V6.1l-2.53-1.2
						C17.46,4.9,17.46,4.89,17.46,4.88z"/>
				</g>
			</g>
		</g>
		<g>
			<g>
				<path class="st0" d="M18.33,2.99L20,3.78V3.69l-1.63-0.77C18.37,2.95,18.35,2.97,18.33,2.99z"/>
				<path class="st0" d="M18.17,3.06c-0.02,0-0.03,0-0.05-0.01c-0.01,0-0.02-0.01-0.02-0.02l-0.14,0.29L20,4.29V4.2l-1.93-0.92
					L18.17,3.06z"/>
			</g>
			<g>
				<g>
					<path class="st0" d="M18.36,2.92L20,2.78V2.71l-1.63,0.13C18.37,2.87,18.37,2.89,18.36,2.92z"/>
					<path class="st0" d="M18.17,2.74c0.01,0,0.01-0.01,0.02-0.01c0-0.01,0.01-0.02,0.01-0.02c0.01-0.01,0.03-0.01,0.04,0
						l-0.02-0.24L20,2.32V2.25L18.14,2.4L18.17,2.74z"/>
				</g>
			</g>
			<g>
				<path class="st0" d="M18.3,2.7c-0.1-0.05-0.22,0-0.27,0.1c-0.05,0.1,0,0.22,0.1,0.27c0.1,0.05,0.22,0,0.27-0.1
					C18.44,2.87,18.4,2.75,18.3,2.7z M18.33,2.94C18.3,3,18.22,3.03,18.16,3C18.1,2.97,18.07,2.9,18.1,2.83
					c0.03-0.06,0.11-0.09,0.17-0.06C18.33,2.8,18.36,2.88,18.33,2.94z"/>
			</g>
		</g>
	</g>
	<g>
		<polygon class="st0" points="18.34,4.05 20,4.84 20,4.76 18.37,3.98 		"/>
	</g>
	<g>
		<polygon class="st0" points="18.18,4.38 20,5.25 20,5.16 18.21,4.31 		"/>
	</g>
	<g>
		<polygon class="st0" points="18.03,4.71 20,5.64 20,5.56 18.06,4.64 		"/>
	</g>
	<g>
		
			<rect x="18.14" y="3.22" transform="matrix(0.9272 -0.3745 0.3745 0.9272 0.1235 7.147)" class="st0" width="0.62" height="0.08"/>
	</g>
	<g>
		
			<rect x="18.67" y="3.47" transform="matrix(0.9272 -0.3745 0.3745 0.9272 0.0682 7.3634)" class="st0" width="0.62" height="0.08"/>
	</g>
	<g>
		
			<rect x="19.19" y="3.72" transform="matrix(0.9272 -0.3744 0.3744 0.9272 0.0134 7.5761)" class="st0" width="0.62" height="0.08"/>
	</g>
	<g>
		<polygon class="st0" points="19.75,4.16 20,4.06 20,3.97 19.72,4.08 		"/>
	</g>
	<g>
		
			<rect x="18.29" y="2.58" transform="matrix(0.6138 -0.7894 0.7894 0.6138 5.1154 15.6927)" class="st0" width="0.62" height="0.08"/>
	</g>
	<g>
		
			<rect x="18.87" y="2.53" transform="matrix(0.6138 -0.7894 0.7894 0.6138 5.3783 16.1341)" class="st0" width="0.62" height="0.08"/>
	</g>
	<g>
		
			<rect x="19.44" y="2.48" transform="matrix(0.6138 -0.7895 0.7895 0.6138 5.6378 16.5699)" class="st0" width="0.62" height="0.08"/>
	</g>
</g>
<g>
	<g>
		<g>
			<path class="st0" d="M10.53,0.63l0.18-0.43L10.22,0h-0.2l0.6,0.24l-0.15,0.36c-0.03,0.06-0.1,0.09-0.16,0.07L8.66,0h-0.2
				l1.82,0.74C10.37,0.79,10.49,0.74,10.53,0.63z"/>
		</g>
		<g>
			<path class="st0" d="M9.44,2.78L7.61,2.03c-0.1-0.04-0.22,0.01-0.26,0.11L7.17,2.58l1.1,0.45l1.1,0.45l0.18-0.43
				C9.59,2.94,9.54,2.83,9.44,2.78z M9.47,3.02L9.33,3.38L8.3,2.96L7.27,2.54l0.15-0.36c0.03-0.06,0.1-0.09,0.16-0.07l1.83,0.75
				C9.47,2.88,9.5,2.95,9.47,3.02z"/>
		</g>
		<g>
			<path class="st0" d="M10.1,1.18L8.27,0.43c-0.1-0.04-0.22,0.01-0.26,0.11L7.66,1.39C7.61,1.5,7.66,1.61,7.77,1.65L9.59,2.4
				c0.1,0.04,0.22-0.01,0.26-0.11l0.35-0.86C10.25,1.33,10.2,1.22,10.1,1.18z M10.13,1.41L9.78,2.27c-0.03,0.06-0.1,0.09-0.16,0.07
				L7.79,1.58C7.73,1.56,7.7,1.49,7.73,1.42l0.35-0.86C8.1,0.5,8.18,0.47,8.24,0.5l1.83,0.75C10.13,1.27,10.16,1.34,10.13,1.41z"/>
		</g>
	</g>
	<g>
		<polygon class="st0" points="10,3.73 11.34,0.46 10.22,0 10.02,0 11.24,0.5 9.95,3.63 6.65,2.28 7.58,0 7.5,0 6.55,2.32 		"/>
	</g>
	<g>
		<g>
			<g>
				<path class="st0" d="M10.63,0.72l0.3,0.12l0.1-0.25l-0.3-0.12L10.63,0.72z M10.94,0.64l-0.04,0.11l-0.16-0.07l0.04-0.11
					L10.94,0.64z"/>
			</g>
		</g>
		<g>
			<g>
				<polygon class="st0" points="8.02,0.16 8.08,0 8,0 7.98,0.06 7.84,0 7.73,0 7.71,0.03 				"/>
			</g>
		</g>
		<g>
			<g>
				<path class="st0" d="M10.45,1.15l0.3,0.12l0.1-0.25l-0.3-0.12L10.45,1.15z M10.76,1.07l-0.04,0.11l-0.16-0.07L10.6,1L10.76,1.07
					z"/>
			</g>
		</g>
	</g>
	<g>
		<g>
			<g>
				<path class="st0" d="M7.54,0.46l0.3,0.12l0.1-0.25l-0.3-0.12L7.54,0.46z M7.85,0.38L7.8,0.49L7.64,0.42l0.04-0.11L7.85,0.38z"/>
			</g>
		</g>
		<g>
			<g>
				<path class="st0" d="M10.28,1.58l0.3,0.12l0.1-0.25l-0.3-0.12L10.28,1.58z M10.58,1.5l-0.04,0.11l-0.16-0.07l0.04-0.11
					L10.58,1.5z"/>
			</g>
		</g>
		<g>
			<g>
				<path class="st0" d="M7.36,0.89l0.3,0.12l0.1-0.25l-0.3-0.12L7.36,0.89z M7.67,0.81L7.62,0.92L7.46,0.85l0.04-0.11L7.67,0.81z"
					/>
			</g>
		</g>
		<g>
			<g>
				<path class="st0" d="M10.1,2.02l0.3,0.12l0.1-0.25l-0.3-0.12L10.1,2.02z M10.41,1.93l-0.04,0.11L10.2,1.97l0.04-0.11L10.41,1.93
					z"/>
			</g>
		</g>
	</g>
	<g>
		<g>
			<g>
				<path class="st0" d="M7.18,1.33l0.3,0.12l0.1-0.25l-0.3-0.12L7.18,1.33z M7.49,1.24L7.45,1.35L7.28,1.29l0.04-0.11L7.49,1.24z"
					/>
			</g>
		</g>
		<g>
			<g>
				<path class="st0" d="M9.92,2.45l0.3,0.12l0.1-0.25l-0.3-0.12L9.92,2.45z M10.23,2.37l-0.04,0.11l-0.16-0.07l0.04-0.11
					L10.23,2.37z"/>
			</g>
		</g>
		<g>
			<g>
				<path class="st0" d="M7.01,1.76l0.3,0.12l0.1-0.25l-0.3-0.12L7.01,1.76z M7.31,1.67L7.27,1.78L7.11,1.72l0.04-0.11L7.31,1.67z"
					/>
			</g>
		</g>
		<g>
			<g>
				<path class="st0" d="M9.75,2.88l0.3,0.12l0.1-0.25l-0.3-0.12L9.75,2.88z M10.05,2.8l-0.04,0.11L9.85,2.84l0.04-0.11L10.05,2.8z"
					/>
			</g>
		</g>
		<g>
			<g>
				<path class="st0" d="M6.83,2.19l0.3,0.12l0.1-0.25l-0.3-0.12L6.83,2.19z M7.14,2.11L7.09,2.22L6.93,2.15l0.04-0.11L7.14,2.11z"
					/>
			</g>
		</g>
		<g>
			<g>
				<path class="st0" d="M9.57,3.31l0.3,0.12l0.1-0.25l-0.3-0.12L9.57,3.31z M9.87,3.23L9.83,3.34L9.67,3.27l0.04-0.11L9.87,3.23z"
					/>
			</g>
		</g>
	</g>
</g>
<g>
	<g>
		<g>
			<g>
				<polygon class="st0" points="1.11,17.38 1.41,19.07 1.49,19.06 1.21,17.45 1.35,17.42 1.63,19.03 1.71,19.02 1.41,17.33 				"/>
			</g>
			<g>
				<polygon class="st0" points="0.66,19.4 0.58,19.42 0.59,19.47 0.79,20 0.88,20 0.67,19.45 				"/>
				<polygon class="st0" points="2.62,19.05 2.54,19.07 2.55,19.12 2.53,20 2.61,20 2.63,19.11 				"/>
			</g>
		</g>
		<g>
			<path class="st0" d="M0.47,19.19l0.05,0.3l2.17-0.39l-0.05-0.3L0.47,19.19z M0.59,19.39l-0.02-0.14l2.01-0.36l0.02,0.14
				L0.59,19.39z"/>
		</g>
	</g>
	<g>
		<g>
			<path class="st0" d="M2.57,19.1c-0.01-0.03-0.02-0.04-0.04-0.04L1.13,20h0.15l1.3-0.87C2.58,19.12,2.58,19.11,2.57,19.1z"/>
		</g>
	</g>
	<g>
		<g>
			<path class="st0" d="M2.58,19.73c0-0.02,0-0.05,0-0.07L2.07,20h0.15l0.36-0.24C2.58,19.75,2.58,19.74,2.58,19.73z"/>
		</g>
	</g>
</g>
<g>
	<g>
		<g>
			<g>
				<g>
					<path class="st0" d="M16.31,19.18l0.15,0.01c0,0,0-0.01,0-0.01c0-0.03,0.01-0.05,0.02-0.07l-0.19-0.01
						C16.3,19.12,16.3,19.15,16.31,19.18z"/>
				</g>
				<g>
					<path class="st0" d="M16.52,19.58c-0.03-0.05-0.06-0.1-0.07-0.16L16.41,20h0.08L16.52,19.58
						C16.52,19.58,16.52,19.58,16.52,19.58z"/>
				</g>
				<g>
					<path class="st0" d="M16.19,19.56L16.17,20h0.08l0.03-0.61C16.26,19.45,16.23,19.51,16.19,19.56z"/>
				</g>
			</g>
		</g>
		<g>
			<g>
				<path class="st0" d="M15.64,18.46c-0.41-0.02-0.76,0.29-0.78,0.7c-0.02,0.41,0.29,0.76,0.7,0.78c0.41,0.02,0.76-0.29,0.78-0.7
					C16.36,18.84,16.05,18.49,15.64,18.46z M16.26,19.24c-0.02,0.36-0.33,0.65-0.7,0.63c-0.36-0.02-0.65-0.33-0.63-0.7
					c0.02-0.36,0.33-0.65,0.7-0.63C16,18.56,16.28,18.88,16.26,19.24z"/>
			</g>
		</g>
		<g>
			<g>
				<path class="st0" d="M15.62,18.72c-0.27-0.01-0.5,0.19-0.52,0.46c-0.01,0.27,0.19,0.5,0.46,0.52c0.27,0.01,0.5-0.19,0.52-0.46
					C16.1,18.96,15.89,18.73,15.62,18.72z M16,19.23c-0.01,0.22-0.2,0.4-0.43,0.39c-0.22-0.01-0.4-0.2-0.39-0.43
					c0.01-0.22,0.2-0.4,0.43-0.39C15.84,18.81,16.02,19,16,19.23z"/>
			</g>
		</g>
		<g>
			<g>
				<path class="st0" d="M17.9,19.36c0.02-0.41-0.29-0.76-0.7-0.78c-0.41-0.02-0.76,0.29-0.78,0.7c-0.02,0.32,0.17,0.6,0.45,0.72
					h0.59C17.7,19.89,17.88,19.65,17.9,19.36z M17.12,19.98c-0.36-0.02-0.65-0.33-0.63-0.7c0.02-0.36,0.33-0.65,0.7-0.63
					c0.36,0.02,0.65,0.33,0.63,0.7C17.8,19.72,17.48,20,17.12,19.98z"/>
			</g>
		</g>
		<g>
			<g>
				<path class="st0" d="M17.18,18.83c-0.27-0.01-0.5,0.19-0.52,0.46s0.19,0.5,0.46,0.52c0.27,0.01,0.5-0.19,0.52-0.46
					C17.66,19.07,17.45,18.84,17.18,18.83z M17.56,19.34c-0.01,0.22-0.2,0.4-0.43,0.39c-0.22-0.01-0.4-0.2-0.39-0.43
					c0.01-0.22,0.2-0.4,0.43-0.39C17.4,18.92,17.57,19.11,17.56,19.34z"/>
			</g>
		</g>
	</g>
	<g>
		<g>
			<path class="st0" d="M15.21,19.81c-0.02-0.01-0.04-0.02-0.06-0.03L15.31,20h0.1l-0.11-0.16C15.26,19.83,15.23,19.82,15.21,19.81z
				"/>
		</g>
	</g>
	<g>
		<g>
			<path class="st0" d="M17.66,19.82c-0.03,0.01-0.05,0.01-0.08,0.02L17.47,20h0.1l0.11-0.17L17.66,19.82z"/>
		</g>
	</g>
</g>
<g>
	<g>
		<g>
			<path class="st0" d="M9.65,19.76L8.51,19.3l-0.18,0.43c-0.04,0.1,0.01,0.22,0.11,0.26l0.01,0h0.2l-0.18-0.08
				c-0.06-0.03-0.09-0.1-0.07-0.16l0.15-0.36l1,0.41l0,0L10.01,20h0.2L9.65,19.76L9.65,19.76z"/>
		</g>
	</g>
	<g>
		<polygon class="st0" points="7.5,20 7.58,20 7.93,19.15 10.02,20 10.22,20 7.89,19.05 		"/>
	</g>
	<g>
		<g>
			<g>
				<path class="st0" d="M7.89,19.6l0.3,0.12l0.1-0.25l-0.3-0.12L7.89,19.6z M8.2,19.52l-0.04,0.11l-0.16-0.07l0.04-0.11L8.2,19.52z
					"/>
			</g>
		</g>
		<g>
			<g>
				<polygon class="st0" points="7.82,19.78 7.73,20 7.84,20 7.82,19.99 7.86,19.88 8.02,19.95 8,20 8.08,20 8.12,19.91 				"/>
			</g>
		</g>
	</g>
</g>
<g>
	<g>
		<g>
			<g>
				<g>
					<path class="st0" d="M7.11,17.99c-0.31-0.9-1.29-1.39-2.19-1.08c-0.9,0.31-1.39,1.29-1.08,2.19c0.13,0.39,0.39,0.7,0.71,0.9
						h0.18c-0.37-0.19-0.66-0.51-0.81-0.93c-0.29-0.86,0.17-1.79,1.03-2.08c0.86-0.29,1.79,0.17,2.08,1.03
						c0.26,0.78-0.09,1.62-0.8,1.99H6.4C7.06,19.58,7.38,18.76,7.11,17.99z"/>
				</g>
				<g>
					<g>
						<g>
							<path class="st0" d="M5.04,17.24c-0.71,0.24-1.1,1.02-0.86,1.74c0.24,0.71,1.02,1.1,1.74,0.86c0.71-0.24,1.1-1.02,0.86-1.74
								C6.53,17.39,5.75,17,5.04,17.24z M5.89,19.75c-0.67,0.23-1.4-0.13-1.63-0.8c-0.23-0.67,0.13-1.4,0.8-1.63
								c0.67-0.23,1.4,0.13,1.63,0.8C6.92,18.8,6.56,19.53,5.89,19.75z"/>
							<path class="st0" d="M5.51,17.34c-0.12,0.04-0.22,0.14-0.25,0.26c-0.01,0.04-0.02,0.08-0.02,0.12c0,0.04,0.01,0.09,0.02,0.13
								c0.07,0.21,0.3,0.32,0.51,0.25c0.11-0.04,0.2-0.12,0.24-0.23c0.02-0.04,0.03-0.08,0.03-0.12c0-0.06,0-0.11-0.02-0.16
								C5.95,17.38,5.72,17.27,5.51,17.34z M5.96,17.75c0,0.03-0.01,0.06-0.02,0.09c-0.03,0.08-0.1,0.15-0.19,0.18
								c-0.16,0.06-0.34-0.03-0.4-0.2c-0.01-0.03-0.02-0.07-0.02-0.1c0-0.03,0.01-0.06,0.01-0.09c0.03-0.1,0.1-0.17,0.2-0.2
								c0.16-0.06,0.34,0.03,0.4,0.2C5.95,17.66,5.96,17.71,5.96,17.75z"/>
							<path class="st0" d="M5.4,18.31c-0.13,0.04-0.2,0.18-0.15,0.31c0.04,0.13,0.18,0.2,0.31,0.15c0.13-0.04,0.2-0.18,0.15-0.31
								C5.66,18.33,5.52,18.27,5.4,18.31z M5.53,18.69c-0.08,0.03-0.17-0.02-0.2-0.1c-0.03-0.08,0.02-0.17,0.1-0.2
								c0.08-0.03,0.17,0.02,0.2,0.1C5.65,18.57,5.61,18.66,5.53,18.69z"/>
							<path class="st0" d="M5.16,17.75c-0.02-0.03-0.05-0.06-0.09-0.08c-0.11-0.07-0.24-0.09-0.36-0.05
								c-0.21,0.07-0.32,0.3-0.25,0.51c0.02,0.06,0.05,0.11,0.09,0.15c0.03,0.03,0.06,0.05,0.1,0.07c0.1,0.05,0.22,0.06,0.32,0.03
								c0.21-0.07,0.32-0.3,0.25-0.51C5.21,17.82,5.19,17.79,5.16,17.75z M4.94,18.29c-0.08,0.03-0.17,0.02-0.25-0.02
								c-0.03-0.01-0.05-0.03-0.08-0.06c-0.03-0.03-0.06-0.07-0.07-0.12c-0.06-0.16,0.03-0.34,0.2-0.4c0.1-0.03,0.2-0.02,0.28,0.04
								c0.03,0.02,0.05,0.04,0.07,0.07c0.02,0.03,0.04,0.06,0.05,0.09C5.2,18.06,5.11,18.24,4.94,18.29z"/>
							<path class="st0" d="M6.18,17.88c-0.04,0.01-0.08,0.03-0.11,0.05c-0.16,0.1-0.23,0.3-0.17,0.47
								c0.06,0.18,0.24,0.29,0.43,0.27c0.03,0,0.06-0.01,0.08-0.02c0.01,0,0.02-0.01,0.03-0.01c0.19-0.09,0.29-0.3,0.22-0.5
								C6.59,17.94,6.38,17.83,6.18,17.88z M6.4,18.56c-0.03,0.01-0.06,0.02-0.09,0.03c-0.15,0.02-0.29-0.07-0.34-0.21
								c-0.05-0.14,0.01-0.3,0.14-0.37c0.02-0.01,0.04-0.02,0.06-0.03c0.01,0,0.02-0.01,0.03-0.01c0.16-0.04,0.32,0.05,0.37,0.2
								C6.63,18.32,6.55,18.49,6.4,18.56z"/>
							<path class="st0" d="M6.4,18.82c-0.03-0.03-0.06-0.06-0.09-0.08c-0.1-0.06-0.22-0.07-0.33-0.03
								c-0.21,0.07-0.32,0.3-0.25,0.51c0.01,0.04,0.04,0.08,0.07,0.12c0.03,0.03,0.06,0.06,0.09,0.08c0.11,0.07,0.23,0.09,0.36,0.05
								c0.21-0.07,0.32-0.3,0.25-0.51C6.47,18.9,6.44,18.86,6.4,18.82z M6.2,19.38c-0.09,0.03-0.2,0.02-0.28-0.04
								c-0.03-0.02-0.05-0.04-0.07-0.07c-0.02-0.03-0.04-0.06-0.05-0.09c-0.06-0.16,0.03-0.34,0.2-0.4
								c0.09-0.03,0.18-0.02,0.26,0.03c0.03,0.02,0.05,0.04,0.07,0.06c0.03,0.03,0.05,0.07,0.06,0.11
								C6.46,19.15,6.37,19.33,6.2,19.38z"/>
							<path class="st0" d="M4.64,18.41c-0.04,0-0.08,0.02-0.12,0.03c-0.19,0.08-0.29,0.3-0.22,0.5c0.07,0.2,0.27,0.31,0.48,0.26
								c0.01,0,0.02-0.01,0.04-0.01c0.03-0.01,0.05-0.02,0.08-0.04c0.16-0.1,0.24-0.3,0.17-0.48C5,18.5,4.82,18.39,4.64,18.41z
								 M4.84,19.08c-0.03,0.02-0.06,0.03-0.09,0.04c-0.16,0.04-0.32-0.05-0.37-0.21c-0.05-0.15,0.02-0.33,0.17-0.39
								c0.01,0,0.02-0.01,0.02-0.01c0.02-0.01,0.04-0.01,0.07-0.01c0.15-0.02,0.29,0.07,0.33,0.21C5.03,18.85,4.97,19,4.84,19.08z"
								/>
							<path class="st0" d="M5.17,18.98c-0.11,0.04-0.19,0.12-0.24,0.22c-0.02,0.04-0.03,0.08-0.03,0.12
								c-0.01,0.06,0,0.12,0.02,0.17c0.07,0.21,0.3,0.32,0.51,0.25c0.12-0.04,0.21-0.13,0.25-0.26c0.01-0.04,0.02-0.08,0.02-0.12
								c0-0.05-0.01-0.09-0.02-0.13C5.61,19.02,5.38,18.9,5.17,18.98z M5.6,19.46c-0.03,0.1-0.1,0.17-0.2,0.2
								c-0.16,0.06-0.34-0.03-0.4-0.2c-0.01-0.04-0.02-0.09-0.01-0.14c0-0.03,0.01-0.06,0.02-0.09c0.04-0.08,0.1-0.14,0.19-0.17
								c0.16-0.06,0.34,0.03,0.4,0.2c0.01,0.03,0.02,0.07,0.02,0.11C5.62,19.39,5.61,19.43,5.6,19.46z"/>
						</g>
					</g>
				</g>
			</g>
		</g>
	</g>
</g>
<g>
	<g>
		<g>
			<g>
				<g>
					<path class="st0" d="M6.45,5.52c-0.9,0.31-1.39,1.29-1.08,2.19C5.68,8.62,6.66,9.1,7.56,8.8c0.9-0.31,1.39-1.29,1.08-2.19
						C8.34,5.7,7.35,5.22,6.45,5.52z M7.53,8.71C6.68,9,5.74,8.54,5.45,7.69C5.16,6.83,5.62,5.9,6.48,5.61
						c0.86-0.29,1.79,0.17,2.08,1.03C8.85,7.49,8.39,8.42,7.53,8.71z"/>
				</g>
				<g>
					<g>
						<g>
							<path class="st0" d="M6.93,6.93C6.8,6.97,6.73,7.11,6.77,7.24c0.04,0.13,0.18,0.2,0.31,0.15c0.13-0.04,0.2-0.18,0.15-0.31
								C7.19,6.95,7.05,6.88,6.93,6.93z M7.05,7.31c-0.08,0.03-0.17-0.02-0.2-0.1c-0.03-0.08,0.02-0.17,0.1-0.2
								c0.08-0.03,0.17,0.02,0.2,0.1C7.18,7.19,7.14,7.28,7.05,7.31z"/>
							<path class="st0" d="M7.04,5.96C6.92,6,6.82,6.1,6.78,6.22C6.77,6.26,6.77,6.3,6.77,6.34c0,0.04,0.01,0.09,0.02,0.13
								C6.86,6.68,7.09,6.8,7.3,6.73C7.41,6.69,7.5,6.6,7.54,6.5c0.02-0.04,0.03-0.08,0.03-0.12c0-0.06,0-0.11-0.02-0.16
								C7.48,6,7.25,5.89,7.04,5.96z M7.48,6.37c0,0.03-0.01,0.06-0.02,0.09c-0.03,0.08-0.1,0.15-0.19,0.18
								c-0.16,0.06-0.34-0.03-0.4-0.2c-0.01-0.03-0.02-0.07-0.02-0.1c0-0.03,0.01-0.06,0.01-0.09c0.03-0.1,0.1-0.17,0.2-0.2
								c0.16-0.06,0.34,0.03,0.4,0.2C7.48,6.28,7.49,6.33,7.48,6.37z"/>
							<path class="st0" d="M7.93,7.44C7.9,7.4,7.87,7.38,7.84,7.36C7.74,7.3,7.61,7.29,7.5,7.32c-0.21,0.07-0.32,0.3-0.25,0.51
								c0.01,0.04,0.04,0.08,0.07,0.12c0.03,0.03,0.06,0.06,0.09,0.08c0.11,0.07,0.23,0.09,0.36,0.05c0.21-0.07,0.32-0.3,0.25-0.51
								C8,7.52,7.97,7.48,7.93,7.44z M7.73,8c-0.09,0.03-0.2,0.02-0.28-0.04C7.43,7.95,7.4,7.93,7.38,7.9
								C7.36,7.87,7.34,7.84,7.33,7.81c-0.06-0.16,0.03-0.34,0.2-0.4c0.09-0.03,0.18-0.02,0.26,0.03c0.03,0.02,0.05,0.04,0.07,0.06
								C7.9,7.53,7.92,7.56,7.93,7.6C7.99,7.77,7.9,7.95,7.73,8z"/>
							<path class="st0" d="M6.57,5.86C5.85,6.11,5.47,6.89,5.71,7.6c0.24,0.71,1.02,1.1,1.74,0.86c0.71-0.24,1.1-1.02,0.86-1.74
								C8.06,6.01,7.28,5.62,6.57,5.86z M7.42,8.37c-0.67,0.23-1.4-0.13-1.63-0.8C5.57,6.9,5.93,6.17,6.6,5.95
								c0.67-0.23,1.4,0.13,1.63,0.8C8.45,7.42,8.09,8.15,7.42,8.37z"/>
							<path class="st0" d="M6.69,6.37C6.66,6.34,6.63,6.31,6.6,6.29C6.5,6.21,6.36,6.19,6.24,6.23C6.03,6.3,5.92,6.53,5.99,6.74
								C6.01,6.8,6.04,6.85,6.08,6.9c0.03,0.03,0.06,0.05,0.1,0.07C6.28,7.02,6.39,7.03,6.5,7c0.21-0.07,0.32-0.3,0.25-0.51
								C6.74,6.44,6.72,6.41,6.69,6.37z M6.47,6.91C6.39,6.94,6.3,6.93,6.22,6.89C6.19,6.88,6.17,6.86,6.14,6.83
								C6.11,6.8,6.08,6.76,6.07,6.72c-0.06-0.16,0.03-0.34,0.2-0.4c0.1-0.03,0.2-0.02,0.28,0.04C6.58,6.38,6.6,6.4,6.62,6.42
								c0.02,0.03,0.04,0.06,0.05,0.09C6.72,6.68,6.64,6.86,6.47,6.91z"/>
							<path class="st0" d="M6.17,7.03c-0.04,0-0.08,0.02-0.12,0.03c-0.19,0.08-0.29,0.3-0.22,0.5C5.9,7.76,6.1,7.87,6.3,7.82
								c0.01,0,0.02-0.01,0.04-0.01C6.37,7.8,6.39,7.79,6.42,7.77c0.16-0.1,0.24-0.3,0.17-0.48C6.53,7.12,6.35,7.01,6.17,7.03z
								 M6.37,7.7C6.34,7.72,6.31,7.73,6.28,7.74C6.12,7.77,5.96,7.69,5.91,7.53C5.86,7.38,5.93,7.2,6.08,7.14
								c0.01,0,0.02-0.01,0.02-0.01c0.02-0.01,0.04-0.01,0.07-0.01C6.32,7.1,6.46,7.19,6.51,7.33C6.56,7.47,6.5,7.62,6.37,7.7z"/>
							<path class="st0" d="M6.7,7.59C6.59,7.63,6.51,7.71,6.46,7.82C6.45,7.85,6.43,7.89,6.43,7.93c-0.01,0.06,0,0.12,0.02,0.17
								c0.07,0.21,0.3,0.32,0.51,0.25C7.08,8.32,7.17,8.22,7.21,8.1c0.01-0.04,0.02-0.08,0.02-0.12c0-0.05-0.01-0.09-0.02-0.13
								C7.14,7.64,6.91,7.52,6.7,7.59z M7.13,8.08c-0.03,0.1-0.1,0.17-0.2,0.2c-0.16,0.06-0.34-0.03-0.4-0.2
								C6.52,8.03,6.51,7.99,6.52,7.94c0-0.03,0.01-0.06,0.02-0.09c0.04-0.08,0.1-0.14,0.19-0.17c0.16-0.06,0.34,0.03,0.4,0.2
								c0.01,0.03,0.02,0.07,0.02,0.11C7.15,8.01,7.14,8.04,7.13,8.08z"/>
							<path class="st0" d="M7.71,6.5C7.67,6.51,7.63,6.52,7.59,6.54c-0.16,0.1-0.23,0.3-0.17,0.47C7.48,7.2,7.66,7.31,7.85,7.29
								c0.03,0,0.06-0.01,0.08-0.02c0.01,0,0.02-0.01,0.03-0.01c0.19-0.09,0.29-0.3,0.22-0.5C8.12,6.56,7.91,6.45,7.71,6.5z
								 M7.93,7.18C7.9,7.19,7.87,7.2,7.84,7.2C7.69,7.22,7.55,7.13,7.5,6.99c-0.05-0.14,0.01-0.3,0.14-0.37
								C7.66,6.61,7.68,6.6,7.7,6.59c0.01,0,0.02-0.01,0.03-0.01c0.16-0.04,0.32,0.05,0.37,0.2C8.15,6.94,8.08,7.11,7.93,7.18z"/>
						</g>
					</g>
				</g>
			</g>
		</g>
	</g>
</g>
<g>
	<g>
		<g>
			<g>
				<g>
					<path class="st0" d="M6.03,0.18C6.17,0.13,6.29,0.07,6.4,0H6.23C6.16,0.04,6.08,0.07,6.01,0.09C5.57,0.24,5.11,0.19,4.73,0
						H4.56C4.98,0.27,5.52,0.35,6.03,0.18z"/>
				</g>
			</g>
		</g>
	</g>
</g>
</svg>
