<svg version="1.1" id="Layer_1" xmlns="http://www.w3.org/2000/svg" x="0" y="0" viewBox="0 0 20 20" style="enable-background:new 0 0 20 20" xml:space="preserve"><style>.st0{fill:#e2e2e2}</style><path class="st0" d="M3.43 7.44c-.06-.04-.15-.04-.25-.01-.34.1-.84.3-1.18.45l.09.05c.34-.15.79-.33 1.11-.42.08-.02.14-.02.18 0 .06.03.07.1.07.13 0 .07-.03.16-.07.18h-.01s-.03-.03-.02-.15c0-.05-.03-.08-.04-.09-.06-.03-.17.01-.33.08-.07.03-.37.2-.7.37l.08.05c.31-.17.59-.32.65-.35.06-.03.23-.1.26-.08v.01c0 .13.02.2.06.23.02.01.05.02.09-.01.07-.04.11-.16.1-.25a.182.182 0 0 0-.09-.19zM4.96 8.3a.267.267 0 0 0-.23.01c-.08.05-.16.14-.16.22 0 .05.03.07.04.08.05.03.12.01.23-.06l.01-.01c.03.02.05.2.06.27.01.07.03.39.04.74l.09.05c-.02-.38-.03-.72-.04-.8-.02-.17-.04-.29-.1-.33a.094.094 0 0 0-.1.01c-.11.07-.15.06-.15.06v-.01c0-.04.06-.12.12-.15.03-.01.09-.04.15-.01.04.03.08.08.1.16.08.32.16.81.21 1.18l.09.05c-.05-.38-.13-.9-.22-1.25a.372.372 0 0 0-.14-.21z"/><path class="st0" d="M5.4 9.74 2 7.82c-.07-.04-.17-.02-.21.05l-.53.95c-.04.07-.01.16.06.2l1.41.8c.08.05.17.02.21-.05.03-.03.27-.34.36-.47 0 0 .04-.01.1.02.05.03.07.06.08.06-.1.22-.24.56-.24.56-.04.07-.01.16.06.21l1.41.8c.07.04.17.02.21-.05l.53-.95c.05-.07.02-.17-.05-.21zm-.01.17-.53.95c-.02.03-.06.04-.1.02l-1.41-.8c-.04-.02-.05-.06-.03-.1 0 0 .14-.34.24-.56.03-.06-.04-.13-.11-.17-.09-.05-.16-.05-.2 0-.11.13-.37.47-.38.48v.01c-.02.03-.06.04-.1.02l-1.41-.8c-.04-.03-.05-.07-.03-.1l.53-.95c.02-.03.06-.04.1-.02l3.4 1.92c.03.02.05.07.03.1z"/><path class="st0" d="m3.15 8.68-1.06-.6a.142.142 0 0 0-.21.06l-.31.64c-.05.08-.02.17.06.21l.97.56c.07.04.17.02.21-.06l.39-.6c.05-.08.03-.17-.05-.21zm-.01.17-.39.6c-.02.04-.06.05-.1.03l-.98-.56c-.04-.02-.05-.06-.03-.1l.31-.64c.02-.04.06-.05.1-.03l1.06.6c.04.02.05.06.03.1zM5.14 9.8l-1.07-.6c-.07-.04-.17-.02-.21.06l-.31.64c-.04.07-.02.17.06.21l.98.55c.07.04.17.02.21-.06l.39-.6c.05-.06.02-.16-.05-.2zm-.02.17-.39.6c-.02.04-.06.05-.1.03l-.98-.55c-.04-.02-.05-.06-.03-.1l.31-.65c.02-.04.07-.05.1-.03l1.06.6c.04.02.05.06.03.1zM12.78 9.85c-.07.02-.13.07-.19.16-.18.31-.41.79-.56 1.14l.1-.02c.15-.34.36-.78.53-1.07.04-.07.09-.11.14-.12.06-.01.11.03.14.05.05.05.09.14.07.18v.01c-.01 0-.04-.01-.12-.1-.04-.04-.07-.04-.09-.03-.07.02-.12.13-.19.29-.03.07-.14.4-.26.75l.09-.02c.11-.33.21-.63.24-.7.03-.06.1-.23.13-.24l.01.01c.08.1.15.14.2.12.02 0 .05-.02.06-.07.02-.08-.03-.19-.1-.26a.176.176 0 0 0-.2-.08zM14.5 9.44c-.07.02-.13.08-.16.16-.03.09-.02.21.03.27.03.04.07.04.09.03.05-.01.09-.08.12-.2v-.01c.04-.01.17.11.23.15.06.05.28.27.53.52l.09-.02c-.27-.26-.51-.5-.57-.55-.13-.11-.23-.19-.3-.17-.02 0-.05.02-.07.07-.03.13-.06.14-.06.14l-.01-.01c-.03-.03-.04-.13-.01-.19.01-.03.04-.09.1-.11.05-.01.11.01.18.05.28.18.67.48.96.71l.1-.02c-.29-.24-.71-.57-1.02-.76-.08-.06-.16-.08-.23-.06z"/><path class="st0" d="M15.98 10.3c-.02-.08-.1-.13-.19-.11L12 11.1c-.08.02-.14.1-.12.18l.25 1.06c.02.08.1.13.19.11l1.58-.38c.08-.02.13-.1.12-.18 0-.04-.04-.44-.06-.6 0-.01.02-.03.09-.05.06-.01.09-.01.1-.01l.21.57c.02.08.1.13.19.11l1.58-.38c.08-.02.14-.1.12-.18l-.27-1.05zm.12 1.16-1.58.38c-.04.01-.08-.01-.09-.05l-.21-.57c-.02-.06-.12-.06-.2-.05h-.01c-.1.02-.15.08-.14.14.02.16.06.59.06.6v.01c.01.04-.02.07-.06.08l-1.58.38c-.04.01-.08-.01-.09-.05l-.25-1.06c-.01-.04.02-.07.06-.08l3.8-.9c.04-.01.08.01.09.05l.25 1.06c.01.02-.01.05-.05.06z"/><path class="st0" d="M13.61 11.06c-.02-.08-.1-.13-.19-.12l-1.19.28c-.08.02-.13.1-.11.19l.21.68c.02.08.1.13.19.12l1.09-.26c.08-.02.13-.1.12-.18l-.12-.71zm-.01.81-1.09.26c-.04.01-.08-.02-.09-.06l-.22-.67c-.01-.04.02-.08.05-.09l1.19-.28c.04-.01.08.02.09.05l.12.71c.01.04-.02.07-.05.08zM15.83 10.53c-.02-.08-.1-.13-.19-.12l-1.19.28c-.08.02-.13.1-.11.19l.21.68c.02.08.1.13.19.12l1.09-.26c.08-.02.13-.1.12-.18l-.12-.71zm-.02.82-1.09.26c-.04.01-.08-.02-.09-.06l-.21-.68c-.01-.04.02-.08.05-.09l1.19-.28c.04-.01.08.02.09.05l.12.71c.01.04-.02.08-.06.09zM6.14 3.96l-.2-.46c-.04.02-.08 0-.09-.04l-1.67.73-1.66.72c.02.04 0 .08-.04.09l.2.46.35.82c.04-.02.08 0 .09.04l1.55-.67.11-.05.12-.05 1.55-.68c-.02-.04 0-.08.04-.09l-.35-.82zm.21.86-1.59.69-1.59.69c-.02-.03-.06-.05-.09-.03l-.3-.68-.19-.44c.04-.02.05-.06.04-.09l1.45-.63.14-.06.14-.06 1.45-.63c.01.03.06.05.09.03l.19.44.29.68c-.03.01-.05.05-.03.09z"/><path class="st0" d="m2.16 4.83.78 1.79 3.88-1.69-.77-1.79-3.89 1.69zm.82 1.69-.71-1.65 3.74-1.62.71 1.64-3.74 1.63z"/><path transform="rotate(-23.494 3.955 5.312)" class="st0" d="M2.9 5.27h2.12v.08H2.9z"/><path transform="rotate(-23.494 4.039 5.505)" class="st0" d="M2.98 5.46H5.1v.08H2.98z"/><path transform="rotate(-23.494 5.48 4.162)" class="st0" d="M5.07 4.12h.82v.08h-.82z"/><path transform="rotate(-23.494 5.659 4.572)" class="st0" d="M5.25 4.53h.82v.08h-.82z"/><path transform="rotate(-23.494 5.742 4.764)" class="st0" d="M5.33 4.72h.82v.08h-.82z"/><path class="st0" d="m3.33 4.98-.02-.05-.2.09.02.05.07-.03.09.2.06-.03-.09-.2z"/><path transform="rotate(-23.494 3.43 5.03)" class="st0" d="M3.4 4.89h.06v.27H3.4z"/><path class="st0" d="M3.66 5.03c-.04.02-.07 0-.1-.06-.02-.05-.01-.09.03-.11.02-.01.03-.01.05 0l.02-.05a.139.139 0 0 0-.09 0c-.07.03-.1.1-.06.19.03.08.1.1.17.08.03-.02.05-.04.06-.08l-.04-.02c-.01.02-.02.04-.04.05zM3.88 4.68l-.06.03-.03.14-.05-.11-.05.03.11.25.05-.02-.03-.07.02-.05.1.08.07-.03-.16-.11zM4.07 4.84l-.03-.05.09-.04-.02-.05-.09.04L4 4.69l.1-.05-.02-.04-.16.07.11.25.16-.07-.02-.05zM4.33 4.55l-.02-.05-.2.08.02.05.07-.03.09.2.06-.02-.09-.2zM4.77 4.12c-.02.01-.03.03-.02.06s.04.03.06.02c.02-.01.03-.04.02-.06-.01-.02-.03-.03-.06-.02zM4.86 4.32c-.02.01-.03.04-.02.06.01.02.03.03.06.02.02-.01.03-.04.02-.06a.048.048 0 0 0-.06-.02zM4.95 4.52c-.02.01-.03.03-.03.06.01.02.04.03.06.02.02-.01.03-.04.02-.06 0-.02-.03-.03-.05-.02zM5.04 4.72c-.03.01-.04.04-.03.06.01.02.04.03.06.02.02-.01.03-.03.02-.06-.01-.02-.03-.03-.05-.02z"/><g><path class="st0" d="M5.12 4.93c-.02.01-.03.03-.02.05.01.02.04.03.06.02.02 0 .03-.03.02-.05-.01-.02-.03-.03-.06-.02z"/></g><g><path class="st0" d="M5.21 5.13c-.02.01-.03.03-.02.05.01.03.03.04.06.03.02-.01.03-.04.02-.06a.048.048 0 0 0-.06-.02z"/></g><g><path class="st0" d="m5.14 2.06-.33-.38c-.03.03-.07.02-.1-.01l-1.36 1.2-1.36 1.2c.03.03.02.07-.01.1l.33.38.18.2.08-.03-.16-.18-.31-.36c.03-.03.03-.07.01-.1L3.3 3.04l.12-.1.12-.1L4.73 1.8c.03.03.07.03.1.01l.32.36.49.55c-.03.03-.03.07-.01.1l-1.3 1.14.26-.11 1.15-1.01c-.04-.04-.04-.09-.01-.11l-.59-.67z"/><path class="st0" d="m1.62 4.1.65.74.08-.03-.61-.7L4.8 1.42l1.18 1.35-1.03.9.24-.1.91-.79-1.29-1.47z"/><path class="st0" d="m2.67 4.67.24-.11L4.3 3.35l-.06-.06zM3.3 4.39l.24-.1.9-.79-.06-.06z"/><path transform="rotate(-41.236 4.577 2.453)" class="st0" d="M4.17 2.41h.82v.08h-.82z"/><path transform="rotate(-41.241 4.872 2.789)" class="st0" d="M4.46 2.75h.82v.08h-.82z"/><path transform="rotate(-41.236 5.01 2.946)" class="st0" d="M4.6 2.91h.82v.08H4.6z"/><path class="st0" d="m2.78 3.89-.04-.04-.16.14.04.04.05-.05.15.17.05-.04-.15-.17z"/><path transform="rotate(-41.233 2.889 3.904)" class="st0" d="M2.86 3.77h.06v.27h-.06z"/><path class="st0" d="M3.11 3.83c-.03.03-.07.02-.11-.02-.04-.04-.04-.09-.01-.11.01-.01.03-.02.05-.02v-.05c-.03 0-.06 0-.08.03a.13.13 0 0 0 0 .19c.06.07.14.07.19.02.03-.02.04-.05.04-.09h-.06c0 .02-.01.04-.02.05zM3.21 3.44l-.05.04.02.14h-.01l-.07-.08-.05.04.18.2.05-.04-.05-.05v-.06l.13.05.05-.05-.19-.06zM3.44 3.53l-.04-.04.07-.07-.03-.04-.07.07-.04-.05.08-.07-.03-.04-.13.12.18.2.13-.11-.03-.04zM3.6 3.17l-.04-.04-.16.14.04.04.06-.05.14.17.05-.04-.15-.17zM3.89 2.63c-.02.02-.02.04 0 .06.02.02.04.02.06 0 .02-.02.02-.04 0-.06-.01-.02-.04-.02-.06 0z"/><g><path class="st0" d="M4.04 2.79c-.02.02-.02.04 0 .06.02.02.04.02.06 0 .02-.02.02-.04 0-.06-.02-.01-.05-.01-.06 0z"/></g><g><path class="st0" d="M4.18 2.96c-.02.01-.02.04 0 .06.02.02.04.02.06 0 .02-.02.02-.04 0-.06-.02-.02-.04-.02-.06 0z"/></g><g><path class="st0" d="M4.32 3.12c-.02.02-.02.04 0 .06.02.02.04.02.06 0 .02-.02.02-.04 0-.06-.01-.01-.04-.01-.06 0z"/></g><g><path class="st0" d="M4.47 3.29c-.02.02-.02.04 0 .06.02.02.04.02.06 0 .02-.02.02-.04 0-.06-.01-.02-.04-.02-.06 0z"/></g><g><path class="st0" d="M4.62 3.45c-.02.02-.02.05-.01.07.02.02.04.02.06 0 .02-.02.02-.04 0-.06-.01-.02-.04-.02-.05-.01z"/></g></g><g><path class="st0" d="M16.9 14.98c-.02.03-.06.04-.1.02l-.26.43-.46.76c.03.02.04.06.02.1l1.45.87.1.06.1.06 1.45.87c.02-.03.06-.04.1-.02l.46-.76L20 17v-.15l-1.55-.93-1.55-.94zm1.64 1.09 1.35.81c-.02.03-.01.08.02.1l-.25.41-.38.63a.078.078 0 0 0-.1.02l-1.49-.89-1.49-.9c.02-.03.01-.08-.02-.1l.38-.63.25-.41c.03.02.08.01.1-.02l1.35.82.15.09.13.07z"/><path class="st0" d="m15.75 16.32 3.63 2.19.62-1.04v-.15l-.65 1.07-3.49-2.1.92-1.53L20 16.69v-.09l-3.24-1.95z"/><path transform="rotate(-58.969 17.403 16.385)" class="st0" d="M17.36 15.33h.08v2.12h-.08z"/><path transform="rotate(-58.969 17.295 16.565)" class="st0" d="M17.26 15.51h.08v2.12h-.08z"/><path transform="rotate(-58.969 19.225 16.96)" class="st0" d="M19.19 16.55h.08v.82h-.08z"/><path transform="rotate(-58.969 18.995 17.343)" class="st0" d="M18.96 16.93h.08v.82h-.08z"/><path transform="rotate(-58.969 18.887 17.522)" class="st0" d="M18.85 17.11h.08v.82h-.08z"/><path class="st0" d="m17.13 15.57.06.04-.11.19.05.03.12-.19.06.04.03-.04-.19-.11z"/><path transform="rotate(-58.969 17.329 15.793)" class="st0" d="M17.19 15.76h.27v.06h-.27z"/><path class="st0" d="M17.59 15.78c-.06-.04-.14-.02-.19.06-.05.08-.02.15.04.19.03.02.06.02.1.01l-.01-.05c-.02.01-.04.01-.06-.01-.03-.02-.04-.06-.01-.11s.07-.06.1-.04c.02.01.02.02.03.04l.05-.02c-.01-.02-.02-.05-.05-.07zM17.69 15.98l.05-.1-.05-.03-.14.24.05.03.04-.06.05-.02v.13l.06.03v-.19l.12-.05-.05-.03zM17.77 16.22l.15.09.03-.04-.1-.06.03-.06.08.05.03-.04-.08-.05.03-.05.09.06.03-.05-.15-.09zM18.06 16.14l.07.04-.12.19.06.03.11-.19.07.04.02-.05-.18-.11zM18.85 16.36c-.02-.01-.05-.01-.06.01-.01.02-.01.05.01.06.02.01.05.01.06-.01.02-.02.01-.05-.01-.06z"/><g><path class="st0" d="M18.74 16.55c-.02-.01-.05-.01-.06.01-.01.02-.01.05.01.06.02.01.05.01.06-.01.02-.02.01-.05-.01-.06z"/></g><g><path class="st0" d="M18.63 16.73c-.02-.01-.05-.01-.06.01-.01.02-.01.05.01.06s.05.01.06-.01c.01-.02.01-.04-.01-.06z"/></g><g><path class="st0" d="M18.51 16.92c-.02-.01-.05-.01-.06.01-.01.02-.01.05.01.06.02.01.05.01.06-.01.02-.02.01-.04-.01-.06z"/></g><g><path class="st0" d="M18.4 17.11c-.02-.01-.05-.01-.06.01-.01.02-.01.05.01.06.02.01.05.01.06-.01.01-.02.01-.04-.01-.06z"/></g><g><path class="st0" d="M18.28 17.3c-.02-.01-.05-.01-.06.01-.01.02-.01.05.01.06.02.01.05.01.06-.01.02-.02.02-.05-.01-.06z"/></g><g><path class="st0" d="m18.96 16.03 1.04.25v-.09l-1.28-.3zM17.28 14.06c-.01.04-.05.06-.08.05l-.12.49-.06.26.07.04.05-.22.11-.47c.04.01.08-.01.08-.05l1.54.36.15.04.15.04.83.2v-.1l-.96-.23-1.76-.41zM19.54 16.38l.46.11v-.08l-.68-.16z"/><path class="st0" d="m16.81 14.74.07.04.22-.9 2.9.69v-.09l-2.96-.7zM17.41 15.1l1.79.42.02-.07-2.04-.49zM18 15.45l1.16.28.01-.08-1.4-.33zM19.69 15.18l.31.07v-.08l-.3-.07zM19.58 15.61l.42.1v-.08l-.4-.1zM19.53 15.82l.47.11v-.09l-.45-.1z"/><path class="st0" d="m17.67 14.55.08.02-.05.22.06.01.05-.22.07.02.01-.05-.2-.05z"/><path transform="rotate(-76.714 17.935 14.7)" class="st0" d="M17.8 14.67h.27v.06h-.27z"/><path class="st0" d="M18.17 14.61c-.07-.02-.14.02-.16.11-.02.09.02.15.09.17.03.01.07 0 .09-.02l-.02-.04c-.02.01-.03.02-.06.01-.04-.01-.06-.05-.04-.1.01-.05.05-.08.09-.07.02 0 .03.02.04.03l.04-.03c-.01-.03-.03-.05-.07-.06zM18.44 14.68l-.11.09.03-.11-.07-.02-.06.27.06.02.02-.08.04-.03.04.13.06.01-.05-.18.1-.09zM18.48 14.97l.17.04.02-.05-.11-.03.01-.06.09.02.01-.05-.09-.02.01-.05.11.02.01-.05-.16-.04zM18.74 14.8l.07.02-.05.22.06.01.05-.22.07.02.02-.05-.21-.05z"/><g><path class="st0" d="M19.55 14.78c-.02-.01-.05.01-.05.03-.01.02.01.05.03.05.02.01.05-.01.05-.03.01-.02 0-.05-.03-.05z"/></g><g><path class="st0" d="M19.5 14.99c-.02-.01-.05.01-.05.03-.01.02.01.05.03.05.02.01.05-.01.05-.03.01-.02 0-.04-.03-.05z"/></g><g><path class="st0" d="M19.45 15.2c-.02-.01-.05.01-.05.03-.01.02.01.05.03.05.02.01.05-.01.05-.03.01-.02 0-.04-.03-.05z"/></g><g><path class="st0" d="M19.4 15.42c-.02-.01-.05.01-.05.03-.01.02.01.05.03.05s.05-.01.05-.03c.01-.03 0-.05-.03-.05z"/></g><g><path class="st0" d="M19.35 15.63c-.02-.01-.05.01-.05.03-.01.02.01.05.03.05.02.01.05-.01.05-.03.01-.02 0-.04-.03-.05z"/></g><g><path class="st0" d="M19.3 15.85c-.02-.01-.05.01-.05.03-.01.02.01.05.03.05.02.01.05-.01.05-.03.01-.02 0-.05-.03-.05z"/></g></g></g><g><path class="st0" d="M0 16.91V17l.03-.05c-.01-.01-.03-.02-.03-.04zM0 16.85v.02-.02z"/><g><path class="st0" d="M0 16.6v.09l.27.17-.27.46v.15l.38-.64z"/></g><g><path class="st0" d="m.54 16.33.2-.87.11-.49c-.04-.01-.06-.05-.05-.08L0 14.7v.09l.71.17c-.01.04.01.08.05.09l-.11.47-.17.72c-.04-.01-.08.01-.08.05l-.4-.1v.09l.45.11c.01-.04.05-.07.09-.06z"/><path class="st0" d="M1.16 14.76 0 14.48v.09l1.06.25-.41 1.74-.65-.15v.08l.71.17z"/><path class="st0" d="m.5 15.29-.5-.12v.08l.49.12zM.4 15.72l-.4-.09v.08l.38.09zM.35 15.93 0 15.84v.09l.33.08z"/></g></g><g><path class="st0" d="M2.59 1.55 2.61 0h-.08L2.5 1.48l-.98.17L.88 0H.79l.68 1.75z"/><path class="st0" d="M.89.16C.9.19.91.22.92.24L1.28 0h-.15L.89.16zM1.11.72v.02L2.22 0h-.15l-.98.65c.01.02.02.05.02.07zM2.58.3l-1.3.87c.01.02.02.05.03.08L2.58.4V.3zM1.5 1.72l1.06-.71c0-.03 0-.07.01-.1l-1.1.74c.01.02.02.05.03.07z"/></g><g><path class="st0" d="m14.23 13.72.07.05.98-1.31.12.09-.99 1.3.07.05 1.03-1.37-.24-.18zM14.97 14.58l-1.76 1.57-.8-.6 1.04-2.12.03-.04-.07-.05-.03.04-1.07 2.2.9.68 1.82-1.62.03-.05-.06-.05z"/><path class="st0" d="m13.32 13.35 1.76 1.33.18-.24-1.76-1.33-.18.24zm1.83 1.1-.08.11-1.62-1.23.08-.11 1.62 1.23z"/><path class="st0" d="M13.08 14.07c0 .01 0 .01 0 0-.02.03-.03.05-.04.07l1.95.47c.01-.01.01-.02.02-.02.02-.03.01-.04 0-.06l-1.93-.46zM12.82 14.62l-.01.01 1.7.41c.01-.01.02-.01.02-.02.02-.02.04-.03.05-.05l-1.74-.42c0 .03-.01.05-.02.07z"/><g><path class="st0" d="m12.57 15.12 1.49.36.04-.04.03-.03-1.52-.36c-.02.02-.03.05-.04.07z"/></g><g><path class="st0" d="m12.35 15.58 1.24.3c.02-.02.05-.05.08-.07l-1.29-.31c-.01.03-.02.06-.03.08z"/></g></g><g><path class="st0" d="m4.15 16.07-.35-.08.17-.74-.08-.02-.19.83.43.1c.05.01.09.04.11.09l-1.51-.35c.04-.03.08-.04.13-.03l.43.1.19-.82-.08-.03-.17.74-.35-.08c-.1-.02-.21.03-.26.12l-.03.05 1.75.39v-.05a.257.257 0 0 0-.19-.22zM4.69 12.11l-.59-.13a.604.604 0 0 0-.72.46l-.41 1.82c.03 0 .05.01.08.02l.41-1.82a.51.51 0 0 1 .62-.39l.56.13c.28.06.46.34.39.62l-.41 1.83c.03.01.05.01.08.02l.41-1.83a.602.602 0 0 0-.42-.73zM2.4 14.31l.04.01.03-.06c0-.01.02-.02.03-.03l.07-.31c-.03.02-.06.03-.09.04l-.08.35zM5.22 14.49l-.06.31c.01.02.02.05.01.08 0 .02-.01.03-.01.05l.06.01.08-.37c-.01 0-.01-.01-.01-.01-.03-.01-.05-.04-.07-.07z"/><path class="st0" d="m5.38 12.04-1.9-.43c-.25-.06-.5.1-.56.35l-.29 1.3c.03.01.05.04.07.06l.3-1.34a.38.38 0 0 1 .46-.29l1.9.43c.21.05.34.25.29.46l-.31 1.4.03-.03c.02-.02.05-.04.08-.05l.29-1.3c.05-.25-.11-.5-.36-.56z"/><g><path class="st0" d="M4.34 12.24c-.14-.03-.26.01-.28.1-.02.09.07.18.21.21.14.03.26-.01.28-.1.02-.08-.07-.17-.21-.21zm-.06.24c-.1-.02-.16-.08-.15-.12.01-.03.08-.06.19-.04.1.02.16.08.15.12-.01.03-.08.06-.19.04z"/></g><g><path class="st0" d="m2.36 13.94-.08-.02-.13.57.24.05.02-.08-.16-.03zM5.32 15.12l-.19-.04-.01.08.26.06.13-.56-.08-.02z"/><path class="st0" d="m2.18 13.89-.08-.01-.18.78.42.1.02-.08-.34-.08zM5.46 15.38l-.37-.09-.02.08.45.1.17-.77-.08-.02z"/><g><path class="st0" d="m2.62 13.21-.44-.1c-.1-.02-.19.04-.21.13l-.1.43c-.02.1.04.19.13.21l.44.1c.1.02.19-.04.21-.13l.1-.43a.18.18 0 0 0-.13-.21zm.05.19-.1.43c-.01.05-.06.08-.11.07l-.44-.1a.092.092 0 0 1-.07-.11l.1-.43c.01-.05.06-.08.11-.07l.44.1c.05.01.08.06.07.11zM5.95 13.97l-.44-.1c-.1-.03-.19.03-.21.13l-.1.43c-.02.1.04.19.13.21l.44.1c.1.02.19-.04.21-.13l.1-.43c.03-.1-.03-.19-.13-.21zm.05.19-.1.43c-.01.05-.06.08-.11.07l-.44-.1a.092.092 0 0 1-.07-.11l.1-.43c.01-.05.06-.08.11-.07l.44.1c.05.01.09.06.07.11z"/></g></g><g><path class="st0" d="m5.08 14.7-2.46-.55c-.1-.02-.19.04-.21.14l-.1.43c-.03.12.03.23.13.26l2.46.55c.1.02.2-.06.22-.18l.1-.43c.02-.1-.04-.2-.14-.22zm.05.2-.1.43c-.02.07-.07.13-.12.11l-2.46-.55c-.05-.01-.08-.08-.06-.16l.1-.43c.01-.05.06-.08.12-.07l2.46.55c.04.01.08.07.06.12z"/></g><g><path transform="rotate(-77.333 4.183 12.942)" class="st0" d="M4.14 12.26h.08v1.36h-.08z"/></g><g><path transform="rotate(-77.333 3.963 13.92)" class="st0" d="M3.92 13.24H4v1.36h-.08z"/></g></g><g><path class="st0" d="M11.49 2.45h-.09c-.04 0-.08.03-.08.08v.13h.09v-.12h.07v.12h.09v-.13c-.01-.05-.04-.08-.08-.08z"/><path transform="translate(-.004 .012)" class="st0" d="M11.48 3.53h.09v.82h-.09zM11.32 3.53h.09v.82h-.09z"/><path class="st0" d="M14.22 2.44h-.09c-.04 0-.08.03-.08.08v.13h.09v-.12h.07v.12h.09v-.13c0-.04-.03-.08-.08-.08z"/><path transform="translate(-.004 .015)" class="st0" d="M14.22 3.53h.09v.82h-.09z"/><path transform="translate(-.004 .014)" class="st0" d="M14.06 3.53h.09v.82h-.09z"/><g><path class="st0" d="M14.31 4.3h-3c-.04 0-.07.03-.08.07-.04.22-.08.48-.08.5 0 .04.03.08.08.08h3.16c.04 0 .08-.03.08-.08 0-.02-.04-.28-.08-.5 0-.04-.04-.07-.08-.07zm-3.06.56c.01-.06.05-.31.07-.47h2.98c.03.16.07.41.08.47h-3.13z"/></g><g><path class="st0" d="M14.36 2.61h-3.1c-.04 0-.08.03-.08.08v.8c0 .04.03.08.08.08h3.1c.04 0 .08-.03.08-.08v-.8c0-.04-.03-.08-.08-.08zm-3.09.87V2.7h3.08v.78h-3.08z"/></g><g><path class="st0" d="m11.82 4.9 1.81 1.71.06-.06-1.74-1.65z"/></g><g><path class="st0" d="m11.82 6.55.06.06 1.8-1.71h-.12z"/></g><g><path transform="translate(-.007 .013)" class="st0" d="M12.07 6.32h1.37v.09h-1.37z"/></g><g><path class="st0" d="M11.87 2.91h-.08v.3h.09c.09 0 .14-.05.14-.15 0-.1-.06-.15-.15-.15zm0 .25h-.01v-.19h.01c.05 0 .08.02.08.09 0 .07-.03.1-.08.1z"/><path transform="translate(-.003 .012)" class="st0" d="M12.08 2.91h.07v.3h-.07z"/><path class="st0" d="M12.43 3.01c0-.07-.05-.09-.11-.09h-.11v.3h.07v-.11h.04l.06.11h.07l-.07-.12c.03-.02.05-.05.05-.09zm-.12.04h-.03v-.08h.03c.03 0 .05.01.05.04.01.03-.01.04-.05.04zM12.56 3.15v-.06h.1v-.06h-.1v-.06h.12v-.06h-.19v.3h.19v-.06zM12.87 3.16c-.04 0-.07-.04-.07-.1 0-.06.03-.1.07-.1.02 0 .03.01.05.02l.04-.04a.127.127 0 0 0-.09-.04c-.08 0-.14.06-.14.16s.06.15.14.15c.04 0 .07-.02.09-.04l-.04-.04c-.01.02-.03.03-.05.03zM13.2 2.91h-.23v.06h.08v.24h.07v-.24h.08zM13.36 2.91c-.08 0-.13.06-.13.15 0 .1.05.15.13.15s.13-.06.13-.15c0-.1-.05-.15-.13-.15zm0 .25c-.04 0-.07-.04-.07-.1 0-.06.03-.09.07-.09.04 0 .07.04.07.09-.01.06-.03.1-.07.1zM13.77 3c0-.07-.05-.09-.11-.09h-.11v.3h.07V3.1h.04l.06.11h.07l-.07-.12a.1.1 0 0 0 .05-.09zm-.12.05h-.03v-.08h.03c.03 0 .05.01.05.04 0 .02-.02.04-.05.04z"/></g></g><g><path class="st0" d="m8.04 15.73-.09.04c-.04.02-.06.06-.04.1l.05.12.08-.04-.04-.1.07-.03.05.11.08-.04-.05-.12c-.03-.04-.07-.05-.11-.04z"/><path transform="rotate(-23.437 8.663 17.091)" class="st0" d="M8.62 16.68h.09v.82h-.09z"/><path transform="rotate(-23.437 8.516 17.155)" class="st0" d="M8.47 16.74h.09v.82h-.09z"/><path class="st0" d="m10.58 14.63-.09.04c-.04.02-.06.06-.04.1l.05.12.08-.04-.05-.11.07-.03.05.11.08-.04-.05-.12c-.01-.03-.06-.05-.1-.03z"/><path transform="rotate(-23.437 11.21 15.988)" class="st0" d="M11.16 15.58h.09v.82h-.09z"/><path transform="rotate(-23.437 11.062 16.051)" class="st0" d="M11.02 15.64h.09v.82h-.09z"/><g><path class="st0" d="M11.5 16.33c-.02-.04-.06-.05-.1-.04L8.61 17.5c-.04.02-.06.06-.04.1.05.21.12.47.13.49.02.04.06.06.1.04l2.94-1.27c.04-.02.06-.06.04-.1a8.98 8.98 0 0 1-.28-.43zm-2.73 1.72c-.02-.06-.08-.31-.12-.46l2.77-1.2c.09.14.23.35.26.4l-2.91 1.26z"/></g><g><path class="st0" d="M10.88 14.77c-.02-.04-.06-.06-.1-.04l-2.89 1.25c-.04.02-.06.06-.04.1l.32.73c.02.04.06.06.1.04l2.89-1.25c.04-.02.06-.06.04-.1l-.32-.73zm-2.63 2-.31-.71 2.87-1.24.31.71-2.87 1.24z"/></g><g><path class="st0" d="m9.32 17.85 2.37.84.03-.08-2.28-.81z"/></g><g><path class="st0" d="m9.97 19.37.08.03 1-2.3-.11.05z"/></g><g><path transform="rotate(-23.437 10.773 18.825)" class="st0" d="M10.08 18.78h1.39v.09h-1.39z"/></g><g><path class="st0" d="m8.58 16.01-.08.03.12.27.08-.04c.08-.03.12-.1.08-.19-.04-.09-.11-.11-.2-.07zm.1.22-.01.01-.07-.17.01-.01c.05-.02.09-.01.11.05.02.06 0 .1-.04.12z"/><path transform="rotate(-23.437 8.862 16.048)" class="st0" d="M8.83 15.9h.07v.3h-.07z"/><path class="st0" d="M9.14 15.87c-.03-.07-.08-.07-.14-.04l-.1.04.12.27.06-.03-.04-.1.03-.01.09.07.07-.03-.11-.08c.03-.02.04-.05.02-.09zm-.09.08-.03.01-.03-.08.03-.01c.03-.01.05-.01.07.01 0 .04-.01.06-.04.07zM9.32 15.95l-.03-.06.09-.04-.02-.05-.09.04-.03-.06.11-.05-.02-.05-.17.08.12.27.17-.08-.02-.05zM9.6 15.83c-.04.02-.08 0-.1-.06-.02-.05-.01-.1.03-.12.02-.01.04-.01.06 0l.01-.05a.17.17 0 0 0-.1 0c-.07.03-.11.11-.07.2.04.09.12.11.19.08.03-.01.06-.04.07-.08l-.05-.02c0 .02-.02.04-.04.05zM9.84 15.52l-.02-.05-.21.09.02.06.07-.04.1.22.06-.02-.09-.22zM9.96 15.4c-.07.03-.1.1-.06.19.04.09.11.12.19.09.07-.03.1-.11.06-.2-.04-.08-.12-.11-.19-.08zm.1.23c-.04.02-.08-.01-.1-.06-.02-.05-.01-.1.02-.11.04-.02.08.01.1.06.02.05.02.1-.02.11zM10.38 15.33c-.03-.06-.08-.06-.14-.04l-.1.04.12.27.06-.03-.04-.1.03-.01.1.07.07-.03-.11-.08c.02-.02.03-.05.01-.09zm-.09.09-.03.01-.03-.08.03-.01c.03-.01.05-.01.07.01 0 .03-.01.05-.04.07z"/></g></g><g><path class="st0" d="m16.42 2.92-.49-.03.02-.32-.08-.01-.02.41.65.04.02-.41-.08-.01z"/><path class="st0" d="M16.64 2.53s0 .01 0 0l-.88-.04s-.01 0-.01-.01v-.09h-.08v.09c0 .05.04.09.08.09l.87.05c.05 0 .09-.04.09-.08v-.09h-.08l.01.08zM17.81 1.24l-.03.48.77.39.11.01.06-1.18-.11-.01-.8.31zm.83-.22-.05 1.02h-.01l-.76-.39.02-.33.8-.3z"/><path class="st0" d="M17.78.45 15.04.3c-.07 0-.13.05-.13.12l-.1 1.84c0 .07.05.13.12.13l2.74.15c.07 0 .13-.05.13-.12l.1-1.84c0-.07-.05-.13-.12-.13zm-.07 1.96c0 .02-.02.04-.04.04l-2.74-.15c-.02 0-.04-.02-.04-.04l.1-1.84c0-.02.02-.04.04-.04l2.74.15c.02 0 .04.02.04.04l-.1 1.84z"/><path class="st0" d="M16.92.12 15.81.06c-.05 0-.09.04-.09.08l-.02.28 1.29.07.01-.28c.01-.05-.03-.09-.08-.09zm0 .28L15.8.34l.01-.19s0-.01.01-.01l1.11.06s.01 0 .01.01l-.02.19z"/><path transform="rotate(-86.928 16.451 .068)" class="st0" d="M16.38.03h.14v.08h-.14z"/><path transform="rotate(-86.928 16.203 .061)" class="st0" d="M16.14.02h.12V.1h-.12z"/><g><path class="st0" d="m16.46 1.27-1.2-.06c-.05 0-.09.04-.09.08l-.05.81c0 .05.04.09.08.09l1.2.06c.05 0 .09-.04.09-.08l.04-.81c.02-.05-.02-.09-.07-.09zm-.04.9s-.01.01 0 0l-1.21-.06s-.01 0-.01-.01l.04-.81s0-.01.01-.01l1.2.06s.01 0 .01.01l-.04.82z"/></g><g><path class="st0" d="M16.67.65c-.1-.01-.18.07-.19.17-.01.1.07.18.17.19.1.01.18-.07.19-.17 0-.1-.08-.18-.17-.19zm-.02.28c-.05 0-.09-.05-.09-.1s.05-.09.1-.09.09.05.09.1-.05.09-.1.09z"/></g><g><path class="st0" d="M17.16.68c-.1-.01-.18.07-.19.17-.01.1.07.18.17.19.1.01.18-.07.19-.17 0-.1-.07-.19-.17-.19zm-.02.27c-.05 0-.09-.05-.09-.1s.05-.09.1-.09.09.05.09.1-.04.09-.1.09z"/></g><g><path class="st0" d="M17.45 0h-.59a.745.745 0 0 0 .59 0z"/></g><g><path class="st0" d="M15.67.35 15.41 0h-.1l.29.4z"/></g><g><path class="st0" d="m17.25.48.32-.48h-.1l-.29.44z"/></g></g><g><path class="st0" d="m.13 12.03-.07.04.14.29-.2.1v.09l.31-.15z"/><path class="st0" d="m.27 11.88-.04-.08-.07.04.04.08v.01l-.2.09v.09L.23 12c.05-.02.07-.08.04-.12zM1.14 9.56l-.56.66.21.44.87-.04.1-.05-.51-1.06-.11.05zm.51.98-.85.04-.15-.3.55-.66.01-.01.45.92-.01.01z"/><path class="st0" d="M1.15 11.25.34 9.6c-.03-.06-.1-.09-.16-.06L0 9.63v.09l.21-.1c.02-.01.04 0 .05.02l.81 1.65c.01.02 0 .04-.02.05L0 11.86v.09l1.09-.54c.06-.03.09-.1.06-.16z"/><g><path class="st0" d="M0 10.18v.05-.05z"/></g></g><g><path class="st0" d="M10.02 6.68c-.03.02-.05.04-.08.07-.04.04-.1.11-.14.13-.06.04-.13.02-.18-.05-.09-.14-.24-.47-.2-.55a.83.83 0 0 1 .13-.16c.04-.05.08-.09.11-.13.01-.03.02-.06.01-.09a.347.347 0 0 0-.06-.09c-.03.01-.06.01-.08.01.02.04.05.08.06.11 0 0 0 .01-.01.02-.02.03-.06.07-.1.12-.05.06-.11.12-.14.17-.08.16.21.63.21.63.08.12.21.15.32.06h.01l.01-.01c.03-.04.07-.08.11-.11.04-.04.08-.07.13-.1 0 0 .01 0 .01-.01-.05 0-.09 0-.12-.02zM10.3 5.63c-.06 0-.14.03-.22.05-.05.02-.1.03-.13.04h-.03a.378.378 0 0 1-.09-.12c-.01.03-.03.06-.04.09.02.03.05.07.06.09.03.03.07.03.11.02.04-.01.09-.02.14-.04.07-.02.15-.05.2-.05.09 0 .32.27.41.41.02.04.03.08.03.11-.01.03-.02.06-.05.08-.05.03-.13.05-.18.07-.03.01-.07.03-.1.05a.37.37 0 0 1-.07.14c.01-.01.03-.02.05-.04.05-.03.09-.05.14-.07.05-.02.1-.04.16-.06h.01c.01 0 .02-.01.02-.01.05-.03.08-.08.09-.13.01-.06 0-.11-.04-.17.01-.02-.29-.47-.47-.46z"/><path class="st0" d="M10.61 7.79c-.04-.06-.1-.14-.16-.23-.12-.17-.25-.36-.36-.5-.07-.08-.14-.16-.18-.19l-.01.01c-.01.02-.03.03-.05.05.02.01.09.07.18.18.11.14.24.33.36.5.06.09.12.17.16.23.29.39.74.85.91 1.01l.07-.04c-.16-.16-.63-.62-.92-1.02zM11.12 7.15c-.1-.17-.23-.38-.31-.54-.06-.12-.08-.2-.09-.22-.01 0-.01.01-.02.01-.02.01-.04.02-.05.02.01.05.04.13.09.23.08.16.21.38.32.55.05.09.1.17.13.23.26.46.48 1.06.54 1.25l.07-.05c-.07-.21-.29-.79-.54-1.24-.04-.07-.09-.15-.14-.24z"/><g><path class="st0" d="M9.35 5.2c-.14.09-.17.3-.07.47.11.16.31.22.45.13s.17-.3.07-.47c-.11-.16-.31-.22-.45-.13zm.34.53c-.11.07-.26.02-.34-.11-.08-.12-.06-.28.04-.35.11-.07.26-.02.34.11.08.13.06.28-.04.35z"/></g><g><path class="st0" d="m11.05 9.08.12.18.07-.04-.08-.12.99-.64.08.12.06-.05-.11-.18z"/><path class="st0" d="M12.43 8.4 11 9.33c-.08.05-.1.16-.05.24l.08.12 1.72-1.11-.08-.12c-.06-.08-.17-.11-.24-.06zm-1.38 1.17-.03-.05c-.03-.04-.01-.1.03-.12l1.43-.92c.04-.03.1-.01.12.03l.03.05-1.58 1.01z"/></g><g><path class="st0" d="M9.87 6.01a.4.4 0 0 0-.12.54.4.4 0 0 0 .54.12.4.4 0 0 0 .12-.54.39.39 0 0 0-.54-.12zm.38.59c-.15.09-.34.05-.43-.1a.305.305 0 0 1 .09-.42.32.32 0 0 1 .43.09c.09.14.05.33-.09.43z"/></g><g><path class="st0" d="M10.59 7.13c-.11.07-.21.02-.21.02l-.02.04-.02.04c.01 0 .13.06.26 0l1 1.55.07-.04-1.04-1.62-.04.01z"/></g><g><path class="st0" d="M10.7 6.95s.01.1-.1.18l.04.07c.16-.1.14-.25.14-.26l-.08.01z"/></g></g><g><path class="st0" d="M13.07.47c0-.09.01-.26.02-.47h-.08c-.01.19-.02.36-.02.45l.08.02zM13.38.55c.06-.1.16-.31.28-.55h-.09c-.11.24-.22.44-.27.53l.08.02z"/><g><path class="st0" d="m12.49.52.07.02.04-.13 1.14.3-.04.13.08.02.06-.21-1.3-.34z"/><path class="st0" d="M13.97.87 12.33.44c-.09-.02-.19.03-.21.12l-.04.14 1.97.52.04-.14a.18.18 0 0 0-.12-.21zm.04.19-.02.06-1.82-.48.02-.06a.08.08 0 0 1 .11-.06l1.64.43c.05.02.08.06.07.11z"/></g><g><path class="st0" d="m13.22.53.14-.53h-.09l-.13.51z"/></g></g><g><path class="st0" d="M13.88 17.11h-.02c-.04.01-.09.01-.15.01-.08 0-.17 0-.23.02-.17.05-.32.57-.32.58-.04.14.03.26.17.28h.02c.06 0 .11 0 .17.01.05 0 .11.01.16.03h.01a.207.207 0 0 1-.06-.1c-.04-.01-.07-.01-.11-.01-.05 0-.15 0-.2-.01-.07-.02-.1-.09-.08-.17.04-.17.18-.5.27-.52.05-.01.13-.01.21-.01.06 0 .12 0 .17-.01.03-.01.07-.01.08-.05.01-.02.02-.06.03-.1-.03-.02-.05-.04-.07-.06-.02.03-.04.08-.05.11zM14.39 17.3c-.05-.03-.09-.05-.12-.07-.02-.01-.02-.02-.03-.02.01-.04.03-.1.04-.15-.03.02-.06.03-.09.03-.01.04-.02.08-.03.11 0 .04.03.07.06.09.03.02.08.05.13.08.06.04.14.08.17.11.06.06.02.42-.02.58-.01.04-.03.08-.06.1-.03.02-.06.02-.09.01-.06-.02-.13-.06-.18-.09-.03-.02-.07-.03-.1-.04a.37.37 0 0 1-.15.04c.02 0 .04.01.06.01.05.01.1.03.15.06.05.02.1.05.15.08h.02c.01 0 .02.01.03.01.06.01.11.01.16-.02s.08-.08.1-.14c0-.01.13-.54 0-.66-.05-.03-.13-.07-.2-.12z"/><path class="st0" d="M13.26 18.85c.05-.2.1-.43.13-.61.02-.1.02-.21.02-.25h-.01c-.02 0-.05 0-.07-.01 0 .03.01.12-.01.25-.03.18-.08.4-.13.6-.02.11-.05.2-.06.27-.06.28-.09.62-.11.9h.08c.02-.27.05-.61.11-.88 0-.07.02-.17.05-.27zM14.01 19.06c.06-.19.13-.43.19-.6.05-.13.09-.2.11-.22-.01 0-.01-.01-.02-.01-.02-.01-.04-.01-.05-.03-.03.04-.07.12-.11.22-.06.17-.14.41-.19.6-.03.1-.06.19-.08.25-.08.24-.18.49-.29.71h.09c.1-.21.2-.46.27-.69.02-.04.05-.13.08-.23z"/><g><path class="st0" d="M14.25 16.44c-.16-.04-.34.08-.39.27-.05.19.04.38.2.42.16.04.34-.08.39-.27.06-.19-.03-.37-.2-.42zm.13.4c-.04.15-.17.24-.29.21-.12-.03-.19-.18-.15-.32.04-.15.17-.24.29-.21.12.03.19.18.15.32z"/></g><g><path class="st0" d="M14.01 17.37a.4.4 0 0 0-.48.28.4.4 0 0 0 .28.48.4.4 0 0 0 .48-.28.4.4 0 0 0-.28-.48zm.2.46c-.04.16-.21.26-.38.22a.314.314 0 0 1-.22-.38c.04-.16.21-.26.38-.22.16.04.26.21.22.38z"/></g><g><path class="st0" d="M13.67 18.66c-.13-.03-.16-.14-.16-.14l-.04.01-.04.01c0 .01.04.14.18.19L13.27 20h.08l.35-1.33-.03-.01z"/></g><g><path class="st0" d="m13.67 18.66-.02.08c.18.05.28-.07.28-.07l-.06-.05s-.06.08-.2.04z"/></g></g><g><path class="st0" d="M17 5.54c.05-.08.07-.18-.02-.29l-.03-.03c.04-.07.05-.15.01-.23a.259.259 0 0 0-.14-.11.336.336 0 0 0-.22.02c-.01-.01-.01-.02-.02-.03-.02-.02-.03-.03-.06-.04a.23.23 0 0 0-.04-.26c-.07-.08-.19-.09-.3-.04a.236.236 0 0 0-.12-.14.24.24 0 0 0-.23.02c-.08.05-.14.13-.16.21-.12-.02-.27.02-.31.18v.02a.25.25 0 0 0-.14.04c-.08.05-.14.13-.16.21-.12-.03-.27.01-.31.17-.01.04-.01.08.01.12l.1.02c-.01-.01-.01-.01-.01-.02-.02-.03-.03-.07-.02-.1.04-.15.17-.13.22-.12.01 0 .03.01.04.01l.05.02v-.09c.01-.06.06-.13.12-.17.03-.02.08-.04.13-.03l.05.01V4.8c.04-.15.17-.13.22-.12.01 0 .03.01.04.01l.05.02v-.09c.01-.06.06-.13.12-.17.04-.02.1-.05.15-.02.06.03.09.07.09.13v.06l.05-.03c.06-.04.13-.05.19-.04.03.01.05.02.07.04.08.09.04.17.01.21l-.03.08.05.01c.03.01.05.02.06.04.01.01.02.03.03.04l.02.03.03-.02c.06-.03.14-.04.2-.03.05.01.08.03.1.07.04.09.01.15-.02.18l-.04.04.05.02c.02.01.03.02.04.03.09.11.02.2-.01.23l-.05.05.08.01c.03.01.05.02.07.04.04.05.06.11.03.16-.01.04-.04.07-.08.1l.09.02c.03-.03.05-.06.06-.09.03-.08.01-.16-.05-.24-.02 0-.04-.02-.06-.03z"/><path class="st0" d="m14.67 5.56-.38 2.21 1.38.34c.02-.01.04-.03.06-.04.01 0 .02-.01.03-.02l-1.38-.34.37-2.14 2.24.55-.63 1.98.03.03c.01.02.02.03.03.05l.65-2.04.06-.24-2.39-.58-.07.24zm.11-.14 2.25.55-.03.09-2.25-.55.03-.09z"/><path class="st0" d="M15.85 8.54c-.09 0-.2-.05-.26-.12a.272.272 0 0 1-.06-.17c.02-.15.14-.21.24-.21.08 0 .15.03.2.07l.01.01c.06-.05.15-.09.23-.09.07 0 .12.02.16.07.06.07.08.15.05.23-.04.1-.14.17-.24.19a.284.284 0 0 1-.19-.04.16.16 0 0 1-.11.05c-.01.01-.02.01-.03.01zm-.08-.42c-.05 0-.16.01-.17.15 0 .04.01.08.04.11.05.06.16.1.23.09.03 0 .07-.03.09-.06l.02-.03.02.03c.04.04.09.06.16.05.08-.01.16-.07.19-.15.02-.06.01-.11-.03-.16a.123.123 0 0 0-.1-.05c-.07 0-.16.04-.21.09l-.02.03-.03-.02c-.01-.01-.02-.02-.03-.02a.227.227 0 0 0-.16-.06zM16.8 8.7c-.03 0-.07-.01-.09-.02a.36.36 0 0 1-.17-.24c-.01-.07 0-.14.04-.19.05-.05.11-.08.17-.08.13 0 .24.12.27.22.03.1.01.19-.06.25-.04.04-.1.06-.16.06zm-.04-.47c-.04 0-.09.02-.12.06-.04.04-.04.09-.03.13.02.08.07.16.14.19.02.01.04.01.06.01.04 0 .09-.02.12-.04.05-.04.07-.1.04-.19-.03-.07-.12-.16-.21-.16zM14.63 6.09c0 .03-.01.05-.02.08l1.49-.27c-.05-.01-.1-.03-.15-.05l-1.32.24zM14.53 6.67 17 6.22c0-.01 0-.01.01-.02 0-.02 0-.04.01-.06l-2.5.46.01.07z"/><g><path class="st0" d="m14.45 7.12 2.39-.44c.01-.02.01-.03.02-.05 0-.01.01-.02.01-.03l-2.4.44-.02.08z"/></g><g><path class="st0" d="m14.36 7.61 2.32-.42c.01-.02.02-.04.02-.06 0-.01.01-.01.01-.02l-2.37.43.02.07z"/></g><g><path class="st0" d="m15.09 7.92 1.43-.26c.01-.03.02-.06.04-.08l-1.63.3c.06.01.11.02.16.04z"/></g></g><g><path class="st0" d="m10.27 11.68-.07.02.37 1.63c0 .01 0 .02-.01.02l-3.14.72c-.01 0-.02 0-.02-.01l-.37-1.63-.07.02.37 1.63c.01.05.06.08.11.07l3.14-.72c.05-.01.08-.06.07-.11l-.38-1.64z"/><path class="st0" d="M6.9 11.94c.01.02.01.05.01.08l3.31-.75.09.37-3.42.78-.06-.25c-.01.01-.03.02-.04.02h-.03l.07.31 3.57-.81-.12-.52-3.38.77zM6.39 11.68l.24.25c0-.01 0-.01.01-.02 0-.01-.01-.02 0-.03l.03-.03-.17-.17 2.57-2.39.26.28-2.49 2.31c.02.02.04.04.04.07l2.55-2.37-.36-.39-2.68 2.49z"/><path class="st0" d="M6.71 11.82c-.11.02-.18.13-.15.24.02.11.13.18.24.15.11-.02.18-.13.15-.24s-.13-.18-.24-.15zm.07.32a.12.12 0 0 1-.15-.1.12.12 0 0 1 .1-.15c.07-.02.14.03.15.1.01.07-.03.13-.1.15z"/><path transform="rotate(-12.849 8.723 12.553)" class="st0" d="M7.53 12.52h2.38v.08H7.53z"/><path transform="rotate(-12.851 8.807 12.913)" class="st0" d="M7.61 12.87h2.38v.08H7.61z"/><path transform="rotate(-12.849 8.883 13.258)" class="st0" d="M7.69 13.22h2.38v.08H7.69z"/><path transform="rotate(-60.225 7.17 12.156)" class="st0" d="M6.86 12.12h.62v.08h-.62z"/><path transform="rotate(-60.225 7.74 12.026)" class="st0" d="M7.43 11.99h.62v.08h-.62z"/><path transform="rotate(-60.225 8.303 11.898)" class="st0" d="M7.99 11.86h.62v.08h-.62z"/><path transform="rotate(-60.225 8.87 11.769)" class="st0" d="M8.56 11.73h.62v.08h-.62z"/><path transform="rotate(-60.225 9.435 11.64)" class="st0" d="M9.12 11.6h.62v.08h-.62z"/><path transform="rotate(-60.225 10.01 11.508)" class="st0" d="M9.7 11.47h.62v.08H9.7z"/><path transform="matrix(1 -.00588 .00588 1 -.068 .04)" class="st0" d="M6.85 11.25h.08v.62h-.08z"/><path transform="matrix(1 -.00588 .00588 1 -.066 .043)" class="st0" d="M7.28 10.86h.08v.62h-.08z"/><path transform="matrix(1 -.00588 .00588 1 -.063 .046)" class="st0" d="M7.7 10.46h.08v.62H7.7z"/><g><path transform="matrix(1 -.00588 .00588 1 -.06 .048)" class="st0" d="M8.13 10.07h.08v.62h-.08z"/></g><g><path transform="matrix(1 -.00586 .00586 1 -.058 .05)" class="st0" d="M8.55 9.67h.08v.62h-.08z"/></g><g><path transform="matrix(1 -.00586 .00586 1 -.056 .053)" class="st0" d="M8.98 9.27h.08v.62h-.08z"/></g></g><g><path class="st0" d="m.47 6.3.71-1.5-.07-.04L.4 6.27c0 .01-.01.01-.02.01L0 6.1v.08l.34.16c.05.03.11.01.13-.04z"/><path class="st0" d="M1.5 4.4 0 3.69v.09l1.4.66-.17.35L0 4.2v.09l1.27.6zM1.79 2.1 0 2.25v.07l1.72-.14.03.39L0 2.71v.07l1.83-.14zM.52 5 0 4.76v.08l.49.23zM.36 5.34 0 5.16v.09l.33.15zM.21 5.66 0 5.56v.08l.18.09z"/><path class="st0" d="m.3 3.85-.3.12v.09l.33-.14z"/><path transform="rotate(-21.998 .553 4.252)" class="st0" d="M.24 4.21h.62v.08H.24z"/><path transform="rotate(-21.998 1.087 4.505)" class="st0" d="M.77 4.47h.62v.08H.77z"/><path transform="rotate(-52.137 .334 2.475)" class="st0" d="M.02 2.44h.62v.08H.02z"/><g><path transform="rotate(-52.141 .914 2.427)" class="st0" d="M.6 2.39h.62v.08H.6z"/></g><g><path transform="rotate(-52.137 1.502 2.379)" class="st0" d="M1.19 2.34h.62v.08h-.62z"/></g></g><g><path class="st0" d="m19.62 12.29-.08.03.18.37.28-.14v-.09l-.24.12z"/><path class="st0" d="m19.41 12.31-.04-.08-.07.04.04.08c.02.04.08.06.12.04l.54-.27v-.09l-.59.28z"/><path class="st0" d="m17.66 10.92.81 1.65c.03.06.1.09.16.06l1.37-.68v-.09l-1.4.69c-.02.01-.04 0-.05-.02l-.81-1.65c-.01-.02 0-.04.02-.05L20 9.72v-.09l-2.29 1.12c-.06.03-.08.11-.05.17z"/><path class="st0" d="m19.27 9.67-1 .49c-.04.02-.06.08-.04.12l.12.25 1.16-.57-.12-.25c-.03-.04-.08-.06-.12-.04zm-.88.75-.09-.17v-.01l1-.49h.01l.09.17-1.01.5zM18.39 9.01l-.17.08c.02.02.04.04.05.07l.13-.07v-.01c-.01-.02-.01-.05-.01-.07z"/><path class="st0" d="M18.65 9.4c-.05-.03-.1-.06-.14-.1l.31.64.08-.04-.25-.5zM18.35 9.54l.25.5.07-.04-.32-.66c.01.08.01.14 0 .2z"/><path class="st0" d="M17.33 8.86c-.37.18-.52.63-.34 1s.63.52 1 .34.52-.63.34-1a.748.748 0 0 0-1-.34zm.63 1.26a.664.664 0 1 1 .3-.89c.16.33.02.73-.3.89zM19.54 10.94c-.02-.04-.08-.06-.12-.04l-1.08.53c-.04.02-.06.08-.04.12l.36.73c.02.04.08.06.12.04l1.08-.53c.04-.02.06-.08.04-.12l-.36-.73zm.29.78-1.08.53h-.01l-.36-.73v-.01l1.08-.53h.01l.36.74c0-.01 0 0 0 0z"/><g><path class="st0" d="M19.3 10.27c-.09.04-.12.15-.08.24.04.09.15.12.24.08.09-.04.12-.15.08-.24a.171.171 0 0 0-.24-.08zm.12.24c-.05.02-.11 0-.13-.04-.02-.05 0-.11.04-.13.05-.02.11 0 .13.04.03.05.01.11-.04.13z"/></g><g><path class="st0" d="M19.75 10.05c-.09.04-.12.15-.08.24.04.09.15.12.24.08.05-.03.09-.08.1-.13v-.05c0-.02-.01-.04-.02-.06-.05-.09-.16-.13-.24-.08zm.12.24c-.05.02-.11 0-.13-.04-.02-.05 0-.11.04-.13.05-.02.11 0 .13.04.02.05 0 .11-.04.13z"/></g><g><path class="st0" d="M17.45 9.09a.48.48 0 0 0-.23.65c.12.24.41.34.66.22.24-.12.34-.41.22-.66a.49.49 0 0 0-.65-.21zm.39.8c-.2.1-.45.02-.55-.19s-.02-.45.19-.55c.2-.1.45-.02.55.19.1.21.02.45-.19.55z"/></g><g><path class="st0" d="M18.75 8.19c-.37.18-.52.63-.34 1s.63.52 1 .34.52-.63.34-1a.751.751 0 0 0-1-.34zm.62 1.27a.664.664 0 1 1-.59-1.19.664.664 0 0 1 .59 1.19z"/></g><g><path class="st0" d="M18.86 8.42c-.24.12-.34.41-.22.66.12.24.41.34.66.22.24-.12.34-.41.22-.66a.496.496 0 0 0-.66-.22zm.4.81c-.2.1-.45.02-.55-.19-.1-.2-.02-.45.19-.55.2-.1.45-.02.55.19.09.2.01.45-.19.55z"/></g><g><path class="st0" d="M17.62 10.24h-.06l.69.32.03-.07-.57-.26c-.03.01-.07.01-.09.01z"/></g><g><path class="st0" d="m19.7 9.11-.06.72.08.01.06-.78h-.03l-.05.05z"/></g></g><g><path class="st0" d="m17.46 4.88.72-1.51-.07-.03-.71 1.51c-.02.05 0 .1.04.12L20 6.18V6.1l-2.53-1.2c-.01 0-.01-.01-.01-.02zM18.33 2.99l1.67.79v-.09l-1.63-.77c0 .03-.02.05-.04.07z"/><path class="st0" d="M18.17 3.06c-.02 0-.03 0-.05-.01-.01 0-.02-.01-.02-.02l-.14.29 2.04.97V4.2l-1.93-.92.1-.22zM18.36 2.92 20 2.78v-.07l-1.63.13c0 .03 0 .05-.01.08zM18.17 2.74c.01 0 .01-.01.02-.01 0-.01.01-.02.01-.02a.03.03 0 0 1 .04 0l-.02-.24L20 2.32v-.07l-1.86.15.03.34z"/><path class="st0" d="M18.3 2.7c-.1-.05-.22 0-.27.1-.05.1 0 .22.1.27.1.05.22 0 .27-.1.04-.1 0-.22-.1-.27zm.03.24c-.03.06-.11.09-.17.06-.06-.03-.09-.1-.06-.17.03-.06.11-.09.17-.06.06.03.09.11.06.17zM18.34 4.05l1.66.79v-.08l-1.63-.78zM18.18 4.38l1.82.87v-.09l-1.79-.85zM18.03 4.71l1.97.93v-.08l-1.94-.92z"/><path transform="rotate(-21.998 18.451 3.257)" class="st0" d="M18.14 3.22h.62v.08h-.62z"/><path transform="rotate(-21.998 18.98 3.507)" class="st0" d="M18.67 3.47h.62v.08h-.62z"/><g><path transform="rotate(-21.989 19.506 3.754)" class="st0" d="M19.19 3.72h.62v.08h-.62z"/></g><g><path class="st0" d="m19.75 4.16.25-.1v-.09l-.28.11z"/></g><g><path transform="rotate(-52.133 18.599 2.618)" class="st0" d="M18.29 2.58h.62v.08h-.62z"/></g><g><path transform="rotate(-52.133 19.181 2.57)" class="st0" d="M18.87 2.53h.62v.08h-.62z"/></g><g><path transform="rotate(-52.137 19.754 2.523)" class="st0" d="M19.44 2.48h.62v.08h-.62z"/></g></g><g><path class="st0" d="m10.53.63.18-.43-.49-.2h-.2l.6.24-.15.36c-.03.06-.1.09-.16.07L8.66 0h-.2l1.82.74c.09.05.21 0 .25-.11zM9.44 2.78l-1.83-.75c-.1-.04-.22.01-.26.11l-.18.44 1.1.45 1.1.45.18-.43a.215.215 0 0 0-.11-.27zm.03.24-.14.36-1.03-.42-1.03-.42.15-.36c.03-.06.1-.09.16-.07l1.83.75c.06.02.09.09.06.16zM10.1 1.18 8.27.43c-.1-.04-.22.01-.26.11l-.35.85c-.05.11 0 .22.11.26l1.82.75c.1.04.22-.01.26-.11l.35-.86c.05-.1 0-.21-.1-.25zm.03.23-.35.86c-.03.06-.1.09-.16.07l-1.83-.76c-.06-.02-.09-.09-.06-.16l.35-.86c.02-.06.1-.09.16-.06l1.83.75c.06.02.09.09.06.16z"/><path class="st0" d="M10 3.73 11.34.46 10.22 0h-.2l1.22.5-1.29 3.13-3.3-1.35L7.58 0H7.5l-.95 2.32z"/><path class="st0" d="m10.63.72.3.12.1-.25-.3-.12-.1.25zm.31-.08-.04.11-.16-.07.04-.11.16.07zM8.02.16 8.08 0H8l-.02.06L7.84 0h-.11l-.02.03zM10.45 1.15l.3.12.1-.25-.3-.12-.1.25zm.31-.08-.04.11-.16-.07.04-.11.16.07z"/><g><path class="st0" d="m7.54.46.3.12.1-.25-.3-.12-.1.25zm.31-.08L7.8.49 7.64.42l.04-.11.17.07zM10.28 1.58l.3.12.1-.25-.3-.12-.1.25zm.3-.08-.04.11-.16-.07.04-.11.16.07zM7.36.89l.3.12.1-.25-.3-.12-.1.25zm.31-.08-.05.11-.16-.07.04-.11.17.07zM10.1 2.02l.3.12.1-.25-.3-.12-.1.25zm.31-.09-.04.11-.17-.07.04-.11.17.07z"/></g><g><path class="st0" d="m7.18 1.33.3.12.1-.25-.3-.12-.1.25zm.31-.09-.04.11-.17-.06.04-.11.17.06zM9.92 2.45l.3.12.1-.25-.3-.12-.1.25zm.31-.08-.04.11-.16-.07.04-.11.16.07zM7.01 1.76l.3.12.1-.25-.3-.12-.1.25zm.3-.09-.04.11-.16-.06.04-.11.16.06zM9.75 2.88l.3.12.1-.25-.3-.12-.1.25zm.3-.08-.04.11-.16-.07.04-.11.16.07zM6.83 2.19l.3.12.1-.25-.3-.12-.1.25zm.31-.08-.05.11-.16-.07.04-.11.17.07zM9.57 3.31l.3.12.1-.25-.3-.12-.1.25zm.3-.08-.04.11-.16-.07.04-.11.16.07z"/></g></g><g><path class="st0" d="m1.11 17.38.3 1.69.08-.01-.28-1.61.14-.03.28 1.61.08-.01-.3-1.69zM.66 19.4l-.08.02.01.05.2.53h.09l-.21-.55zM2.62 19.05l-.08.02.01.05-.02.88h.08l.02-.89z"/><g><path class="st0" d="m.47 19.19.05.3 2.17-.39-.05-.3-2.17.39zm.12.2-.02-.14 2.01-.36.02.14-2.01.36z"/></g><g><path class="st0" d="M2.57 19.1c-.01-.03-.02-.04-.04-.04l-1.4.94h.15l1.3-.87c0-.01 0-.02-.01-.03z"/></g><g><path class="st0" d="M2.58 19.73v-.07l-.51.34h.15l.36-.24v-.03z"/></g></g><g><path class="st0" d="m16.31 19.18.15.01v-.01c0-.03.01-.05.02-.07l-.19-.01c.01.02.01.05.02.08zM16.52 19.58c-.03-.05-.06-.1-.07-.16l-.04.58h.08l.03-.42zM16.19 19.56l-.02.44h.08l.03-.61c-.02.06-.05.12-.09.17z"/><path class="st0" d="M15.64 18.46a.74.74 0 0 0-.78.7c-.02.41.29.76.7.78.41.02.76-.29.78-.7.02-.4-.29-.75-.7-.78zm.62.78a.67.67 0 0 1-.7.63.67.67 0 0 1-.63-.7.67.67 0 0 1 .7-.63c.37.02.65.34.63.7z"/><path class="st0" d="M15.62 18.72c-.27-.01-.5.19-.52.46-.01.27.19.5.46.52.27.01.5-.19.52-.46a.48.48 0 0 0-.46-.52zm.38.51c-.01.22-.2.4-.43.39-.22-.01-.4-.2-.39-.43.01-.22.2-.4.43-.39.23.01.41.2.39.43z"/><g><path class="st0" d="M17.9 19.36a.74.74 0 0 0-.7-.78.74.74 0 0 0-.33 1.42h.59c.24-.11.42-.35.44-.64zm-.78.62a.67.67 0 0 1-.63-.7.67.67 0 0 1 .7-.63c.36.02.65.33.63.7-.02.37-.34.65-.7.63z"/></g><g><path class="st0" d="M17.18 18.83c-.27-.01-.5.19-.52.46s.19.5.46.52c.27.01.5-.19.52-.46a.48.48 0 0 0-.46-.52zm.38.51c-.01.22-.2.4-.43.39-.22-.01-.4-.2-.39-.43.01-.22.2-.4.43-.39.23.01.4.2.39.43z"/></g><g><path class="st0" d="m15.21 19.81-.06-.03.16.22h.1l-.11-.16a.465.465 0 0 1-.09-.03z"/></g><g><path class="st0" d="M17.66 19.82c-.03.01-.05.01-.08.02l-.11.16h.1l.11-.17-.02-.01z"/></g></g><g><path class="st0" d="m9.65 19.76-1.14-.46-.18.43c-.04.1.01.22.11.26H8.65l-.18-.08a.135.135 0 0 1-.07-.16l.15-.36 1 .41.46.2h.2l-.56-.24z"/><path class="st0" d="M7.5 20h.08l.35-.85 2.09.85h.2l-2.33-.95z"/><path class="st0" d="m7.89 19.6.3.12.1-.25-.3-.12-.1.25zm.31-.08-.04.11-.16-.07.04-.11.16.07zM7.82 19.78l-.09.22h.11l-.02-.01.04-.11.16.07L8 20h.08l.04-.09z"/></g><g><path class="st0" d="M7.11 17.99c-.31-.9-1.29-1.39-2.19-1.08-.9.31-1.39 1.29-1.08 2.19.13.39.39.7.71.9h.18c-.37-.19-.66-.51-.81-.93a1.64 1.64 0 0 1 1.03-2.08c.86-.29 1.79.17 2.08 1.03.26.78-.09 1.62-.8 1.99h.17c.66-.43.98-1.25.71-2.02z"/><path class="st0" d="M5.04 17.24a1.38 1.38 0 0 0-.86 1.74c.24.71 1.02 1.1 1.74.86.71-.24 1.1-1.02.86-1.74-.25-.71-1.03-1.1-1.74-.86zm.85 2.51a1.285 1.285 0 0 1-.83-2.43c.67-.23 1.4.13 1.63.8.23.68-.13 1.41-.8 1.63z"/><path class="st0" d="M5.51 17.34c-.12.04-.22.14-.25.26-.01.04-.02.08-.02.12 0 .04.01.09.02.13.07.21.3.32.51.25.11-.04.2-.12.24-.23.02-.04.03-.08.03-.12 0-.06 0-.11-.02-.16a.402.402 0 0 0-.51-.25zm.45.41c0 .03-.01.06-.02.09a.313.313 0 0 1-.59-.02.355.355 0 0 1-.02-.1c0-.03.01-.06.01-.09.03-.1.1-.17.2-.2.16-.06.34.03.4.2.01.03.02.08.02.12zM5.4 18.31c-.13.04-.2.18-.15.31.04.13.18.2.31.15.13-.04.2-.18.15-.31a.25.25 0 0 0-.31-.15zm.13.38c-.08.03-.17-.02-.2-.1s.02-.17.1-.2.17.02.2.1a.17.17 0 0 1-.1.2zM5.16 17.75a.236.236 0 0 0-.09-.08.42.42 0 0 0-.36-.05.402.402 0 0 0-.16.66.447.447 0 0 0 .42.1c.21-.07.32-.3.25-.51a.273.273 0 0 0-.06-.12zm-.22.54c-.08.03-.17.02-.25-.02-.03-.01-.05-.03-.08-.06a.24.24 0 0 1-.07-.12c-.06-.16.03-.34.2-.4a.307.307 0 0 1 .35.11c.02.03.04.06.05.09.06.17-.03.35-.2.4zM6.18 17.88a.37.37 0 0 0-.11.05c-.16.1-.23.3-.17.47.06.18.24.29.43.27.03 0 .06-.01.08-.02.01 0 .02-.01.03-.01.19-.09.29-.3.22-.5a.405.405 0 0 0-.48-.26zm.22.68-.09.03a.318.318 0 0 1-.34-.21c-.05-.14.01-.3.14-.37l.06-.03c.01 0 .02-.01.03-.01.16-.04.32.05.37.2.06.15-.02.32-.17.39zM6.4 18.82c-.03-.03-.06-.06-.09-.08a.383.383 0 0 0-.33-.03c-.21.07-.32.3-.25.51.01.04.04.08.07.12a.415.415 0 0 0 .45.13c.21-.07.32-.3.25-.51a.502.502 0 0 0-.1-.14zm-.2.56a.312.312 0 0 1-.35-.11.405.405 0 0 1-.05-.09c-.06-.16.03-.34.2-.4.09-.03.18-.02.26.03.03.02.05.04.07.06.03.03.05.07.06.11.07.17-.02.35-.19.4zM4.64 18.41c-.04 0-.08.02-.12.03-.19.08-.29.3-.22.5.07.2.27.31.48.26.01 0 .02-.01.04-.01a.3.3 0 0 0 .08-.04.4.4 0 0 0 .17-.48.425.425 0 0 0-.43-.26zm.2.67c-.03.02-.06.03-.09.04a.307.307 0 0 1-.37-.21c-.05-.15.02-.33.17-.39.01 0 .02-.01.02-.01.02-.01.04-.01.07-.01a.3.3 0 0 1 .33.21c.06.14 0 .29-.13.37zM5.17 18.98c-.11.04-.19.12-.24.22-.02.04-.03.08-.03.12-.01.06 0 .12.02.17.07.21.3.32.51.25.12-.04.21-.13.25-.26.01-.04.02-.08.02-.12 0-.05-.01-.09-.02-.13a.394.394 0 0 0-.51-.25zm.43.48c-.03.1-.1.17-.2.2a.313.313 0 0 1-.4-.2c-.01-.04-.02-.09-.01-.14 0-.03.01-.06.02-.09.04-.08.1-.14.19-.17.16-.06.34.03.4.2.01.03.02.07.02.11 0 .02-.01.06-.02.09z"/></g><g><path class="st0" d="M6.45 5.52c-.9.31-1.39 1.29-1.08 2.19.31.91 1.29 1.39 2.19 1.09.9-.31 1.39-1.29 1.08-2.19a1.73 1.73 0 0 0-2.19-1.09zm1.08 3.19c-.85.29-1.79-.17-2.08-1.02a1.64 1.64 0 0 1 1.03-2.08c.86-.29 1.79.17 2.08 1.03.29.85-.17 1.78-1.03 2.07z"/><path class="st0" d="M6.93 6.93c-.13.04-.2.18-.16.31.04.13.18.2.31.15.13-.04.2-.18.15-.31-.04-.13-.18-.2-.3-.15zm.12.38c-.08.03-.17-.02-.2-.1s.02-.17.1-.2.17.02.2.1-.01.17-.1.2zM7.04 5.96a.42.42 0 0 0-.26.26c-.01.04-.01.08-.01.12 0 .04.01.09.02.13.07.21.3.33.51.26.11-.04.2-.13.24-.23.02-.04.03-.08.03-.12 0-.06 0-.11-.02-.16a.4.4 0 0 0-.51-.26zm.44.41c0 .03-.01.06-.02.09a.313.313 0 0 1-.59-.02.355.355 0 0 1-.02-.1c0-.03.01-.06.01-.09.03-.1.1-.17.2-.2.16-.06.34.03.4.2.02.03.03.08.02.12zM7.93 7.44a.324.324 0 0 0-.09-.08.448.448 0 0 0-.34-.04c-.21.07-.32.3-.25.51.01.04.04.08.07.12a.415.415 0 0 0 .45.13c.21-.07.32-.3.25-.51a.38.38 0 0 0-.09-.13zm-.2.56c-.09.03-.2.02-.28-.04a.187.187 0 0 1-.07-.06c-.02-.03-.04-.06-.05-.09-.06-.16.03-.34.2-.4.09-.03.18-.02.26.03.03.02.05.04.07.06.04.03.06.06.07.1.06.17-.03.35-.2.4z"/><path class="st0" d="M6.57 5.86a1.38 1.38 0 0 0-.86 1.74c.24.71 1.02 1.1 1.74.86.71-.24 1.1-1.02.86-1.74-.25-.71-1.03-1.1-1.74-.86zm.85 2.51c-.67.23-1.4-.13-1.63-.8-.22-.67.14-1.4.81-1.62.67-.23 1.4.13 1.63.8.22.67-.14 1.4-.81 1.62z"/><path class="st0" d="M6.69 6.37a.647.647 0 0 0-.09-.08c-.1-.08-.24-.1-.36-.06-.21.07-.32.3-.25.51.02.06.05.11.09.16a.442.442 0 0 0 .42.1c.21-.07.32-.3.25-.51a.273.273 0 0 0-.06-.12zm-.22.54c-.08.03-.17.02-.25-.02-.03-.01-.05-.03-.08-.06a.259.259 0 0 1-.07-.11c-.06-.16.03-.34.2-.4.1-.03.2-.02.28.04.03.02.05.04.07.06.02.03.04.06.05.09.05.17-.03.35-.2.4zM6.17 7.03c-.04 0-.08.02-.12.03-.19.08-.29.3-.22.5.07.2.27.31.47.26.01 0 .02-.01.04-.01a.3.3 0 0 0 .08-.04.4.4 0 0 0-.25-.74zm.2.67c-.03.02-.06.03-.09.04-.16.03-.32-.05-.37-.21-.05-.15.02-.33.17-.39.01 0 .02-.01.02-.01.02-.01.04-.01.07-.01.15-.02.29.07.34.21a.31.31 0 0 1-.14.37z"/><path class="st0" d="M6.7 7.59c-.11.04-.19.12-.24.23-.01.03-.03.07-.03.11-.01.06 0 .12.02.17.07.21.3.32.51.25a.37.37 0 0 0 .25-.25c.01-.04.02-.08.02-.12 0-.05-.01-.09-.02-.13a.408.408 0 0 0-.51-.26zm.43.49c-.03.1-.1.17-.2.2a.313.313 0 0 1-.4-.2c-.01-.05-.02-.09-.01-.14 0-.03.01-.06.02-.09.04-.08.1-.14.19-.17.16-.06.34.03.4.2.01.03.02.07.02.11 0 .02-.01.05-.02.09zM7.71 6.5c-.04.01-.08.02-.12.04-.16.1-.23.3-.17.47.06.19.24.3.43.28.03 0 .06-.01.08-.02.01 0 .02-.01.03-.01.19-.09.29-.3.22-.5a.39.39 0 0 0-.47-.26zm.22.68c-.03.01-.06.02-.09.02a.318.318 0 0 1-.34-.21c-.05-.14.01-.3.14-.37l.06-.03c.01 0 .02-.01.03-.01.16-.04.32.05.37.2.05.16-.02.33-.17.4z"/></g><g><path class="st0" d="M6.03.18c.14-.05.26-.11.37-.18h-.17c-.07.04-.15.07-.22.09-.44.15-.9.1-1.28-.09h-.17c.42.27.96.35 1.47.18z"/></g></svg>