<!-- Generated by IcoMoon.io -->
<svg version="1.1" xmlns="http://www.w3.org/2000/svg" width="32" height="32" viewBox="0 0 32 32">
<title>bg_pattern</title>
<path fill="#e2e2e2" d="M5.488 11.904c-0.096-0.064-0.24-0.064-0.4-0.016-0.544 0.16-1.344 0.48-1.888 0.72l0.144 0.080c0.544-0.24 1.264-0.528 1.776-0.672 0.128-0.032 0.224-0.032 0.288 0 0.096 0.048 0.112 0.16 0.112 0.208 0 0.112-0.048 0.256-0.112 0.288h-0.016s-0.048-0.048-0.032-0.24c0-0.080-0.048-0.128-0.064-0.144-0.096-0.048-0.272 0.016-0.528 0.128-0.112 0.048-0.592 0.32-1.12 0.592l0.128 0.080c0.496-0.272 0.944-0.512 1.040-0.56s0.368-0.16 0.416-0.128v0.016c0 0.208 0.032 0.32 0.096 0.368 0.032 0.016 0.080 0.032 0.144-0.016 0.112-0.064 0.176-0.256 0.16-0.4 0.003-0.015 0.004-0.033 0.004-0.050 0-0.108-0.059-0.203-0.147-0.253l-0.001-0.001zM7.936 13.28c-0.049-0.022-0.107-0.034-0.167-0.034-0.073 0-0.143 0.019-0.203 0.051l0.002-0.001c-0.128 0.080-0.256 0.224-0.256 0.352 0 0.080 0.048 0.112 0.064 0.128 0.080 0.048 0.192 0.016 0.368-0.096l0.016-0.016c0.048 0.032 0.080 0.32 0.096 0.432s0.048 0.624 0.064 1.184l0.144 0.080c-0.032-0.608-0.048-1.152-0.064-1.28-0.032-0.272-0.064-0.464-0.16-0.528-0.020-0.010-0.043-0.016-0.067-0.016-0.035 0-0.067 0.012-0.093 0.032l0-0c-0.176 0.112-0.24 0.096-0.24 0.096v-0.016c0-0.064 0.096-0.192 0.192-0.24 0.048-0.016 0.144-0.064 0.24-0.016 0.064 0.048 0.128 0.128 0.16 0.256 0.128 0.512 0.256 1.296 0.336 1.888l0.144 0.080c-0.080-0.608-0.208-1.44-0.352-2-0.035-0.138-0.115-0.254-0.222-0.335l-0.002-0.001z"></path>
<path fill="#e2e2e2" d="M8.64 15.584l-5.44-3.072c-0.112-0.064-0.272-0.032-0.336 0.080l-0.848 1.52c-0.064 0.112-0.016 0.256 0.096 0.32l2.256 1.28c0.128 0.080 0.272 0.032 0.336-0.080 0.048-0.048 0.432-0.544 0.576-0.752 0 0 0.064-0.016 0.16 0.032 0.080 0.048 0.112 0.096 0.128 0.096-0.16 0.352-0.384 0.896-0.384 0.896-0.064 0.112-0.016 0.256 0.096 0.336l2.256 1.28c0.112 0.064 0.272 0.032 0.336-0.080l0.848-1.52c0.080-0.112 0.032-0.272-0.080-0.336zM8.624 15.856l-0.848 1.52c-0.032 0.048-0.096 0.064-0.16 0.032l-2.256-1.28c-0.064-0.032-0.080-0.096-0.048-0.16 0 0 0.224-0.544 0.384-0.896 0.048-0.096-0.064-0.208-0.176-0.272-0.144-0.080-0.256-0.080-0.32 0-0.176 0.208-0.592 0.752-0.608 0.768v0.016c-0.032 0.048-0.096 0.064-0.16 0.032l-2.256-1.28c-0.064-0.048-0.080-0.112-0.048-0.16l0.848-1.52c0.032-0.048 0.096-0.064 0.16-0.032l5.44 3.072c0.048 0.032 0.080 0.112 0.048 0.16z"></path>
<path fill="#e2e2e2" d="M5.040 13.888l-1.696-0.96c-0.036-0.025-0.080-0.040-0.128-0.040-0.092 0-0.172 0.055-0.207 0.134l-0.001 0.001-0.496 1.024c-0.080 0.128-0.032 0.272 0.096 0.336l1.552 0.896c0.112 0.064 0.272 0.032 0.336-0.096l0.624-0.96c0.080-0.128 0.048-0.272-0.080-0.336zM5.024 14.16l-0.624 0.96c-0.032 0.064-0.096 0.080-0.16 0.048l-1.568-0.896c-0.064-0.032-0.080-0.096-0.048-0.16l0.496-1.024c0.032-0.064 0.096-0.080 0.16-0.048l1.696 0.96c0.064 0.032 0.080 0.096 0.048 0.16zM8.224 15.68l-1.712-0.96c-0.112-0.064-0.272-0.032-0.336 0.096l-0.496 1.024c-0.064 0.112-0.032 0.272 0.096 0.336l1.568 0.88c0.112 0.064 0.272 0.032 0.336-0.096l0.624-0.96c0.080-0.096 0.032-0.256-0.080-0.32zM8.192 15.952l-0.624 0.96c-0.032 0.064-0.096 0.080-0.16 0.048l-1.568-0.88c-0.064-0.032-0.080-0.096-0.048-0.16l0.496-1.040c0.032-0.064 0.112-0.080 0.16-0.048l1.696 0.96c0.064 0.032 0.080 0.096 0.048 0.16zM20.448 15.76c-0.112 0.032-0.208 0.112-0.304 0.256-0.288 0.496-0.656 1.264-0.896 1.824l0.16-0.032c0.24-0.544 0.576-1.248 0.848-1.712 0.064-0.112 0.144-0.176 0.224-0.192 0.096-0.016 0.176 0.048 0.224 0.080 0.080 0.080 0.144 0.224 0.112 0.288v0.016c-0.016 0-0.064-0.016-0.192-0.16-0.064-0.064-0.112-0.064-0.144-0.048-0.112 0.032-0.192 0.208-0.304 0.464-0.048 0.112-0.224 0.64-0.416 1.2l0.144-0.032c0.176-0.528 0.336-1.008 0.384-1.12 0.048-0.096 0.16-0.368 0.208-0.384l0.016 0.016c0.128 0.16 0.24 0.224 0.32 0.192 0.032 0 0.080-0.032 0.096-0.112 0.032-0.128-0.048-0.304-0.16-0.416-0.050-0.084-0.14-0.139-0.243-0.139-0.028 0-0.054 0.004-0.079 0.011l0.002-0.001zM23.2 15.104c-0.112 0.032-0.208 0.128-0.256 0.256-0.048 0.144-0.032 0.336 0.048 0.432 0.048 0.064 0.112 0.064 0.144 0.048 0.080-0.016 0.144-0.128 0.192-0.32v-0.016c0.064-0.016 0.272 0.176 0.368 0.24 0.096 0.080 0.448 0.432 0.848 0.832l0.144-0.032c-0.432-0.416-0.816-0.8-0.912-0.88-0.208-0.176-0.368-0.304-0.48-0.272-0.032 0-0.080 0.032-0.112 0.112-0.048 0.208-0.096 0.224-0.096 0.224l-0.016-0.016c-0.048-0.048-0.064-0.208-0.016-0.304 0.016-0.048 0.064-0.144 0.16-0.176 0.080-0.016 0.176 0.016 0.288 0.080 0.448 0.288 1.072 0.768 1.536 1.136l0.16-0.032c-0.464-0.384-1.136-0.912-1.632-1.216-0.128-0.096-0.256-0.128-0.368-0.096z"></path>
<path fill="#e2e2e2" d="M25.568 16.48c-0.032-0.128-0.16-0.208-0.304-0.176l-6.064 1.456c-0.128 0.032-0.224 0.16-0.192 0.288l0.4 1.696c0.032 0.128 0.16 0.208 0.304 0.176l2.528-0.608c0.128-0.032 0.208-0.16 0.192-0.288 0-0.064-0.064-0.704-0.096-0.96 0-0.016 0.032-0.048 0.144-0.080 0.096-0.016 0.144-0.016 0.16-0.016l0.336 0.912c0.032 0.128 0.16 0.208 0.304 0.176l2.528-0.608c0.128-0.032 0.224-0.16 0.192-0.288l-0.432-1.68zM25.76 18.336l-2.528 0.608c-0.064 0.016-0.128-0.016-0.144-0.080l-0.336-0.912c-0.032-0.096-0.192-0.096-0.32-0.080h-0.016c-0.16 0.032-0.24 0.128-0.224 0.224 0.032 0.256 0.096 0.944 0.096 0.96v0.016c0.016 0.064-0.032 0.112-0.096 0.128l-2.528 0.608c-0.064 0.016-0.128-0.016-0.144-0.080l-0.4-1.696c-0.016-0.064 0.032-0.112 0.096-0.128l6.080-1.44c0.064-0.016 0.128 0.016 0.144 0.080l0.4 1.696c0.016 0.032-0.016 0.080-0.080 0.096z"></path>
<path fill="#e2e2e2" d="M21.776 17.696c-0.032-0.128-0.16-0.208-0.304-0.192l-1.904 0.448c-0.128 0.032-0.208 0.16-0.176 0.304l0.336 1.088c0.032 0.128 0.16 0.208 0.304 0.192l1.744-0.416c0.128-0.032 0.208-0.16 0.192-0.288l-0.192-1.136zM21.76 18.992l-1.744 0.416c-0.064 0.016-0.128-0.032-0.144-0.096l-0.352-1.072c-0.016-0.064 0.032-0.128 0.080-0.144l1.904-0.448c0.064-0.016 0.128 0.032 0.144 0.080l0.192 1.136c0.016 0.064-0.032 0.112-0.080 0.128zM25.328 16.848c-0.032-0.128-0.16-0.208-0.304-0.192l-1.904 0.448c-0.128 0.032-0.208 0.16-0.176 0.304l0.336 1.088c0.032 0.128 0.16 0.208 0.304 0.192l1.744-0.416c0.128-0.032 0.208-0.16 0.192-0.288l-0.192-1.136zM25.296 18.16l-1.744 0.416c-0.064 0.016-0.128-0.032-0.144-0.096l-0.336-1.088c-0.016-0.064 0.032-0.128 0.080-0.144l1.904-0.448c0.064-0.016 0.128 0.032 0.144 0.080l0.192 1.136c0.016 0.064-0.032 0.128-0.096 0.144zM9.824 6.336l-0.32-0.736c-0.064 0.032-0.128 0-0.144-0.064l-2.672 1.168-2.656 1.152c0.032 0.064 0 0.128-0.064 0.144l0.32 0.736 0.56 1.312c0.064-0.032 0.128 0 0.144 0.064l2.48-1.072 0.176-0.080 0.192-0.080 2.48-1.088c-0.032-0.064 0-0.128 0.064-0.144l-0.56-1.312zM10.16 7.712l-5.088 2.208c-0.032-0.048-0.096-0.080-0.144-0.048l-0.48-1.088-0.304-0.704c0.064-0.032 0.080-0.096 0.064-0.144l5.088-2.208c0.016 0.048 0.096 0.080 0.144 0.048l0.304 0.704 0.464 1.088c-0.048 0.016-0.080 0.080-0.048 0.144z"></path>
<path fill="#e2e2e2" d="M3.456 7.728l1.248 2.864 6.208-2.704-1.232-2.864-6.224 2.704zM4.768 10.432l-1.136-2.64 5.984-2.592 1.136 2.624-5.984 2.608z"></path>
<path fill="#e2e2e2" d="M5.328 7.968l-0.032-0.080-0.32 0.144 0.032 0.080 0.112-0.048 0.144 0.32 0.096-0.048-0.144-0.32z"></path>
<path fill="#e2e2e2" d="M5.856 8.048c-0.064 0.032-0.112 0-0.16-0.096-0.032-0.080-0.016-0.144 0.048-0.176 0.032-0.016 0.048-0.016 0.080 0l0.032-0.080c-0.021-0.008-0.046-0.012-0.072-0.012s-0.051 0.004-0.074 0.012l0.002-0c-0.112 0.048-0.16 0.16-0.096 0.304 0.048 0.128 0.16 0.16 0.272 0.128 0.048-0.032 0.080-0.064 0.096-0.128l-0.064-0.032c-0.016 0.032-0.032 0.064-0.064 0.080zM6.208 7.488l-0.096 0.048-0.048 0.224-0.080-0.176-0.080 0.048 0.176 0.4 0.080-0.032-0.048-0.112 0.032-0.080 0.16 0.128 0.112-0.048-0.256-0.176zM6.512 7.744l-0.048-0.080 0.144-0.064-0.032-0.080-0.144 0.064-0.032-0.080 0.16-0.080-0.032-0.064-0.256 0.112 0.176 0.4 0.256-0.112-0.032-0.080zM6.928 7.28l-0.032-0.080-0.32 0.128 0.032 0.080 0.112-0.048 0.144 0.32 0.096-0.032-0.144-0.32zM7.632 6.592c-0.032 0.016-0.048 0.048-0.032 0.096s0.064 0.048 0.096 0.032c0.032-0.016 0.048-0.064 0.032-0.096s-0.048-0.048-0.096-0.032zM7.776 6.912c-0.032 0.016-0.048 0.064-0.032 0.096s0.048 0.048 0.096 0.032c0.032-0.016 0.048-0.064 0.032-0.096-0.014-0.023-0.038-0.038-0.066-0.038-0.011 0-0.021 0.002-0.030 0.006l0-0zM7.92 7.232c-0.032 0.016-0.048 0.048-0.048 0.096 0.016 0.032 0.064 0.048 0.096 0.032s0.048-0.064 0.032-0.096c0-0.032-0.048-0.048-0.080-0.032zM8.064 7.552c-0.048 0.016-0.064 0.064-0.048 0.096s0.064 0.048 0.096 0.032c0.032-0.016 0.048-0.048 0.032-0.096-0.016-0.032-0.048-0.048-0.080-0.032z"></path>
<path fill="#e2e2e2" d="M8.192 7.888c-0.032 0.016-0.048 0.048-0.032 0.080s0.064 0.048 0.096 0.032c0.032 0 0.048-0.048 0.032-0.080s-0.048-0.048-0.096-0.032z"></path>
<path fill="#e2e2e2" d="M8.336 8.208c-0.032 0.016-0.048 0.048-0.032 0.080 0.016 0.048 0.048 0.064 0.096 0.048 0.032-0.016 0.048-0.064 0.032-0.096-0.014-0.023-0.038-0.038-0.066-0.038-0.011 0-0.021 0.002-0.030 0.006l0.001-0z"></path>
<path fill="#e2e2e2" d="M8.224 3.296l-0.528-0.608c-0.048 0.048-0.112 0.032-0.16-0.016l-4.352 3.84c0.048 0.048 0.032 0.112-0.016 0.16l0.528 0.608 0.288 0.32 0.128-0.048-0.256-0.288-0.496-0.576c0.048-0.048 0.048-0.112 0.016-0.16l1.904-1.664 0.384-0.32 1.904-1.664c0.048 0.048 0.112 0.048 0.16 0.016l0.512 0.576 0.784 0.88c-0.048 0.048-0.048 0.112-0.016 0.16l-2.080 1.824 0.416-0.176 1.84-1.616c-0.064-0.064-0.064-0.144-0.016-0.176l-0.944-1.072z"></path>
<path fill="#e2e2e2" d="M2.592 6.56l1.040 1.184 0.128-0.048-0.976-1.12 4.896-4.304 1.888 2.16-1.648 1.44 0.384-0.16 1.456-1.264-2.064-2.352z"></path>
<path fill="#e2e2e2" d="M4.272 7.472l0.384-0.176 2.224-1.936-0.096-0.096zM5.28 7.024l0.384-0.16 1.44-1.264-0.096-0.096z"></path>
<path fill="#e2e2e2" d="M4.448 6.224l-0.064-0.064-0.256 0.224 0.064 0.064 0.080-0.080 0.24 0.272 0.080-0.064-0.24-0.272z"></path>
<path fill="#e2e2e2" d="M4.976 6.128c-0.048 0.048-0.112 0.032-0.176-0.032s-0.064-0.144-0.016-0.176c0.016-0.016 0.048-0.032 0.080-0.032v-0.080c-0.048 0-0.096 0-0.128 0.048-0.041 0.038-0.066 0.092-0.066 0.152s0.025 0.114 0.066 0.152l0 0c0.096 0.112 0.224 0.112 0.304 0.032 0.048-0.032 0.064-0.080 0.064-0.144h-0.096c0 0.032-0.016 0.064-0.032 0.080zM5.136 5.504l-0.080 0.064 0.032 0.224h-0.016l-0.112-0.128-0.080 0.064 0.288 0.32 0.080-0.064-0.080-0.080v-0.096l0.208 0.080 0.080-0.080-0.304-0.096zM5.504 5.648l-0.064-0.064 0.112-0.112-0.048-0.064-0.112 0.112-0.064-0.080 0.128-0.112-0.048-0.064-0.208 0.192 0.288 0.32 0.208-0.176-0.048-0.064zM5.76 5.072l-0.064-0.064-0.256 0.224 0.064 0.064 0.096-0.080 0.224 0.272 0.080-0.064-0.24-0.272zM6.224 4.208c-0.032 0.032-0.032 0.064 0 0.096s0.064 0.032 0.096 0c0.032-0.032 0.032-0.064 0-0.096-0.016-0.032-0.064-0.032-0.096 0z"></path>
<path fill="#e2e2e2" d="M6.464 4.464c-0.032 0.032-0.032 0.064 0 0.096s0.064 0.032 0.096 0c0.032-0.032 0.032-0.064 0-0.096-0.032-0.016-0.080-0.016-0.096 0z"></path>
<path fill="#e2e2e2" d="M6.688 4.736c-0.032 0.016-0.032 0.064 0 0.096s0.064 0.032 0.096 0c0.032-0.032 0.032-0.064 0-0.096s-0.064-0.032-0.096 0z"></path>
<path fill="#e2e2e2" d="M6.912 4.992c-0.032 0.032-0.032 0.064 0 0.096s0.064 0.032 0.096 0c0.032-0.032 0.032-0.064 0-0.096-0.016-0.016-0.064-0.016-0.096 0z"></path>
<path fill="#e2e2e2" d="M7.152 5.264c-0.032 0.032-0.032 0.064 0 0.096s0.064 0.032 0.096 0c0.032-0.032 0.032-0.064 0-0.096-0.016-0.032-0.064-0.032-0.096 0z"></path>
<path fill="#e2e2e2" d="M7.392 5.52c-0.032 0.032-0.032 0.080-0.016 0.112 0.032 0.032 0.064 0.032 0.096 0s0.032-0.064 0-0.096c-0.016-0.032-0.064-0.032-0.080-0.016z"></path>
<path fill="#e2e2e2" d="M27.040 23.968c-0.032 0.048-0.096 0.064-0.16 0.032l-0.416 0.688-0.736 1.216c0.048 0.032 0.064 0.096 0.032 0.16l4.96 2.976c0.032-0.048 0.096-0.064 0.16-0.032l0.736-1.216 0.384-0.592v-0.24l-2.48-1.488-2.48-1.504zM29.664 25.712l2.16 1.296c-0.032 0.048-0.016 0.128 0.032 0.16l-0.4 0.656-0.608 1.008c-0.018-0.010-0.039-0.016-0.061-0.016-0.040 0-0.075 0.019-0.098 0.048l-0 0-2.384-1.424-2.384-1.44c0.032-0.048 0.016-0.128-0.032-0.16l0.608-1.008 0.4-0.656c0.048 0.032 0.128 0.016 0.16-0.032l2.4 1.456 0.208 0.112z"></path>
<path fill="#e2e2e2" d="M25.2 26.112l5.808 3.504 0.992-1.664v-0.24l-1.040 1.712-5.584-3.36 1.472-2.448 5.152 3.088v-0.144l-5.184-3.12z"></path>
<path fill="#e2e2e2" d="M27.408 24.912l0.096 0.064-0.176 0.304 0.080 0.048 0.192-0.304 0.096 0.064 0.048-0.064-0.304-0.176z"></path>
<path fill="#e2e2e2" d="M28.144 25.248c-0.096-0.064-0.224-0.032-0.304 0.096s-0.032 0.24 0.064 0.304c0.048 0.032 0.096 0.032 0.16 0.016l-0.016-0.080c-0.032 0.016-0.064 0.016-0.096-0.016-0.048-0.032-0.064-0.096-0.016-0.176s0.112-0.096 0.16-0.064c0.032 0.016 0.032 0.032 0.048 0.064l0.080-0.032c-0.016-0.032-0.032-0.080-0.080-0.112zM28.304 25.568l0.080-0.16-0.080-0.048-0.224 0.384 0.080 0.048 0.064-0.096 0.080-0.032v0.208l0.096 0.048v-0.304l0.192-0.080-0.080-0.048zM28.432 25.952l0.24 0.144 0.048-0.064-0.16-0.096 0.048-0.096 0.128 0.080 0.048-0.064-0.128-0.080 0.048-0.080 0.144 0.096 0.048-0.080-0.24-0.144zM28.896 25.824l0.112 0.064-0.192 0.304 0.096 0.048 0.176-0.304 0.112 0.064 0.032-0.080-0.288-0.176zM30.16 26.176c-0.032-0.016-0.080-0.016-0.096 0.016s-0.016 0.080 0.016 0.096c0.032 0.016 0.080 0.016 0.096-0.016 0.032-0.032 0.016-0.080-0.016-0.096z"></path>
<path fill="#e2e2e2" d="M29.984 26.48c-0.032-0.016-0.080-0.016-0.096 0.016s-0.016 0.080 0.016 0.096c0.032 0.016 0.080 0.016 0.096-0.016 0.032-0.032 0.016-0.080-0.016-0.096z"></path>
<path fill="#e2e2e2" d="M29.808 26.768c-0.032-0.016-0.080-0.016-0.096 0.016s-0.016 0.080 0.016 0.096 0.080 0.016 0.096-0.016c0.016-0.032 0.016-0.064-0.016-0.096z"></path>
<path fill="#e2e2e2" d="M29.616 27.072c-0.032-0.016-0.080-0.016-0.096 0.016s-0.016 0.080 0.016 0.096c0.032 0.016 0.080 0.016 0.096-0.016 0.032-0.032 0.016-0.064-0.016-0.096z"></path>
<path fill="#e2e2e2" d="M29.44 27.376c-0.032-0.016-0.080-0.016-0.096 0.016s-0.016 0.080 0.016 0.096c0.032 0.016 0.080 0.016 0.096-0.016s0.016-0.064-0.016-0.096z"></path>
<path fill="#e2e2e2" d="M29.248 27.68c-0.032-0.016-0.080-0.016-0.096 0.016s-0.016 0.080 0.016 0.096c0.032 0.016 0.080 0.016 0.096-0.016 0.032-0.032 0.032-0.080-0.016-0.096z"></path>
<path fill="#e2e2e2" d="M30.336 25.648l1.664 0.4v-0.144l-2.048-0.48zM27.648 22.496c-0.016 0.064-0.080 0.096-0.128 0.080l-0.192 0.784-0.096 0.416 0.112 0.064 0.080-0.352 0.176-0.752c0.064 0.016 0.128-0.016 0.128-0.080l2.464 0.576 0.48 0.128 1.328 0.32v-0.16l-1.536-0.368-2.816-0.656zM31.264 26.208l0.736 0.176v-0.128l-1.088-0.256z"></path>
<path fill="#e2e2e2" d="M26.896 23.584l0.112 0.064 0.352-1.44 4.64 1.104v-0.144l-4.736-1.12zM27.856 24.16l2.864 0.672 0.032-0.112-3.264-0.784zM28.8 24.72l1.856 0.448 0.016-0.128-2.24-0.528zM31.504 24.288l0.496 0.112v-0.128l-0.48-0.112zM31.328 24.976l0.672 0.16v-0.128l-0.64-0.16zM31.248 25.312l0.752 0.176v-0.144l-0.72-0.16z"></path>
<path fill="#e2e2e2" d="M28.272 23.28l0.128 0.032-0.080 0.352 0.096 0.016 0.080-0.352 0.112 0.032 0.016-0.080-0.32-0.080z"></path>
<path fill="#e2e2e2" d="M29.072 23.376c-0.112-0.032-0.224 0.032-0.256 0.176s0.032 0.24 0.144 0.272c0.048 0.016 0.112 0 0.144-0.032l-0.032-0.064c-0.032 0.016-0.048 0.032-0.096 0.016-0.064-0.016-0.096-0.080-0.064-0.16 0.016-0.080 0.080-0.128 0.144-0.112 0.032 0 0.048 0.032 0.064 0.048l0.064-0.048c-0.016-0.048-0.048-0.080-0.112-0.096zM29.504 23.488l-0.176 0.144 0.048-0.176-0.112-0.032-0.096 0.432 0.096 0.032 0.032-0.128 0.064-0.048 0.064 0.208 0.096 0.016-0.080-0.288 0.16-0.144zM29.568 23.952l0.272 0.064 0.032-0.080-0.176-0.048 0.016-0.096 0.144 0.032 0.016-0.080-0.144-0.032 0.016-0.080 0.176 0.032 0.016-0.080-0.256-0.064zM29.984 23.68l0.112 0.032-0.080 0.352 0.096 0.016 0.080-0.352 0.112 0.032 0.032-0.080-0.336-0.080z"></path>
<path fill="#e2e2e2" d="M31.28 23.648c-0.032-0.016-0.080 0.016-0.080 0.048-0.016 0.032 0.016 0.080 0.048 0.080 0.032 0.016 0.080-0.016 0.080-0.048 0.016-0.032 0-0.080-0.048-0.080z"></path>
<path fill="#e2e2e2" d="M31.2 23.984c-0.032-0.016-0.080 0.016-0.080 0.048-0.016 0.032 0.016 0.080 0.048 0.080 0.032 0.016 0.080-0.016 0.080-0.048 0.016-0.032 0-0.064-0.048-0.080z"></path>
<path fill="#e2e2e2" d="M31.12 24.32c-0.032-0.016-0.080 0.016-0.080 0.048-0.016 0.032 0.016 0.080 0.048 0.080 0.032 0.016 0.080-0.016 0.080-0.048 0.016-0.032 0-0.064-0.048-0.080z"></path>
<path fill="#e2e2e2" d="M31.040 24.672c-0.032-0.016-0.080 0.016-0.080 0.048-0.016 0.032 0.016 0.080 0.048 0.080s0.080-0.016 0.080-0.048c0.016-0.048 0-0.080-0.048-0.080z"></path>
<path fill="#e2e2e2" d="M30.96 25.008c-0.032-0.016-0.080 0.016-0.080 0.048-0.016 0.032 0.016 0.080 0.048 0.080 0.032 0.016 0.080-0.016 0.080-0.048 0.016-0.032 0-0.064-0.048-0.080z"></path>
<path fill="#e2e2e2" d="M30.88 25.36c-0.032-0.016-0.080 0.016-0.080 0.048-0.016 0.032 0.016 0.080 0.048 0.080 0.032 0.016 0.080-0.016 0.080-0.048 0.016-0.032 0-0.080-0.048-0.080z"></path>
<path fill="#e2e2e2" d="M0 27.056v0.144l0.048-0.080c-0.016-0.016-0.048-0.032-0.048-0.064zM0 26.96v0z"></path>
<path fill="#e2e2e2" d="M0 26.56v0.144l0.432 0.272-0.432 0.736v0.24l0.608-1.024z"></path>
<path fill="#e2e2e2" d="M0.864 26.128l0.32-1.392 0.176-0.784c-0.064-0.016-0.096-0.080-0.080-0.128l-1.28-0.304v0.144l1.136 0.272c-0.016 0.064 0.016 0.128 0.080 0.144l-0.176 0.752-0.272 1.152c-0.064-0.016-0.128 0.016-0.128 0.080l-0.64-0.16v0.144l0.72 0.176c0.016-0.064 0.080-0.112 0.144-0.096z"></path>
<path fill="#e2e2e2" d="M1.856 23.616l-1.856-0.448v0.144l1.696 0.4-0.656 2.784-1.040-0.24v0.128l1.136 0.272z"></path>
<path fill="#e2e2e2" d="M0.8 24.464l-0.8-0.192v0.128l0.784 0.192zM0.64 25.152l-0.64-0.144v0.128l0.608 0.144zM0.56 25.488l-0.56-0.144v0.144l0.528 0.128z"></path>
<path fill="#e2e2e2" d="M4.144 2.48l0.032-2.48h-0.128l-0.048 2.368-1.568 0.272-1.024-2.64h-0.144l1.088 2.8z"></path>
<path fill="#e2e2e2" d="M1.424 0.256c0.016 0.048 0.032 0.096 0.048 0.128l0.576-0.384h-0.24l-0.384 0.256zM1.776 1.152v0.032l1.776-1.184h-0.24l-1.568 1.040c0.016 0.032 0.032 0.080 0.032 0.112zM4.128 0.48l-2.080 1.392c0.016 0.032 0.032 0.080 0.048 0.128l2.032-1.36v-0.16zM2.4 2.752l1.696-1.136c0-0.048 0-0.112 0.016-0.16l-1.76 1.184c0.016 0.032 0.032 0.080 0.048 0.112z"></path>
<path fill="#e2e2e2" d="M22.768 21.952l0.112 0.080 1.568-2.096 0.192 0.144-1.584 2.080 0.112 0.080 1.648-2.192-0.384-0.288zM23.952 23.328l-2.816 2.512-1.28-0.96 1.664-3.392 0.048-0.064-0.112-0.080-0.048 0.064-1.712 3.52 1.44 1.088 2.912-2.592 0.048-0.080-0.096-0.080z"></path>
<path fill="#e2e2e2" d="M21.312 21.36l2.816 2.128 0.288-0.384-2.816-2.128-0.288 0.384zM24.24 23.12l-0.128 0.176-2.592-1.968 0.128-0.176 2.592 1.968z"></path>
<path fill="#e2e2e2" d="M20.928 22.512c0 0.016 0 0.016 0 0-0.032 0.048-0.048 0.080-0.064 0.112l3.12 0.752c0.016-0.016 0.016-0.032 0.032-0.032 0.032-0.048 0.016-0.064 0-0.096l-3.088-0.736zM20.512 23.392l-0.016 0.016 2.72 0.656c0.016-0.016 0.032-0.016 0.032-0.032 0.032-0.032 0.064-0.048 0.080-0.080l-2.784-0.672c0 0.048-0.016 0.080-0.032 0.112z"></path>
<path fill="#e2e2e2" d="M20.112 24.192l2.384 0.576 0.112-0.112-2.432-0.576c-0.032 0.032-0.048 0.080-0.064 0.112z"></path>
<path fill="#e2e2e2" d="M19.76 24.928l1.984 0.48c0.032-0.032 0.080-0.080 0.128-0.112l-2.064-0.496c-0.016 0.048-0.032 0.096-0.048 0.128z"></path>
<path fill="#e2e2e2" d="M6.64 25.712l-0.56-0.128 0.272-1.184-0.128-0.032-0.304 1.328 0.688 0.16c0.080 0.016 0.144 0.064 0.176 0.144l-2.416-0.56c0.064-0.048 0.128-0.064 0.208-0.048l0.688 0.16 0.304-1.312-0.128-0.048-0.272 1.184-0.56-0.128c-0.16-0.032-0.336 0.048-0.416 0.192l-0.048 0.080 2.8 0.624v-0.080c-0.020-0.171-0.141-0.308-0.301-0.351l-0.003-0.001zM7.504 19.376l-0.944-0.208c-0.063-0.014-0.134-0.023-0.208-0.023-0.46 0-0.845 0.322-0.943 0.752l-0.001 0.006-0.656 2.912c0.048 0 0.080 0.016 0.128 0.032l0.656-2.912c0.081-0.372 0.407-0.647 0.798-0.647 0.069 0 0.135 0.009 0.199 0.024l-0.006-0.001 0.896 0.208c0.448 0.096 0.736 0.544 0.624 0.992l-0.656 2.928c0.048 0.016 0.080 0.016 0.128 0.032l0.656-2.928c0.019-0.072 0.031-0.155 0.031-0.241 0-0.439-0.294-0.81-0.696-0.926l-0.007-0.002zM3.84 22.896l0.064 0.016 0.048-0.096c0-0.016 0.032-0.032 0.048-0.048l0.112-0.496c-0.048 0.032-0.096 0.048-0.144 0.064l-0.128 0.56zM8.352 23.184l-0.096 0.496c0.016 0.032 0.032 0.080 0.016 0.128 0 0.032-0.016 0.048-0.016 0.080l0.096 0.016 0.128-0.592c-0.016 0-0.016-0.016-0.016-0.016-0.048-0.016-0.080-0.064-0.112-0.112z"></path>
<path fill="#e2e2e2" d="M8.608 19.264l-3.040-0.688c-0.4-0.096-0.8 0.16-0.896 0.56l-0.464 2.080c0.048 0.016 0.080 0.064 0.112 0.096l0.48-2.144c0.061-0.277 0.304-0.481 0.595-0.481 0.050 0 0.099 0.006 0.146 0.018l-0.004-0.001 3.040 0.688c0.336 0.080 0.544 0.4 0.464 0.736l-0.496 2.24 0.048-0.048c0.032-0.032 0.080-0.064 0.128-0.080l0.464-2.080c0.080-0.4-0.176-0.8-0.576-0.896z"></path>
<path fill="#e2e2e2" d="M6.944 19.584c-0.224-0.048-0.416 0.016-0.448 0.16s0.112 0.288 0.336 0.336c0.224 0.048 0.416-0.016 0.448-0.16 0.032-0.128-0.112-0.272-0.336-0.336zM6.848 19.968c-0.16-0.032-0.256-0.128-0.24-0.192 0.016-0.048 0.128-0.096 0.304-0.064 0.16 0.032 0.256 0.128 0.24 0.192-0.016 0.048-0.128 0.096-0.304 0.064z"></path>
<path fill="#e2e2e2" d="M3.776 22.304l-0.128-0.032-0.208 0.912 0.384 0.080 0.032-0.128-0.256-0.048zM8.512 24.192l-0.304-0.064-0.016 0.128 0.416 0.096 0.208-0.896-0.128-0.032z"></path>
<path fill="#e2e2e2" d="M3.488 22.224l-0.128-0.016-0.288 1.248 0.672 0.16 0.032-0.128-0.544-0.128zM8.736 24.608l-0.592-0.144-0.032 0.128 0.72 0.16 0.272-1.232-0.128-0.032z"></path>
<path fill="#e2e2e2" d="M4.192 21.136l-0.704-0.16c-0.16-0.032-0.304 0.064-0.336 0.208l-0.16 0.688c-0.032 0.16 0.064 0.304 0.208 0.336l0.704 0.16c0.16 0.032 0.304-0.064 0.336-0.208l0.16-0.688c0.004-0.017 0.006-0.037 0.006-0.058 0-0.133-0.090-0.244-0.212-0.278l-0.002-0zM4.272 21.44l-0.16 0.688c-0.016 0.080-0.096 0.128-0.176 0.112l-0.704-0.16c-0.067-0.015-0.116-0.074-0.116-0.144 0-0.011 0.001-0.023 0.004-0.033l-0 0.001 0.16-0.688c0.016-0.080 0.096-0.128 0.176-0.112l0.704 0.16c0.080 0.016 0.128 0.096 0.112 0.176zM9.52 22.352l-0.704-0.16c-0.16-0.048-0.304 0.048-0.336 0.208l-0.16 0.688c-0.032 0.16 0.064 0.304 0.208 0.336l0.704 0.16c0.16 0.032 0.304-0.064 0.336-0.208l0.16-0.688c0.048-0.16-0.048-0.304-0.208-0.336zM9.6 22.656l-0.16 0.688c-0.016 0.080-0.096 0.128-0.176 0.112l-0.704-0.16c-0.067-0.015-0.116-0.074-0.116-0.144 0-0.011 0.001-0.023 0.004-0.033l-0 0.001 0.16-0.688c0.016-0.080 0.096-0.128 0.176-0.112l0.704 0.16c0.080 0.016 0.144 0.096 0.112 0.176z"></path>
<path fill="#e2e2e2" d="M8.128 23.52l-3.936-0.88c-0.16-0.032-0.304 0.064-0.336 0.224l-0.16 0.688c-0.048 0.192 0.048 0.368 0.208 0.416l3.936 0.88c0.16 0.032 0.32-0.096 0.352-0.288l0.16-0.688c0.032-0.16-0.064-0.32-0.224-0.352zM8.208 23.84l-0.16 0.688c-0.032 0.112-0.112 0.208-0.192 0.176l-3.936-0.88c-0.080-0.016-0.128-0.128-0.096-0.256l0.16-0.688c0.016-0.080 0.096-0.128 0.192-0.112l3.936 0.88c0.064 0.016 0.128 0.112 0.096 0.192z"></path>
<path fill="#e2e2e2" d="M18.384 3.92h-0.144c-0.064 0-0.128 0.048-0.128 0.128v0.208h0.144v-0.192h0.112v0.192h0.144v-0.208c-0.016-0.080-0.064-0.128-0.128-0.128z"></path>
<path fill="#e2e2e2" d="M18.362 5.667h0.144v1.312h-0.144zM18.106 5.667h0.144v1.312h-0.144z"></path>
<path fill="#e2e2e2" d="M22.752 3.904h-0.144c-0.064 0-0.128 0.048-0.128 0.128v0.208h0.144v-0.192h0.112v0.192h0.144v-0.208c0-0.064-0.048-0.128-0.128-0.128z"></path>
<path fill="#e2e2e2" d="M22.896 6.88h-4.8c-0.064 0-0.112 0.048-0.128 0.112-0.064 0.352-0.128 0.768-0.128 0.8 0 0.064 0.048 0.128 0.128 0.128h5.056c0.064 0 0.128-0.048 0.128-0.128 0-0.032-0.064-0.448-0.128-0.8 0-0.064-0.064-0.112-0.128-0.112zM18 7.776c0.016-0.096 0.080-0.496 0.112-0.752h4.768c0.048 0.256 0.112 0.656 0.128 0.752h-5.008z"></path>
<path fill="#e2e2e2" d="M22.976 4.176h-4.96c-0.064 0-0.128 0.048-0.128 0.128v1.28c0 0.064 0.048 0.128 0.128 0.128h4.96c0.064 0 0.128-0.048 0.128-0.128v-1.28c0-0.064-0.048-0.128-0.128-0.128zM18.032 5.568v-1.248h4.928v1.248h-4.928z"></path>
<path fill="#e2e2e2" d="M18.992 4.656h-0.128v0.48h0.144c0.144 0 0.224-0.080 0.224-0.24s-0.096-0.24-0.24-0.24zM18.992 5.056h-0.016v-0.304h0.016c0.080 0 0.128 0.032 0.128 0.144s-0.048 0.16-0.128 0.16z"></path>
<path fill="#e2e2e2" d="M19.888 4.816c0-0.112-0.080-0.144-0.176-0.144h-0.176v0.48h0.112v-0.176h0.064l0.096 0.176h0.112l-0.112-0.192c0.048-0.032 0.080-0.080 0.080-0.144zM19.696 4.88h-0.048v-0.128h0.048c0.048 0 0.080 0.016 0.080 0.064 0.016 0.048-0.016 0.064-0.080 0.064zM20.096 5.040v-0.096h0.16v-0.096h-0.16v-0.096h0.192v-0.096h-0.304v0.48h0.304v-0.096zM20.592 5.056c-0.064 0-0.112-0.064-0.112-0.16s0.048-0.16 0.112-0.16c0.032 0 0.048 0.016 0.080 0.032l0.064-0.064c-0.036-0.038-0.087-0.063-0.144-0.064h-0c-0.128 0-0.224 0.096-0.224 0.256s0.096 0.24 0.224 0.24c0.064 0 0.112-0.032 0.144-0.064l-0.064-0.064c-0.016 0.032-0.048 0.048-0.080 0.048zM21.12 4.656h-0.368v0.096h0.128v0.384h0.112v-0.384h0.128zM21.376 4.656c-0.128 0-0.208 0.096-0.208 0.24 0 0.16 0.080 0.24 0.208 0.24s0.208-0.096 0.208-0.24c0-0.16-0.080-0.24-0.208-0.24zM21.376 5.056c-0.064 0-0.112-0.064-0.112-0.16s0.048-0.144 0.112-0.144c0.064 0 0.112 0.064 0.112 0.144-0.016 0.096-0.048 0.16-0.112 0.16zM22.032 4.8c0-0.112-0.080-0.144-0.176-0.144h-0.176v0.48h0.112v-0.176h0.064l0.096 0.176h0.112l-0.112-0.192c0.048-0.028 0.080-0.080 0.080-0.139 0-0.002-0-0.004-0-0.006v0zM21.84 4.88h-0.048v-0.128h0.048c0.048 0 0.080 0.016 0.080 0.064 0 0.032-0.032 0.064-0.080 0.064z"></path>
<path fill="#e2e2e2" d="M12.864 25.168l-0.144 0.064c-0.064 0.032-0.096 0.096-0.064 0.16l0.080 0.192 0.128-0.064-0.064-0.16 0.112-0.048 0.080 0.176 0.128-0.064-0.080-0.192c-0.048-0.064-0.112-0.080-0.176-0.064z"></path>
<path fill="#e2e2e2" d="M16.928 23.408l-0.144 0.064c-0.064 0.032-0.096 0.096-0.064 0.16l0.080 0.192 0.128-0.064-0.080-0.176 0.112-0.048 0.080 0.176 0.128-0.064-0.080-0.192c-0.016-0.048-0.096-0.080-0.16-0.048z"></path>
<path fill="#e2e2e2" d="M18.4 26.128c-0.032-0.064-0.096-0.080-0.16-0.064l-4.464 1.936c-0.064 0.032-0.096 0.096-0.064 0.16 0.080 0.336 0.192 0.752 0.208 0.784 0.032 0.064 0.096 0.096 0.16 0.064l4.704-2.032c0.064-0.032 0.096-0.096 0.064-0.16-0.123-0.174-0.271-0.398-0.413-0.627l-0.035-0.061zM14.032 28.88c-0.032-0.096-0.128-0.496-0.192-0.736l4.432-1.92c0.144 0.224 0.368 0.56 0.416 0.64l-4.656 2.016z"></path>
<path fill="#e2e2e2" d="M17.408 23.632c-0.032-0.064-0.096-0.096-0.16-0.064l-4.624 2c-0.064 0.032-0.096 0.096-0.064 0.16l0.512 1.168c0.032 0.064 0.096 0.096 0.16 0.064l4.624-2c0.064-0.032 0.096-0.096 0.064-0.16l-0.512-1.168zM13.2 26.832l-0.496-1.136 4.592-1.984 0.496 1.136-4.592 1.984z"></path>
<path fill="#e2e2e2" d="M13.728 25.616l-0.128 0.048 0.192 0.432 0.128-0.064c0.128-0.048 0.192-0.16 0.128-0.304s-0.176-0.176-0.32-0.112zM13.888 25.968l-0.016 0.016-0.112-0.272 0.016-0.016c0.080-0.032 0.144-0.016 0.176 0.080s0 0.16-0.064 0.192z"></path>
<path fill="#e2e2e2" d="M14.624 25.392c-0.048-0.112-0.128-0.112-0.224-0.064l-0.16 0.064 0.192 0.432 0.096-0.048-0.064-0.16 0.048-0.016 0.144 0.112 0.112-0.048-0.176-0.128c0.048-0.032 0.064-0.080 0.032-0.144zM14.48 25.52l-0.048 0.016-0.048-0.128 0.048-0.016c0.048-0.016 0.080-0.016 0.112 0.016 0 0.064-0.016 0.096-0.064 0.112zM14.912 25.52l-0.048-0.096 0.144-0.064-0.032-0.080-0.144 0.064-0.048-0.096 0.176-0.080-0.032-0.080-0.272 0.128 0.192 0.432 0.272-0.128-0.032-0.080zM15.36 25.328c-0.064 0.032-0.128 0-0.16-0.096-0.032-0.080-0.016-0.16 0.048-0.192 0.032-0.016 0.064-0.016 0.096 0l0.016-0.080c-0.024-0.008-0.051-0.012-0.080-0.012s-0.056 0.004-0.082 0.013l0.002-0.001c-0.112 0.048-0.176 0.176-0.112 0.32s0.192 0.176 0.304 0.128c0.048-0.016 0.096-0.064 0.112-0.128l-0.080-0.032c0 0.032-0.032 0.064-0.064 0.080zM15.744 24.832l-0.032-0.080-0.336 0.144 0.032 0.096 0.112-0.064 0.16 0.352 0.096-0.032-0.144-0.352zM15.936 24.64c-0.112 0.048-0.16 0.16-0.096 0.304s0.176 0.192 0.304 0.144c0.112-0.048 0.16-0.176 0.096-0.32-0.064-0.128-0.192-0.176-0.304-0.128zM16.096 25.008c-0.064 0.032-0.128-0.016-0.16-0.096s-0.016-0.16 0.032-0.176c0.064-0.032 0.128 0.016 0.16 0.096s0.032 0.16-0.032 0.176zM16.608 24.528c-0.048-0.096-0.128-0.096-0.224-0.064l-0.16 0.064 0.192 0.432 0.096-0.048-0.064-0.16 0.048-0.016 0.16 0.112 0.112-0.048-0.176-0.128c0.032-0.032 0.048-0.080 0.016-0.144zM16.464 24.672l-0.048 0.016-0.048-0.128 0.048-0.016c0.048-0.016 0.080-0.016 0.112 0.016 0 0.048-0.016 0.080-0.064 0.112z"></path>
<path fill="#e2e2e2" d="M26.272 4.672l-0.784-0.048 0.032-0.512-0.128-0.016-0.032 0.656 1.040 0.064 0.032-0.656-0.128-0.016z"></path>
<path fill="#e2e2e2" d="M26.624 4.048s0 0.016 0 0l-1.408-0.064s-0.016 0-0.016-0.016v-0.144h-0.128v0.144c0 0.080 0.064 0.144 0.128 0.144l1.392 0.080c0.080 0 0.144-0.064 0.144-0.128v-0.144h-0.128l0.016 0.128zM28.496 1.984l-0.048 0.768 1.232 0.624 0.176 0.016 0.096-1.888-0.176-0.016-1.28 0.496zM29.824 1.632l-0.080 1.632h-0.016l-1.216-0.624 0.032-0.528 1.28-0.48z"></path>
<path fill="#e2e2e2" d="M28.448 0.72l-4.384-0.24c-0.112 0-0.208 0.080-0.208 0.192l-0.16 2.944c0 0.112 0.080 0.208 0.192 0.208l4.384 0.24c0.112 0 0.208-0.080 0.208-0.192l0.16-2.944c0-0.112-0.080-0.208-0.192-0.208zM28.336 3.856c0 0.032-0.032 0.064-0.064 0.064l-4.384-0.24c-0.032 0-0.064-0.032-0.064-0.064l0.16-2.944c0-0.032 0.032-0.064 0.064-0.064l4.384 0.24c0.032 0 0.064 0.032 0.064 0.064l-0.16 2.944z"></path>
<path fill="#e2e2e2" d="M27.072 0.192l-1.776-0.096c-0.080 0-0.144 0.064-0.144 0.128l-0.032 0.448 2.064 0.112 0.016-0.448c0.016-0.080-0.048-0.144-0.128-0.144zM27.072 0.64l-1.792-0.096 0.016-0.304s0-0.016 0.016-0.016l1.776 0.096s0.016 0 0.016 0.016l-0.032 0.304z"></path>
<path fill="#e2e2e2" d="M26.336 2.032l-1.92-0.096c-0.080 0-0.144 0.064-0.144 0.128l-0.080 1.296c0 0.080 0.064 0.144 0.128 0.144l1.92 0.096c0.080 0 0.144-0.064 0.144-0.128l0.064-1.296c0.032-0.080-0.032-0.144-0.112-0.144zM26.272 3.472s-0.016 0.016 0 0l-1.936-0.096s-0.016 0-0.016-0.016l0.064-1.296s0-0.016 0.016-0.016l1.92 0.096s0.016 0 0.016 0.016l-0.064 1.312z"></path>
<path fill="#e2e2e2" d="M26.672 1.040c-0.16-0.016-0.288 0.112-0.304 0.272s0.112 0.288 0.272 0.304c0.16 0.016 0.288-0.112 0.304-0.272 0-0.16-0.128-0.288-0.272-0.304zM26.64 1.488c-0.080 0-0.144-0.080-0.144-0.16s0.080-0.144 0.16-0.144 0.144 0.080 0.144 0.16-0.080 0.144-0.16 0.144z"></path>
<path fill="#e2e2e2" d="M27.456 1.088c-0.16-0.016-0.288 0.112-0.304 0.272s0.112 0.288 0.272 0.304c0.16 0.016 0.288-0.112 0.304-0.272 0-0.16-0.112-0.304-0.272-0.304zM27.424 1.52c-0.080 0-0.144-0.080-0.144-0.16s0.080-0.144 0.16-0.144 0.144 0.080 0.144 0.16-0.064 0.144-0.16 0.144z"></path>
<path fill="#e2e2e2" d="M27.92 0h-0.944c0.139 0.062 0.301 0.097 0.472 0.097s0.333-0.036 0.48-0.1l-0.008 0.003z"></path>
<path fill="#e2e2e2" d="M0.208 19.248l-0.112 0.064 0.224 0.464-0.32 0.16v0.144l0.496-0.24z"></path>
<path fill="#e2e2e2" d="M0.432 19.008l-0.064-0.128-0.112 0.064 0.064 0.128v0.016l-0.32 0.144v0.144l0.368-0.176c0.080-0.032 0.112-0.128 0.064-0.192zM1.824 15.296l-0.896 1.056 0.336 0.704 1.392-0.064 0.16-0.080-0.816-1.696-0.176 0.080zM2.64 16.864l-1.36 0.064-0.24-0.48 0.88-1.056 0.016-0.016 0.72 1.472-0.016 0.016z"></path>
<path fill="#e2e2e2" d="M1.84 18l-1.296-2.64c-0.048-0.096-0.16-0.144-0.256-0.096l-0.288 0.144v0.144l0.336-0.16c0.032-0.016 0.064 0 0.080 0.032l1.296 2.64c0.016 0.032 0 0.064-0.032 0.080l-1.68 0.832v0.144l1.744-0.864c0.096-0.048 0.144-0.16 0.096-0.256z"></path>
<path fill="#e2e2e2" d="M16.032 10.688c-0.048 0.032-0.080 0.064-0.128 0.112-0.064 0.064-0.16 0.176-0.224 0.208-0.096 0.064-0.208 0.032-0.288-0.080-0.144-0.224-0.384-0.752-0.32-0.88 0.061-0.097 0.13-0.181 0.208-0.256l0-0c0.064-0.080 0.128-0.144 0.176-0.208 0.016-0.048 0.032-0.096 0.016-0.144-0.026-0.055-0.058-0.103-0.096-0.144l0 0c-0.048 0.016-0.096 0.016-0.128 0.016 0.032 0.064 0.080 0.128 0.096 0.176 0 0 0 0.016-0.016 0.032-0.032 0.048-0.096 0.112-0.16 0.192-0.080 0.096-0.176 0.192-0.224 0.272-0.128 0.256 0.336 1.008 0.336 1.008 0.128 0.192 0.336 0.24 0.512 0.096h0.016l0.016-0.016c0.048-0.064 0.112-0.128 0.176-0.176 0.064-0.064 0.128-0.112 0.208-0.16 0 0 0.016 0 0.016-0.016-0.080 0-0.144 0-0.192-0.032zM16.48 9.008c-0.096 0-0.224 0.048-0.352 0.080-0.080 0.032-0.16 0.048-0.208 0.064h-0.048c-0.059-0.053-0.108-0.117-0.142-0.188l-0.002-0.004c-0.016 0.048-0.048 0.096-0.064 0.144 0.032 0.048 0.080 0.112 0.096 0.144 0.048 0.048 0.112 0.048 0.176 0.032s0.144-0.032 0.224-0.064c0.112-0.032 0.24-0.080 0.32-0.080 0.144 0 0.512 0.432 0.656 0.656 0.032 0.064 0.048 0.128 0.048 0.176-0.016 0.048-0.032 0.096-0.080 0.128-0.080 0.048-0.208 0.080-0.288 0.112-0.048 0.016-0.112 0.048-0.16 0.080-0.022 0.086-0.061 0.161-0.113 0.225l0.001-0.001c0.016-0.016 0.048-0.032 0.080-0.064 0.080-0.048 0.144-0.080 0.224-0.112s0.16-0.064 0.256-0.096h0.016c0.016 0 0.032-0.016 0.032-0.016 0.080-0.048 0.128-0.128 0.144-0.208 0.016-0.096 0-0.176-0.064-0.272 0.016-0.032-0.464-0.752-0.752-0.736z"></path>
<path fill="#e2e2e2" d="M16.976 12.464c-0.064-0.096-0.16-0.224-0.256-0.368-0.192-0.272-0.4-0.576-0.576-0.8-0.112-0.128-0.224-0.256-0.288-0.304l-0.016 0.016c-0.016 0.032-0.048 0.048-0.080 0.080 0.032 0.016 0.144 0.112 0.288 0.288 0.176 0.224 0.384 0.528 0.576 0.8 0.096 0.144 0.192 0.272 0.256 0.368 0.464 0.624 1.184 1.36 1.456 1.616l0.112-0.064c-0.256-0.256-1.008-0.992-1.472-1.632zM17.792 11.44c-0.16-0.272-0.368-0.608-0.496-0.864-0.096-0.192-0.128-0.32-0.144-0.352-0.016 0-0.016 0.016-0.032 0.016-0.032 0.016-0.064 0.032-0.080 0.032 0.016 0.080 0.064 0.208 0.144 0.368 0.128 0.256 0.336 0.608 0.512 0.88 0.080 0.144 0.16 0.272 0.208 0.368 0.416 0.736 0.768 1.696 0.864 2l0.112-0.080c-0.112-0.336-0.464-1.264-0.864-1.984-0.064-0.112-0.144-0.24-0.224-0.384z"></path>
<path fill="#e2e2e2" d="M14.96 8.32c-0.224 0.144-0.272 0.48-0.112 0.752 0.176 0.256 0.496 0.352 0.72 0.208s0.272-0.48 0.112-0.752c-0.176-0.256-0.496-0.352-0.72-0.208zM15.504 9.168c-0.176 0.112-0.416 0.032-0.544-0.176-0.128-0.192-0.096-0.448 0.064-0.56 0.176-0.112 0.416-0.032 0.544 0.176s0.096 0.448-0.064 0.56z"></path>
<path fill="#e2e2e2" d="M17.68 14.528l0.192 0.288 0.112-0.064-0.128-0.192 1.584-1.024 0.128 0.192 0.096-0.080-0.176-0.288z"></path>
<path fill="#e2e2e2" d="M19.888 13.44l-2.288 1.488c-0.128 0.080-0.16 0.256-0.080 0.384l0.128 0.192 2.752-1.776-0.128-0.192c-0.096-0.128-0.272-0.176-0.384-0.096zM17.68 15.312l-0.048-0.080c-0.048-0.064-0.016-0.16 0.048-0.192l2.288-1.472c0.064-0.048 0.16-0.016 0.192 0.048l0.048 0.080-2.528 1.616z"></path>
<path fill="#e2e2e2" d="M15.792 9.616c-0.173 0.116-0.285 0.311-0.285 0.532 0 0.123 0.034 0.237 0.094 0.335l-0.002-0.003c0.116 0.173 0.311 0.285 0.532 0.285 0.123 0 0.237-0.034 0.334-0.094l-0.003 0.002c0.173-0.116 0.285-0.311 0.285-0.532 0-0.123-0.034-0.237-0.094-0.335l0.002 0.003c-0.112-0.176-0.306-0.291-0.527-0.291-0.125 0-0.241 0.037-0.339 0.1l0.002-0.001zM16.4 10.56c-0.24 0.144-0.544 0.080-0.688-0.16-0.048-0.074-0.077-0.166-0.077-0.263 0-0.17 0.087-0.32 0.219-0.407l0.002-0.001c0.076-0.047 0.169-0.076 0.268-0.076 0.173 0 0.327 0.086 0.419 0.218l0.001 0.002c0.144 0.224 0.080 0.528-0.144 0.688z"></path>
<path fill="#e2e2e2" d="M16.944 11.408c-0.176 0.112-0.336 0.032-0.336 0.032l-0.064 0.128c0.016 0 0.208 0.096 0.416 0l1.6 2.48 0.112-0.064-1.664-2.592-0.064 0.016z"></path>
<path fill="#e2e2e2" d="M17.12 11.12s0.016 0.16-0.16 0.288l0.064 0.112c0.256-0.16 0.224-0.4 0.224-0.416l-0.128 0.016z"></path>
<path fill="#e2e2e2" d="M20.912 0.752c0-0.144 0.016-0.416 0.032-0.752h-0.128c-0.016 0.304-0.032 0.576-0.032 0.72l0.128 0.032zM21.408 0.88c0.096-0.16 0.256-0.496 0.448-0.88h-0.144c-0.176 0.384-0.352 0.704-0.432 0.848l0.128 0.032z"></path>
<path fill="#e2e2e2" d="M19.984 0.832l0.112 0.032 0.064-0.208 1.824 0.48-0.064 0.208 0.128 0.032 0.096-0.336-2.080-0.544z"></path>
<path fill="#e2e2e2" d="M22.352 1.392l-2.624-0.688c-0.144-0.032-0.304 0.048-0.336 0.192l-0.064 0.224 3.152 0.832 0.064-0.224c0.004-0.019 0.007-0.040 0.007-0.062 0-0.127-0.082-0.235-0.197-0.273l-0.002-0.001zM22.416 1.696l-0.032 0.096-2.912-0.768 0.032-0.096c0.011-0.061 0.063-0.106 0.126-0.106 0.018 0 0.035 0.004 0.051 0.010l-0.001-0 2.624 0.688c0.080 0.032 0.128 0.096 0.112 0.176z"></path>
<path fill="#e2e2e2" d="M22.208 27.376h-0.032c-0.064 0.016-0.144 0.016-0.24 0.016-0.128 0-0.272 0-0.368 0.032-0.272 0.080-0.512 0.912-0.512 0.928-0.064 0.224 0.048 0.416 0.272 0.448h0.032c0.096 0 0.176 0 0.272 0.016 0.080 0 0.176 0.016 0.256 0.048h0.016c-0.046-0.042-0.079-0.096-0.095-0.158l-0.001-0.002c-0.064-0.016-0.112-0.016-0.176-0.016-0.080 0-0.24 0-0.32-0.016-0.112-0.032-0.16-0.144-0.128-0.272 0.064-0.272 0.288-0.8 0.432-0.832 0.080-0.016 0.208-0.016 0.336-0.016 0.096 0 0.192 0 0.272-0.016 0.048-0.016 0.112-0.016 0.128-0.080 0.016-0.032 0.032-0.096 0.048-0.16-0.048-0.032-0.080-0.064-0.112-0.096-0.032 0.048-0.064 0.128-0.080 0.176zM23.024 27.68c-0.080-0.048-0.144-0.080-0.192-0.112-0.032-0.016-0.032-0.032-0.048-0.032 0.016-0.064 0.048-0.16 0.064-0.24-0.048 0.032-0.096 0.048-0.144 0.048-0.016 0.064-0.032 0.128-0.048 0.176 0 0.064 0.048 0.112 0.096 0.144s0.128 0.080 0.208 0.128c0.096 0.064 0.224 0.128 0.272 0.176 0.096 0.096 0.032 0.672-0.032 0.928-0.016 0.064-0.048 0.128-0.096 0.16s-0.096 0.032-0.144 0.016c-0.096-0.032-0.208-0.096-0.288-0.144-0.048-0.032-0.112-0.048-0.16-0.064-0.070 0.036-0.152 0.060-0.239 0.064l-0.001 0c0.032 0 0.064 0.016 0.096 0.016 0.080 0.016 0.16 0.048 0.24 0.096 0.080 0.032 0.16 0.080 0.24 0.128h0.032c0.016 0 0.032 0.016 0.048 0.016 0.096 0.016 0.176 0.016 0.256-0.032s0.128-0.128 0.16-0.224c0-0.016 0.208-0.864 0-1.056-0.080-0.048-0.208-0.112-0.32-0.192z"></path>
<path fill="#e2e2e2" d="M21.216 30.16c0.080-0.32 0.16-0.688 0.208-0.976 0.032-0.16 0.032-0.336 0.032-0.4h-0.016c-0.032 0-0.080 0-0.112-0.016 0 0.048 0.016 0.192-0.016 0.4-0.048 0.288-0.128 0.64-0.208 0.96-0.032 0.176-0.080 0.32-0.096 0.432-0.096 0.448-0.144 0.992-0.176 1.44h0.128c0.032-0.432 0.080-0.976 0.176-1.408 0-0.112 0.032-0.272 0.080-0.432zM22.416 30.496c0.096-0.304 0.208-0.688 0.304-0.96 0.080-0.208 0.144-0.32 0.176-0.352-0.016 0-0.016-0.016-0.032-0.016-0.032-0.016-0.064-0.016-0.080-0.048-0.048 0.064-0.112 0.192-0.176 0.352-0.096 0.272-0.224 0.656-0.304 0.96-0.048 0.16-0.096 0.304-0.128 0.4-0.128 0.384-0.288 0.784-0.464 1.136h0.144c0.16-0.336 0.32-0.736 0.432-1.104 0.032-0.064 0.080-0.208 0.128-0.368z"></path>
<path fill="#e2e2e2" d="M22.8 26.304c-0.256-0.064-0.544 0.128-0.624 0.432s0.064 0.608 0.32 0.672c0.256 0.064 0.544-0.128 0.624-0.432 0.096-0.304-0.048-0.592-0.32-0.672zM23.008 26.944c-0.064 0.24-0.272 0.384-0.464 0.336s-0.304-0.288-0.24-0.512c0.064-0.24 0.272-0.384 0.464-0.336s0.304 0.288 0.24 0.512z"></path>
<path fill="#e2e2e2" d="M22.416 27.792c-0.046-0.012-0.098-0.018-0.152-0.018-0.292 0-0.538 0.195-0.615 0.462l-0.001 0.005c-0.012 0.046-0.018 0.098-0.018 0.152 0 0.292 0.195 0.538 0.462 0.615l0.005 0.001c0.046 0.012 0.098 0.018 0.152 0.018 0.292 0 0.538-0.195 0.615-0.462l0.001-0.005c0.012-0.046 0.018-0.098 0.018-0.152 0-0.292-0.195-0.538-0.462-0.615l-0.005-0.001zM22.736 28.528c-0.064 0.256-0.336 0.416-0.608 0.352-0.214-0.061-0.368-0.255-0.368-0.484 0-0.044 0.006-0.087 0.016-0.128l-0.001 0.003c0.064-0.256 0.336-0.416 0.608-0.352 0.256 0.064 0.416 0.336 0.352 0.608z"></path>
<path fill="#e2e2e2" d="M21.872 29.856c-0.208-0.048-0.256-0.224-0.256-0.224l-0.128 0.032c0 0.016 0.064 0.224 0.288 0.304l-0.544 2.032h0.128l0.56-2.128-0.048-0.016z"></path>
<path fill="#e2e2e2" d="M21.872 29.856l-0.032 0.128c0.288 0.080 0.448-0.112 0.448-0.112l-0.096-0.080s-0.096 0.128-0.32 0.064z"></path>
<path fill="#e2e2e2" d="M27.2 8.864c0.080-0.128 0.112-0.288-0.032-0.464l-0.048-0.048c0.064-0.112 0.080-0.24 0.016-0.368-0.052-0.082-0.129-0.144-0.221-0.175l-0.003-0.001c-0.039-0.010-0.084-0.016-0.13-0.016-0.080 0-0.157 0.018-0.225 0.049l0.003-0.001c-0.016-0.016-0.016-0.032-0.032-0.048-0.032-0.032-0.048-0.048-0.096-0.064 0.024-0.047 0.038-0.103 0.038-0.162 0-0.099-0.039-0.188-0.102-0.254l0 0c-0.112-0.128-0.304-0.144-0.48-0.064-0.032-0.099-0.101-0.178-0.19-0.223l-0.002-0.001c-0.046-0.021-0.099-0.033-0.155-0.033-0.079 0-0.153 0.024-0.215 0.065l0.001-0.001c-0.128 0.080-0.224 0.208-0.256 0.336-0.192-0.032-0.432 0.032-0.496 0.288v0.032c-0.002-0-0.004-0-0.007-0-0.081 0-0.156 0.024-0.219 0.065l0.002-0.001c-0.128 0.080-0.224 0.208-0.256 0.336-0.192-0.048-0.432 0.016-0.496 0.272-0.016 0.064-0.016 0.128 0.016 0.192l0.16 0.032c-0.016-0.016-0.016-0.016-0.016-0.032-0.032-0.048-0.048-0.112-0.032-0.16 0.064-0.24 0.272-0.208 0.352-0.192 0.016 0 0.048 0.016 0.064 0.016l0.080 0.032v-0.144c0.016-0.096 0.096-0.208 0.192-0.272 0.048-0.032 0.128-0.064 0.208-0.048l0.080 0.016v-0.144c0.064-0.24 0.272-0.208 0.352-0.192 0.016 0 0.048 0.016 0.064 0.016l0.080 0.032v-0.144c0.016-0.096 0.096-0.208 0.192-0.272 0.064-0.032 0.16-0.080 0.24-0.032 0.096 0.048 0.144 0.112 0.144 0.208v0.096l0.080-0.048c0.096-0.064 0.208-0.080 0.304-0.064 0.048 0.016 0.080 0.032 0.112 0.064 0.128 0.144 0.064 0.272 0.016 0.336l-0.048 0.128 0.080 0.016c0.048 0.016 0.080 0.032 0.096 0.064 0.016 0.016 0.032 0.048 0.048 0.064l0.032 0.048 0.048-0.032c0.096-0.048 0.224-0.064 0.32-0.048 0.080 0.016 0.128 0.048 0.16 0.112 0.064 0.144 0.016 0.24-0.032 0.288l-0.064 0.064 0.080 0.032c0.032 0.016 0.048 0.032 0.064 0.048 0.144 0.176 0.032 0.32-0.016 0.368l-0.080 0.080 0.128 0.016c0.048 0.016 0.080 0.032 0.112 0.064 0.064 0.080 0.096 0.176 0.048 0.256-0.016 0.064-0.064 0.112-0.128 0.16l0.144 0.032c0.048-0.048 0.080-0.096 0.096-0.144 0.048-0.128 0.016-0.256-0.080-0.384-0.032 0-0.064-0.032-0.096-0.048z"></path>
<path fill="#e2e2e2" d="M23.472 8.896l-0.608 3.536 2.208 0.544c0.032-0.016 0.064-0.048 0.096-0.064 0.016 0 0.032-0.016 0.048-0.032l-2.208-0.544 0.592-3.424 3.584 0.88-1.008 3.168 0.048 0.048c0.016 0.032 0.032 0.048 0.048 0.080l1.040-3.264 0.096-0.384-3.824-0.928-0.112 0.384zM23.648 8.672l3.6 0.88-0.048 0.144-3.6-0.88 0.048-0.144z"></path>
<path fill="#e2e2e2" d="M25.36 13.664c-0.144 0-0.32-0.080-0.416-0.192-0.060-0.074-0.096-0.169-0.096-0.272v-0c0.032-0.24 0.224-0.336 0.384-0.336 0.128 0 0.24 0.048 0.32 0.112l0.016 0.016c0.096-0.080 0.24-0.144 0.368-0.144 0.112 0 0.192 0.032 0.256 0.112 0.096 0.112 0.128 0.24 0.080 0.368-0.064 0.16-0.224 0.272-0.384 0.304-0.019 0.003-0.041 0.005-0.064 0.005-0.089 0-0.172-0.026-0.242-0.070l0.002 0.001c-0.044 0.047-0.106 0.077-0.175 0.080l-0 0c-0.016 0.016-0.032 0.016-0.048 0.016zM25.232 12.992c-0.080 0-0.256 0.016-0.272 0.24 0 0.064 0.016 0.128 0.064 0.176 0.080 0.096 0.256 0.16 0.368 0.144 0.048 0 0.112-0.048 0.144-0.096l0.032-0.048 0.032 0.048c0.064 0.064 0.144 0.096 0.256 0.080 0.128-0.016 0.256-0.112 0.304-0.24 0.032-0.096 0.016-0.176-0.048-0.256-0.036-0.049-0.094-0.080-0.158-0.080-0.001 0-0.001 0-0.002 0h0c-0.112 0-0.256 0.064-0.336 0.144l-0.032 0.048-0.048-0.032c-0.016-0.016-0.032-0.032-0.048-0.032-0.064-0.060-0.151-0.096-0.246-0.096-0.003 0-0.007 0-0.010 0h0zM26.88 13.92c-0.048 0-0.112-0.016-0.144-0.032-0.139-0.083-0.239-0.22-0.271-0.38l-0.001-0.004c-0.016-0.112 0-0.224 0.064-0.304 0.080-0.080 0.176-0.128 0.272-0.128 0.208 0 0.384 0.192 0.432 0.352s0.016 0.304-0.096 0.4c-0.064 0.064-0.16 0.096-0.256 0.096zM26.816 13.168c-0.064 0-0.144 0.032-0.192 0.096-0.064 0.064-0.064 0.144-0.048 0.208 0.032 0.128 0.112 0.256 0.224 0.304 0.032 0.016 0.064 0.016 0.096 0.016 0.064 0 0.144-0.032 0.192-0.064 0.080-0.064 0.112-0.16 0.064-0.304-0.048-0.112-0.192-0.256-0.336-0.256zM23.408 9.744c0 0.048-0.016 0.080-0.032 0.128l2.384-0.432c-0.080-0.016-0.16-0.048-0.24-0.080l-2.112 0.384zM23.248 10.672l3.952-0.72c0-0.016 0-0.016 0.016-0.032 0-0.032 0-0.064 0.016-0.096l-4 0.736 0.016 0.112z"></path>
<path fill="#e2e2e2" d="M23.12 11.392l3.824-0.704c0.016-0.032 0.016-0.048 0.032-0.080 0-0.016 0.016-0.032 0.016-0.048l-3.84 0.704-0.032 0.128z"></path>
<path fill="#e2e2e2" d="M22.976 12.176l3.712-0.672c0.016-0.032 0.032-0.064 0.032-0.096 0-0.016 0.016-0.016 0.016-0.032l-3.792 0.688 0.032 0.112z"></path>
<path fill="#e2e2e2" d="M24.144 12.672l2.288-0.416c0.016-0.048 0.032-0.096 0.064-0.128l-2.608 0.48c0.096 0.016 0.176 0.032 0.256 0.064z"></path>
<path fill="#e2e2e2" d="M16.432 18.688l-0.112 0.032 0.592 2.608c0 0.016 0 0.032-0.016 0.032l-5.024 1.152c-0.016 0-0.032 0-0.032-0.016l-0.592-2.608-0.112 0.032 0.592 2.608c0.016 0.080 0.096 0.128 0.176 0.112l5.024-1.152c0.080-0.016 0.128-0.096 0.112-0.176l-0.608-2.624z"></path>
<path fill="#e2e2e2" d="M11.040 19.104c0.016 0.032 0.016 0.080 0.016 0.128l5.296-1.2 0.144 0.592-5.472 1.248-0.096-0.4c-0.016 0.016-0.048 0.032-0.064 0.032h-0.048l0.112 0.496 5.712-1.296-0.192-0.832-5.408 1.232zM10.224 18.688l0.384 0.4c0-0.016 0-0.016 0.016-0.032 0-0.016-0.016-0.032 0-0.048l0.048-0.048-0.272-0.272 4.112-3.824 0.416 0.448-3.984 3.696c0.032 0.032 0.064 0.064 0.064 0.112l4.080-3.792-0.576-0.624-4.288 3.984z"></path>
<path fill="#e2e2e2" d="M10.736 18.912c-0.176 0.032-0.288 0.208-0.24 0.384 0.032 0.176 0.208 0.288 0.384 0.24 0.176-0.032 0.288-0.208 0.24-0.384s-0.208-0.288-0.384-0.24zM10.848 19.424c-0.015 0.004-0.032 0.007-0.050 0.007-0.097 0-0.177-0.072-0.19-0.166l-0-0.001c-0.004-0.015-0.007-0.032-0.007-0.050 0-0.097 0.072-0.177 0.166-0.19l0.001-0c0.112-0.032 0.224 0.048 0.24 0.16s-0.048 0.208-0.16 0.24z"></path>
<path fill="#e2e2e2" d="M0.752 10.080l1.136-2.4-0.112-0.064-1.136 2.416c0 0.016-0.016 0.016-0.032 0.016l-0.608-0.288v0.128l0.544 0.256c0.080 0.048 0.176 0.016 0.208-0.064z"></path>
<path fill="#e2e2e2" d="M2.4 7.040l-2.4-1.136v0.144l2.24 1.056-0.272 0.56-1.968-0.944v0.144l2.032 0.96zM2.864 3.36l-2.864 0.24v0.112l2.752-0.224 0.048 0.624-2.8 0.224v0.112l2.928-0.224zM0.832 8l-0.832-0.384v0.128l0.784 0.368zM0.576 8.544l-0.576-0.288v0.144l0.528 0.24zM0.336 9.056l-0.336-0.16v0.128l0.288 0.144z"></path>
<path fill="#e2e2e2" d="M31.392 19.664l-0.128 0.048 0.288 0.592 0.448-0.224v-0.144l-0.384 0.192z"></path>
<path fill="#e2e2e2" d="M31.056 19.696l-0.064-0.128-0.112 0.064 0.064 0.128c0.032 0.064 0.128 0.096 0.192 0.064l0.864-0.432v-0.144l-0.944 0.448z"></path>
<path fill="#e2e2e2" d="M28.256 17.472l1.296 2.64c0.048 0.096 0.16 0.144 0.256 0.096l2.192-1.088v-0.144l-2.24 1.104c-0.032 0.016-0.064 0-0.080-0.032l-1.296-2.64c-0.016-0.032 0-0.064 0.032-0.080l3.584-1.776v-0.144l-3.664 1.792c-0.096 0.048-0.128 0.176-0.080 0.272z"></path>
<path fill="#e2e2e2" d="M30.832 15.472l-1.6 0.784c-0.064 0.032-0.096 0.128-0.064 0.192l0.192 0.4 1.856-0.912-0.192-0.4c-0.048-0.064-0.128-0.096-0.192-0.064zM29.424 16.672l-0.144-0.272v-0.016l1.6-0.784h0.016l0.144 0.272-1.616 0.8zM29.424 14.416l-0.272 0.128c0.032 0.032 0.064 0.064 0.080 0.112l0.208-0.112v-0.016c-0.016-0.032-0.016-0.080-0.016-0.112z"></path>
<path fill="#e2e2e2" d="M29.84 15.040c-0.080-0.048-0.16-0.096-0.224-0.16l0.496 1.024 0.128-0.064-0.4-0.8zM29.36 15.264l0.4 0.8 0.112-0.064-0.512-1.056c0.016 0.128 0.016 0.224 0 0.32z"></path>
<path fill="#e2e2e2" d="M27.728 14.176c-0.592 0.288-0.832 1.008-0.544 1.6s1.008 0.832 1.6 0.544 0.832-1.008 0.544-1.6c-0.2-0.398-0.605-0.666-1.073-0.666-0.192 0-0.373 0.045-0.534 0.126l0.007-0.003zM28.736 16.192c-0.138 0.070-0.3 0.11-0.472 0.11-0.587 0-1.062-0.476-1.062-1.062s0.476-1.062 1.062-1.062c0.415 0 0.774 0.238 0.949 0.584l0.003 0.006c0.256 0.528 0.032 1.168-0.48 1.424zM31.264 17.504c-0.032-0.064-0.128-0.096-0.192-0.064l-1.728 0.848c-0.064 0.032-0.096 0.128-0.064 0.192l0.576 1.168c0.032 0.064 0.128 0.096 0.192 0.064l1.728-0.848c0.064-0.032 0.096-0.128 0.064-0.192l-0.576-1.168zM31.728 18.752l-1.728 0.848h-0.016l-0.576-1.168v-0.016l1.728-0.848h0.016l0.576 1.184c0-0.016 0 0 0 0z"></path>
<path fill="#e2e2e2" d="M30.88 16.432c-0.144 0.064-0.192 0.24-0.128 0.384s0.24 0.192 0.384 0.128c0.144-0.064 0.192-0.24 0.128-0.384-0.044-0.097-0.139-0.163-0.25-0.163-0.049 0-0.095 0.013-0.135 0.036l0.001-0.001zM31.072 16.816c-0.080 0.032-0.176 0-0.208-0.064-0.032-0.080 0-0.176 0.064-0.208 0.080-0.032 0.176 0 0.208 0.064 0.048 0.080 0.016 0.176-0.064 0.208z"></path>
<path fill="#e2e2e2" d="M31.6 16.080c-0.144 0.064-0.192 0.24-0.128 0.384s0.24 0.192 0.384 0.128c0.080-0.048 0.144-0.128 0.16-0.208v-0.080c0-0.032-0.016-0.064-0.032-0.096-0.080-0.144-0.256-0.208-0.384-0.128zM31.792 16.464c-0.080 0.032-0.176 0-0.208-0.064-0.032-0.080 0-0.176 0.064-0.208 0.080-0.032 0.176 0 0.208 0.064 0.032 0.080 0 0.176-0.064 0.208z"></path>
<path fill="#e2e2e2" d="M27.92 14.544c-0.267 0.124-0.448 0.39-0.448 0.698 0 0.125 0.030 0.242 0.082 0.346l-0.002-0.004c0.192 0.384 0.656 0.544 1.056 0.352 0.384-0.192 0.544-0.656 0.352-1.056-0.134-0.25-0.394-0.417-0.693-0.417-0.126 0-0.246 0.030-0.352 0.083l0.005-0.002zM28.544 15.824c-0.32 0.16-0.72 0.032-0.88-0.304s-0.032-0.72 0.304-0.88c0.32-0.16 0.72-0.032 0.88 0.304s0.032 0.72-0.304 0.88z"></path>
<path fill="#e2e2e2" d="M30 13.104c-0.592 0.288-0.832 1.008-0.544 1.6s1.008 0.832 1.6 0.544 0.832-1.008 0.544-1.6c-0.202-0.397-0.607-0.665-1.075-0.665-0.191 0-0.372 0.045-0.532 0.124l0.007-0.003zM30.992 15.136c-0.138 0.070-0.3 0.111-0.472 0.111-0.587 0-1.063-0.476-1.063-1.063 0-0.415 0.238-0.774 0.584-0.949l0.006-0.003c0.138-0.070 0.3-0.111 0.472-0.111 0.587 0 1.063 0.476 1.063 1.063 0 0.415-0.238 0.774-0.584 0.949l-0.006 0.003z"></path>
<path fill="#e2e2e2" d="M30.176 13.472c-0.384 0.192-0.544 0.656-0.352 1.056 0.192 0.384 0.656 0.544 1.056 0.352 0.384-0.192 0.544-0.656 0.352-1.056-0.134-0.259-0.4-0.433-0.707-0.433-0.127 0-0.247 0.030-0.354 0.083l0.005-0.002zM30.816 14.768c-0.32 0.16-0.72 0.032-0.88-0.304-0.16-0.32-0.032-0.72 0.304-0.88 0.32-0.16 0.72-0.032 0.88 0.304 0.144 0.32 0.016 0.72-0.304 0.88z"></path>
<path fill="#e2e2e2" d="M28.192 16.384h-0.096l1.104 0.512 0.048-0.112-0.912-0.416c-0.048 0.016-0.112 0.016-0.144 0.016z"></path>
<path fill="#e2e2e2" d="M31.52 14.576l-0.096 1.152 0.128 0.016 0.096-1.248h-0.048l-0.080 0.080z"></path>
<path fill="#e2e2e2" d="M27.936 7.808l1.152-2.416-0.112-0.048-1.136 2.416c-0.032 0.080 0 0.16 0.064 0.192l4.096 1.936v-0.128l-4.048-1.92c-0.016 0-0.016-0.016-0.016-0.032zM29.328 4.784l2.672 1.264v-0.144l-2.608-1.232c0 0.048-0.032 0.080-0.064 0.112z"></path>
<path fill="#e2e2e2" d="M29.072 4.896c-0.032 0-0.048 0-0.080-0.016-0.016 0-0.032-0.016-0.032-0.032l-0.224 0.464 3.264 1.552v-0.144l-3.088-1.472 0.16-0.352zM29.376 4.672l2.624-0.224v-0.112l-2.608 0.208c0 0.048 0 0.080-0.016 0.128zM29.072 4.384c0.016 0 0.016-0.016 0.032-0.016 0-0.016 0.016-0.032 0.016-0.032 0.008-0.008 0.020-0.012 0.032-0.012s0.024 0.005 0.032 0.012l-0-0-0.032-0.384 2.848-0.24v-0.112l-2.976 0.24 0.048 0.544z"></path>
<path fill="#e2e2e2" d="M29.28 4.32c-0.16-0.080-0.352 0-0.432 0.16s0 0.352 0.16 0.432c0.16 0.080 0.352 0 0.432-0.16 0.064-0.16 0-0.352-0.16-0.432zM29.328 4.704c-0.048 0.096-0.176 0.144-0.272 0.096s-0.144-0.16-0.096-0.272c0.048-0.096 0.176-0.144 0.272-0.096s0.144 0.176 0.096 0.272zM29.344 6.48l2.656 1.264v-0.128l-2.608-1.248zM29.088 7.008l2.912 1.392v-0.144l-2.864-1.36zM28.848 7.536l3.152 1.488v-0.128l-3.104-1.472z"></path>
<path fill="#e2e2e2" d="M16.848 1.008l0.288-0.688-0.784-0.32h-0.32l0.96 0.384-0.24 0.576c-0.048 0.096-0.16 0.144-0.256 0.112l-2.64-1.072h-0.32l2.912 1.184c0.144 0.080 0.336 0 0.4-0.176zM15.104 4.448l-2.928-1.2c-0.16-0.064-0.352 0.016-0.416 0.176l-0.288 0.704 3.52 1.44 0.288-0.688c0.014-0.036 0.022-0.077 0.022-0.121 0-0.137-0.080-0.255-0.196-0.311l-0.002-0.001zM15.152 4.832l-0.224 0.576-3.296-1.344 0.24-0.576c0.048-0.096 0.16-0.144 0.256-0.112l2.928 1.2c0.096 0.032 0.144 0.144 0.096 0.256zM16.16 1.888l-2.928-1.2c-0.16-0.064-0.352 0.016-0.416 0.176l-0.56 1.36c-0.080 0.176 0 0.352 0.176 0.416l2.912 1.2c0.16 0.064 0.352-0.016 0.416-0.176l0.56-1.376c0.080-0.16 0-0.336-0.16-0.4zM16.208 2.256l-0.56 1.376c-0.048 0.096-0.16 0.144-0.256 0.112l-2.928-1.216c-0.096-0.032-0.144-0.144-0.096-0.256l0.56-1.376c0.032-0.096 0.16-0.144 0.256-0.096l2.928 1.2c0.096 0.032 0.144 0.144 0.096 0.256z"></path>
<path fill="#e2e2e2" d="M16 5.968l2.144-5.232-1.792-0.736h-0.32l1.952 0.8-2.064 5.008-5.28-2.16 1.488-3.648h-0.128l-1.52 3.712z"></path>
<path fill="#e2e2e2" d="M17.008 1.152l0.48 0.192 0.16-0.4-0.48-0.192-0.16 0.4zM17.504 1.024l-0.064 0.176-0.256-0.112 0.064-0.176 0.256 0.112zM12.832 0.256l0.096-0.256h-0.128l-0.032 0.096-0.224-0.096h-0.176l-0.032 0.048zM16.72 1.84l0.48 0.192 0.16-0.4-0.48-0.192-0.16 0.4zM17.216 1.712l-0.064 0.176-0.256-0.112 0.064-0.176 0.256 0.112z"></path>
<path fill="#e2e2e2" d="M12.064 0.736l0.48 0.192 0.16-0.4-0.48-0.192-0.16 0.4zM12.56 0.608l-0.080 0.176-0.256-0.112 0.064-0.176 0.272 0.112zM16.448 2.528l0.48 0.192 0.16-0.4-0.48-0.192-0.16 0.4zM16.928 2.4l-0.064 0.176-0.256-0.112 0.064-0.176 0.256 0.112zM11.776 1.424l0.48 0.192 0.16-0.4-0.48-0.192-0.16 0.4zM12.272 1.296l-0.080 0.176-0.256-0.112 0.064-0.176 0.272 0.112zM16.16 3.232l0.48 0.192 0.16-0.4-0.48-0.192-0.16 0.4zM16.656 3.088l-0.064 0.176-0.272-0.112 0.064-0.176 0.272 0.112z"></path>
<path fill="#e2e2e2" d="M11.488 2.128l0.48 0.192 0.16-0.4-0.48-0.192-0.16 0.4zM11.984 1.984l-0.064 0.176-0.272-0.096 0.064-0.176 0.272 0.096zM15.872 3.92l0.48 0.192 0.16-0.4-0.48-0.192-0.16 0.4zM16.368 3.792l-0.064 0.176-0.256-0.112 0.064-0.176 0.256 0.112zM11.216 2.816l0.48 0.192 0.16-0.4-0.48-0.192-0.16 0.4zM11.696 2.672l-0.064 0.176-0.256-0.096 0.064-0.176 0.256 0.096zM15.6 4.608l0.48 0.192 0.16-0.4-0.48-0.192-0.16 0.4zM16.080 4.48l-0.064 0.176-0.256-0.112 0.064-0.176 0.256 0.112zM10.928 3.504l0.48 0.192 0.16-0.4-0.48-0.192-0.16 0.4zM11.424 3.376l-0.080 0.176-0.256-0.112 0.064-0.176 0.272 0.112zM15.312 5.296l0.48 0.192 0.16-0.4-0.48-0.192-0.16 0.4zM15.792 5.168l-0.064 0.176-0.256-0.112 0.064-0.176 0.256 0.112z"></path>
<path fill="#e2e2e2" d="M1.776 27.808l0.48 2.704 0.128-0.016-0.448-2.576 0.224-0.048 0.448 2.576 0.128-0.016-0.48-2.704zM1.056 31.040l-0.128 0.032 0.016 0.080 0.32 0.848h0.144l-0.336-0.88zM4.192 30.48l-0.128 0.032 0.016 0.080-0.032 1.408h0.128l0.032-1.424z"></path>
<path fill="#e2e2e2" d="M0.752 30.704l0.080 0.48 3.472-0.624-0.080-0.48-3.472 0.624zM0.944 31.024l-0.032-0.224 3.216-0.576 0.032 0.224-3.216 0.576z"></path>
<path fill="#e2e2e2" d="M4.112 30.56c-0.016-0.048-0.032-0.064-0.064-0.064l-2.24 1.504h0.24l2.080-1.392c0-0.016 0-0.032-0.016-0.048z"></path>
<path fill="#e2e2e2" d="M4.128 31.568v-0.112l-0.816 0.544h0.24l0.576-0.384v-0.048z"></path>
<path fill="#e2e2e2" d="M26.096 30.688l0.24 0.016v-0.016c0-0.048 0.016-0.080 0.032-0.112l-0.304-0.016c0.016 0.032 0.016 0.080 0.032 0.128zM26.432 31.328c-0.048-0.080-0.096-0.16-0.112-0.256l-0.064 0.928h0.128l0.048-0.672zM25.904 31.296l-0.032 0.704h0.128l0.048-0.976c-0.032 0.096-0.080 0.192-0.144 0.272z"></path>
<path fill="#e2e2e2" d="M25.024 29.536c-0.020-0.001-0.043-0.002-0.066-0.002-0.632 0-1.148 0.495-1.182 1.119l-0 0.003c-0.032 0.656 0.464 1.216 1.12 1.248s1.216-0.464 1.248-1.12c0.032-0.64-0.464-1.2-1.12-1.248zM26.016 30.784c-0.034 0.564-0.5 1.009-1.070 1.009-0.018 0-0.035-0-0.052-0.001l0.002 0c-0.564-0.034-1.009-0.5-1.009-1.070 0-0.018 0-0.035 0.001-0.052l-0 0.002c0.034-0.564 0.5-1.009 1.070-1.009 0.018 0 0.035 0 0.052 0.001l-0.002-0c0.592 0.032 1.040 0.544 1.008 1.12z"></path>
<path fill="#e2e2e2" d="M24.992 29.952c-0.432-0.016-0.8 0.304-0.832 0.736-0.016 0.432 0.304 0.8 0.736 0.832 0.432 0.016 0.8-0.304 0.832-0.736 0.002-0.019 0.003-0.042 0.003-0.065 0-0.414-0.327-0.751-0.737-0.767l-0.001-0zM25.6 30.768c-0.016 0.352-0.32 0.64-0.688 0.624-0.352-0.016-0.64-0.32-0.624-0.688 0.016-0.352 0.32-0.64 0.688-0.624s0.656 0.32 0.624 0.688z"></path>
<path fill="#e2e2e2" d="M28.64 30.976c0.001-0.020 0.002-0.043 0.002-0.066 0-0.632-0.495-1.148-1.119-1.182l-0.003-0c-0.019-0.001-0.042-0.002-0.065-0.002-0.654 0-1.184 0.53-1.184 1.184 0 0.487 0.294 0.905 0.714 1.087l0.008 0.003h0.944c0.384-0.176 0.672-0.56 0.704-1.024zM27.392 31.968c-0.564-0.034-1.009-0.5-1.009-1.070 0-0.018 0-0.035 0.001-0.052l-0 0.002c0.034-0.564 0.5-1.009 1.070-1.009 0.018 0 0.035 0 0.052 0.001l-0.002-0c0.576 0.032 1.040 0.528 1.008 1.12s-0.544 1.040-1.12 1.008z"></path>
<path fill="#e2e2e2" d="M27.488 30.128c-0.432-0.016-0.8 0.304-0.832 0.736s0.304 0.8 0.736 0.832c0.432 0.016 0.8-0.304 0.832-0.736 0.002-0.019 0.003-0.042 0.003-0.065 0-0.414-0.327-0.751-0.737-0.767l-0.001-0zM28.096 30.944c-0.016 0.352-0.32 0.64-0.688 0.624-0.352-0.016-0.64-0.32-0.624-0.688 0.016-0.352 0.32-0.64 0.688-0.624s0.64 0.32 0.624 0.688z"></path>
<path fill="#e2e2e2" d="M24.336 31.696l-0.096-0.048 0.256 0.352h0.16l-0.176-0.256c-0.055-0.012-0.103-0.029-0.149-0.050l0.005 0.002z"></path>
<path fill="#e2e2e2" d="M28.256 31.712c-0.048 0.016-0.080 0.016-0.128 0.032l-0.176 0.256h0.16l0.176-0.272-0.032-0.016z"></path>
<path fill="#e2e2e2" d="M15.44 31.616l-1.824-0.736-0.288 0.688c-0.064 0.16 0.016 0.352 0.176 0.416h0.336l-0.288-0.128c-0.072-0.036-0.121-0.109-0.121-0.194 0-0.022 0.003-0.043 0.009-0.064l-0 0.002 0.24-0.576 1.6 0.656 0.736 0.32h0.32l-0.896-0.384z"></path>
<path fill="#e2e2e2" d="M12 32h0.128l0.56-1.36 3.344 1.36h0.32l-3.728-1.52z"></path>
<path fill="#e2e2e2" d="M12.624 31.36l0.48 0.192 0.16-0.4-0.48-0.192-0.16 0.4zM13.12 31.232l-0.064 0.176-0.256-0.112 0.064-0.176 0.256 0.112zM12.512 31.648l-0.144 0.352h0.176l-0.032-0.016 0.064-0.176 0.256 0.112-0.032 0.080h0.128l0.064-0.144z"></path>
<path fill="#e2e2e2" d="M11.376 28.784c-0.496-1.44-2.064-2.224-3.504-1.728s-2.224 2.064-1.728 3.504c0.208 0.624 0.624 1.12 1.136 1.44h0.288c-0.592-0.304-1.056-0.816-1.296-1.488-0.088-0.251-0.138-0.54-0.138-0.841 0-1.149 0.739-2.126 1.768-2.481l0.018-0.006c1.376-0.464 2.864 0.272 3.328 1.648 0.416 1.248-0.144 2.592-1.28 3.184h0.272c1.056-0.688 1.568-2 1.136-3.232z"></path>
<path fill="#e2e2e2" d="M8.064 27.584c-0.874 0.308-1.489 1.126-1.489 2.088 0 0.249 0.041 0.489 0.117 0.712l-0.005-0.016c0.384 1.136 1.632 1.76 2.784 1.376 1.136-0.384 1.76-1.632 1.376-2.784-0.4-1.136-1.648-1.76-2.784-1.376zM9.424 31.6c-0.175 0.054-0.376 0.085-0.584 0.085-1.136 0-2.056-0.921-2.056-2.056 0-0.868 0.538-1.61 1.298-1.912l0.014-0.005c1.072-0.368 2.24 0.208 2.608 1.28 0.368 1.088-0.208 2.256-1.28 2.608z"></path>
<path fill="#e2e2e2" d="M8.816 27.744c-0.192 0.064-0.352 0.224-0.4 0.416-0.016 0.064-0.032 0.128-0.032 0.192s0.016 0.144 0.032 0.208c0.112 0.336 0.48 0.512 0.816 0.4 0.176-0.064 0.32-0.192 0.384-0.368 0.032-0.064 0.048-0.128 0.048-0.192 0-0.096 0-0.176-0.032-0.256-0.089-0.255-0.328-0.434-0.608-0.434-0.074 0-0.146 0.013-0.212 0.036l0.005-0.001zM9.536 28.4c0 0.048-0.016 0.096-0.032 0.144-0.075 0.188-0.255 0.318-0.466 0.318-0.223 0-0.412-0.146-0.477-0.347l-0.001-0.004c-0.017-0.047-0.029-0.102-0.032-0.159l-0-0.001c0-0.048 0.016-0.096 0.016-0.144 0.048-0.16 0.16-0.272 0.32-0.32 0.256-0.096 0.544 0.048 0.64 0.32 0.016 0.048 0.032 0.128 0.032 0.192zM8.64 29.296c-0.208 0.064-0.32 0.288-0.24 0.496 0.064 0.208 0.288 0.32 0.496 0.24 0.208-0.064 0.32-0.288 0.24-0.496-0.059-0.153-0.204-0.259-0.374-0.259-0.043 0-0.085 0.007-0.125 0.020l0.003-0.001zM8.848 29.904c-0.128 0.048-0.272-0.032-0.32-0.16s0.032-0.272 0.16-0.32 0.272 0.032 0.32 0.16c0.006 0.020 0.009 0.044 0.009 0.068 0 0.113-0.069 0.21-0.167 0.251l-0.002 0.001zM8.256 28.4c-0.036-0.054-0.085-0.098-0.142-0.127l-0.002-0.001c-0.104-0.070-0.233-0.112-0.371-0.112-0.073 0-0.144 0.012-0.209 0.033l0.005-0.001c-0.256 0.089-0.437 0.328-0.437 0.609 0 0.174 0.069 0.331 0.181 0.447l-0-0c0.127 0.115 0.296 0.186 0.481 0.186 0.068 0 0.134-0.009 0.196-0.027l-0.005 0.001c0.336-0.112 0.512-0.48 0.4-0.816-0.017-0.074-0.050-0.139-0.096-0.193l0 0.001zM7.904 29.264c-0.128 0.048-0.272 0.032-0.4-0.032-0.048-0.016-0.080-0.048-0.128-0.096-0.054-0.050-0.093-0.116-0.111-0.189l-0.001-0.003c-0.096-0.256 0.048-0.544 0.32-0.64 0.048-0.017 0.104-0.027 0.162-0.027 0.163 0 0.308 0.080 0.397 0.202l0.001 0.001c0.032 0.048 0.064 0.096 0.080 0.144 0.096 0.272-0.048 0.56-0.32 0.64zM9.888 28.608c-0.067 0.018-0.126 0.046-0.178 0.081l0.002-0.001c-0.256 0.16-0.368 0.48-0.272 0.752 0.096 0.288 0.384 0.464 0.688 0.432 0.048 0 0.096-0.016 0.128-0.032 0.016 0 0.032-0.016 0.048-0.016 0.304-0.144 0.464-0.48 0.352-0.8-0.091-0.255-0.33-0.435-0.612-0.435-0.055 0-0.109 0.007-0.16 0.020l0.005-0.001zM10.24 29.696l-0.144 0.048c-0.019 0.003-0.041 0.004-0.064 0.004-0.221 0-0.408-0.14-0.479-0.337l-0.001-0.004c-0.080-0.224 0.016-0.48 0.224-0.592l0.096-0.048c0.016 0 0.032-0.016 0.048-0.016 0.256-0.064 0.512 0.080 0.592 0.32 0.096 0.24-0.032 0.512-0.272 0.624zM10.24 30.112c-0.048-0.048-0.096-0.096-0.144-0.128-0.090-0.054-0.198-0.087-0.314-0.087-0.077 0-0.15 0.014-0.218 0.040l0.004-0.001c-0.336 0.112-0.512 0.48-0.4 0.816 0.016 0.064 0.064 0.128 0.112 0.192 0.123 0.148 0.306 0.241 0.512 0.241 0.074 0 0.146-0.012 0.213-0.035l-0.005 0.001c0.336-0.112 0.512-0.48 0.4-0.816-0.042-0.087-0.096-0.161-0.16-0.224l-0-0zM9.92 31.008c-0.047 0.016-0.102 0.026-0.159 0.026-0.164 0-0.309-0.079-0.4-0.201l-0.001-0.001c-0.031-0.042-0.058-0.089-0.078-0.14l-0.002-0.004c-0.096-0.256 0.048-0.544 0.32-0.64 0.144-0.048 0.288-0.032 0.416 0.048 0.048 0.032 0.080 0.064 0.112 0.096 0.048 0.048 0.080 0.112 0.096 0.176 0.112 0.272-0.032 0.56-0.304 0.64zM7.424 29.456c-0.064 0-0.128 0.032-0.192 0.048-0.304 0.128-0.464 0.48-0.352 0.8s0.432 0.496 0.768 0.416c0.016 0 0.032-0.016 0.064-0.016 0.049-0.016 0.091-0.038 0.129-0.065l-0.001 0.001c0.187-0.114 0.311-0.317 0.311-0.549 0-0.079-0.014-0.154-0.040-0.224l0.001 0.004c-0.105-0.248-0.347-0.419-0.628-0.419-0.021 0-0.042 0.001-0.063 0.003l0.003-0zM7.744 30.528c-0.048 0.032-0.096 0.048-0.144 0.064-0.036 0.010-0.078 0.015-0.121 0.015-0.221 0-0.409-0.146-0.47-0.348l-0.001-0.003c-0.080-0.24 0.032-0.528 0.272-0.624 0.016 0 0.032-0.016 0.032-0.016 0.032-0.016 0.064-0.016 0.112-0.016 0.021-0.003 0.044-0.005 0.069-0.005 0.215 0 0.398 0.142 0.458 0.338l0.001 0.003c0.096 0.224 0 0.464-0.208 0.592zM8.272 30.368c-0.176 0.064-0.304 0.192-0.384 0.352-0.032 0.064-0.048 0.128-0.048 0.192-0.016 0.096 0 0.192 0.032 0.272 0.112 0.336 0.48 0.512 0.816 0.4 0.192-0.064 0.336-0.208 0.4-0.416 0.016-0.064 0.032-0.128 0.032-0.192 0-0.080-0.016-0.144-0.032-0.208-0.084-0.256-0.321-0.438-0.6-0.438-0.077 0-0.152 0.014-0.22 0.039l0.004-0.001zM8.96 31.136c-0.048 0.16-0.16 0.272-0.32 0.32-0.049 0.017-0.105 0.027-0.163 0.027-0.222 0-0.41-0.144-0.476-0.344l-0.001-0.004c-0.016-0.064-0.032-0.144-0.016-0.224 0-0.048 0.016-0.096 0.032-0.144 0.064-0.128 0.16-0.224 0.304-0.272 0.256-0.096 0.544 0.048 0.64 0.32 0.016 0.048 0.032 0.112 0.032 0.176 0 0.032-0.016 0.096-0.032 0.144z"></path>
<path fill="#e2e2e2" d="M10.32 8.832c-1.44 0.496-2.224 2.064-1.728 3.504 0.496 1.456 2.064 2.224 3.504 1.744 1.44-0.496 2.224-2.064 1.728-3.504-0.379-1.106-1.411-1.888-2.624-1.888-0.315 0-0.617 0.053-0.899 0.149l0.019-0.006zM12.048 13.936c-1.36 0.464-2.864-0.272-3.328-1.632-0.088-0.251-0.139-0.54-0.139-0.841 0-1.149 0.739-2.126 1.768-2.481l0.018-0.006c1.376-0.464 2.864 0.272 3.328 1.648 0.464 1.36-0.272 2.848-1.648 3.312z"></path>
<path fill="#e2e2e2" d="M11.088 11.088c-0.208 0.064-0.32 0.288-0.256 0.496s0.288 0.32 0.496 0.24c0.208-0.064 0.32-0.288 0.24-0.496-0.064-0.208-0.288-0.32-0.48-0.24zM11.28 11.696c-0.128 0.048-0.272-0.032-0.32-0.16s0.032-0.272 0.16-0.32 0.272 0.032 0.32 0.16-0.016 0.272-0.16 0.32zM11.264 9.536c-0.196 0.069-0.347 0.22-0.415 0.411l-0.001 0.005c-0.016 0.064-0.016 0.128-0.016 0.192s0.016 0.144 0.032 0.208c0.112 0.336 0.48 0.528 0.816 0.416 0.176-0.064 0.32-0.208 0.384-0.368 0.032-0.064 0.048-0.128 0.048-0.192 0-0.096 0-0.176-0.032-0.256-0.084-0.263-0.326-0.45-0.611-0.45-0.073 0-0.144 0.012-0.209 0.035l0.005-0.001zM11.968 10.192c0 0.048-0.016 0.096-0.032 0.144-0.075 0.188-0.255 0.318-0.466 0.318-0.223 0-0.412-0.146-0.477-0.347l-0.001-0.004c-0.017-0.047-0.029-0.102-0.032-0.159l-0-0.001c0-0.048 0.016-0.096 0.016-0.144 0.048-0.16 0.16-0.272 0.32-0.32 0.256-0.096 0.544 0.048 0.64 0.32 0.032 0.048 0.048 0.128 0.032 0.192zM12.688 11.904c-0.040-0.051-0.087-0.094-0.142-0.127l-0.002-0.001c-0.101-0.057-0.221-0.091-0.349-0.091-0.069 0-0.136 0.010-0.2 0.028l0.005-0.001c-0.336 0.112-0.512 0.48-0.4 0.816 0.016 0.064 0.064 0.128 0.112 0.192 0.123 0.148 0.306 0.241 0.512 0.241 0.074 0 0.146-0.012 0.213-0.035l-0.005 0.001c0.336-0.112 0.512-0.48 0.4-0.816-0.035-0.081-0.083-0.151-0.144-0.208l-0-0zM12.368 12.8c-0.144 0.048-0.32 0.032-0.448-0.064-0.046-0.023-0.083-0.055-0.111-0.095l-0.001-0.001c-0.032-0.048-0.064-0.096-0.080-0.144-0.096-0.256 0.048-0.544 0.32-0.64 0.144-0.048 0.288-0.032 0.416 0.048 0.048 0.032 0.080 0.064 0.112 0.096 0.064 0.048 0.096 0.096 0.112 0.16 0.096 0.272-0.048 0.56-0.32 0.64z"></path>
<path fill="#e2e2e2" d="M10.512 9.376c-0.874 0.307-1.489 1.126-1.489 2.088 0 0.249 0.041 0.489 0.117 0.712l-0.005-0.016c0.384 1.136 1.632 1.76 2.784 1.376 1.136-0.384 1.76-1.632 1.376-2.784-0.4-1.136-1.648-1.76-2.784-1.376zM11.872 13.392c-1.072 0.368-2.24-0.208-2.608-1.28-0.352-1.072 0.224-2.24 1.296-2.592 1.072-0.368 2.24 0.208 2.608 1.28 0.352 1.072-0.224 2.24-1.296 2.592z"></path>
<path fill="#e2e2e2" d="M10.704 10.192c-0.043-0.046-0.091-0.089-0.141-0.126l-0.003-0.002c-0.16-0.128-0.384-0.16-0.576-0.096-0.336 0.112-0.512 0.48-0.4 0.816 0.032 0.096 0.080 0.176 0.144 0.256 0.126 0.116 0.294 0.187 0.479 0.187 0.069 0 0.135-0.010 0.198-0.028l-0.005 0.001c0.336-0.112 0.512-0.48 0.4-0.816-0.017-0.074-0.050-0.139-0.096-0.193l0 0.001zM10.352 11.056c-0.128 0.048-0.272 0.032-0.4-0.032-0.048-0.016-0.080-0.048-0.128-0.096-0.050-0.047-0.089-0.106-0.111-0.173l-0.001-0.003c-0.096-0.256 0.048-0.544 0.32-0.64 0.16-0.048 0.32-0.032 0.448 0.064 0.048 0.032 0.080 0.064 0.112 0.096 0.032 0.048 0.064 0.096 0.080 0.144 0.080 0.272-0.048 0.56-0.32 0.64zM9.872 11.248c-0.064 0-0.128 0.032-0.192 0.048-0.304 0.128-0.464 0.48-0.352 0.8s0.432 0.496 0.752 0.416c0.016 0 0.032-0.016 0.064-0.016 0.049-0.016 0.091-0.038 0.129-0.065l-0.001 0.001c0.186-0.114 0.309-0.317 0.309-0.548 0-0.353-0.287-0.64-0.64-0.64-0.024 0-0.048 0.001-0.072 0.004l0.003-0zM10.192 12.32c-0.048 0.032-0.096 0.048-0.144 0.064-0.256 0.048-0.512-0.080-0.592-0.336-0.080-0.24 0.032-0.528 0.272-0.624 0.016 0 0.032-0.016 0.032-0.016 0.032-0.016 0.064-0.016 0.112-0.016 0.24-0.032 0.464 0.112 0.544 0.336 0.017 0.048 0.027 0.103 0.027 0.161 0 0.184-0.1 0.344-0.248 0.43l-0.002 0.001z"></path>
<path fill="#e2e2e2" d="M10.72 12.144c-0.176 0.064-0.304 0.192-0.384 0.368-0.016 0.048-0.048 0.112-0.048 0.176-0.016 0.096 0 0.192 0.032 0.272 0.112 0.336 0.48 0.512 0.816 0.4 0.193-0.058 0.342-0.207 0.399-0.396l0.001-0.004c0.016-0.064 0.032-0.128 0.032-0.192 0-0.080-0.016-0.144-0.032-0.208-0.089-0.262-0.333-0.446-0.619-0.446-0.070 0-0.138 0.011-0.201 0.032l0.005-0.001zM11.408 12.928c-0.048 0.16-0.16 0.272-0.32 0.32-0.049 0.017-0.105 0.027-0.163 0.027-0.222 0-0.41-0.144-0.476-0.344l-0.001-0.004c-0.016-0.080-0.032-0.144-0.016-0.224 0-0.048 0.016-0.096 0.032-0.144 0.064-0.128 0.16-0.224 0.304-0.272 0.256-0.096 0.544 0.048 0.64 0.32 0.016 0.048 0.032 0.112 0.032 0.176 0 0.032-0.016 0.080-0.032 0.144zM12.336 10.4c-0.064 0.016-0.128 0.032-0.192 0.064-0.256 0.16-0.368 0.48-0.272 0.752 0.096 0.304 0.384 0.48 0.688 0.448 0.048 0 0.096-0.016 0.128-0.032 0.016 0 0.032-0.016 0.048-0.016 0.304-0.144 0.464-0.48 0.352-0.8-0.082-0.255-0.318-0.436-0.595-0.436-0.056 0-0.11 0.007-0.161 0.021l0.004-0.001zM12.688 11.488c-0.048 0.016-0.096 0.032-0.144 0.032-0.019 0.003-0.041 0.004-0.064 0.004-0.221 0-0.408-0.14-0.479-0.337l-0.001-0.004c-0.080-0.224 0.016-0.48 0.224-0.592l0.096-0.048c0.016 0 0.032-0.016 0.048-0.016 0.256-0.064 0.512 0.080 0.592 0.32 0.080 0.256-0.032 0.528-0.272 0.64z"></path>
<path fill="#e2e2e2" d="M9.648 0.288c0.224-0.080 0.416-0.176 0.592-0.288h-0.272c-0.112 0.064-0.24 0.112-0.352 0.144-0.704 0.24-1.44 0.16-2.048-0.144h-0.272c0.672 0.432 1.536 0.56 2.352 0.288z"></path>
</svg>
