<svg aria-hidden="true" style="position: absolute; width: 0; height: 0; overflow: hidden;" version="1.1" xmlns="http://www.w3.org/2000/svg" xmlns:xlink="http://www.w3.org/1999/xlink">
<defs>
<symbol id="icon-film" viewBox="0 0 32 32">
<path fill="none" stroke="#818181" style="stroke: var(--color2, #818181)" stroke-linejoin="round" stroke-linecap="round" stroke-miterlimit="4" stroke-width="2.6667" d="M26.427 2.667h-20.853c-1.605 0-2.907 1.301-2.907 2.907v20.853c0 1.605 1.301 2.907 2.907 2.907h20.853c1.605 0 2.907-1.301 2.907-2.907v-20.853c0-1.605-1.301-2.907-2.907-2.907z"></path>
<path fill="none" stroke="#818181" style="stroke: var(--color2, #818181)" stroke-linejoin="round" stroke-linecap="round" stroke-miterlimit="4" stroke-width="2.6667" d="M9.333 2.667v26.667"></path>
<path fill="none" stroke="#818181" style="stroke: var(--color2, #818181)" stroke-linejoin="round" stroke-linecap="round" stroke-miterlimit="4" stroke-width="2.6667" d="M22.667 2.667v26.667"></path>
<path fill="none" stroke="#818181" style="stroke: var(--color2, #818181)" stroke-linejoin="round" stroke-linecap="round" stroke-miterlimit="4" stroke-width="2.6667" d="M2.667 16h26.667"></path>
<path fill="none" stroke="#818181" style="stroke: var(--color2, #818181)" stroke-linejoin="round" stroke-linecap="round" stroke-miterlimit="4" stroke-width="2.6667" d="M2.667 9.333h6.667"></path>
<path fill="none" stroke="#818181" style="stroke: var(--color2, #818181)" stroke-linejoin="round" stroke-linecap="round" stroke-miterlimit="4" stroke-width="2.6667" d="M2.667 22.667h6.667"></path>
<path fill="none" stroke="#818181" style="stroke: var(--color2, #818181)" stroke-linejoin="round" stroke-linecap="round" stroke-miterlimit="4" stroke-width="2.6667" d="M22.667 22.667h6.667"></path>
<path fill="none" stroke="#818181" style="stroke: var(--color2, #818181)" stroke-linejoin="round" stroke-linecap="round" stroke-miterlimit="4" stroke-width="2.6667" d="M22.667 9.333h6.667"></path>
</symbol>
<symbol id="icon-search" viewBox="0 0 32 32">
<path fill="none" stroke="#fff" style="stroke: var(--color3, #fff)" stroke-linejoin="round" stroke-linecap="round" stroke-miterlimit="4" stroke-width="2.6667" d="M14.667 25.333c5.891 0 10.667-4.776 10.667-10.667s-4.776-10.667-10.667-10.667c-5.891 0-10.667 4.776-10.667 10.667s4.776 10.667 10.667 10.667z"></path>
<path fill="none" stroke="#fff" style="stroke: var(--color3, #fff)" stroke-linejoin="round" stroke-linecap="round" stroke-miterlimit="4" stroke-width="2.6667" d="M28 28.001l-5.8-5.8"></path>
</symbol>
<symbol id="icon-heart" viewBox="0 0 34 32">
<path fill="#FF6B08" style="fill: var(--color1, #FF6B08)" d="M17.231 31.705l-2.412-2.412c-8.96-7.926-14.818-13.268-14.818-19.815 0-5.342 4.135-9.477 9.477-9.477 2.929 0 5.858 1.378 7.754 3.618 1.895-2.24 4.825-3.618 7.754-3.618 5.342 0 9.477 4.135 9.477 9.477 0 6.548-5.858 11.889-14.818 19.815l-2.412 2.412z"></path>
</symbol>
<symbol id="icon-close" viewBox="0 0 32 32">
<path fill="none" stroke="#000" style="stroke: var(--color4, #000)" stroke-linejoin="miter" stroke-linecap="butt" stroke-miterlimit="4" stroke-width="2.1333" d="M8.533 8.533l14.933 14.933"></path>
<path fill="none" stroke="#000" style="stroke: var(--color4, #000)" stroke-linejoin="miter" stroke-linecap="butt" stroke-miterlimit="4" stroke-width="2.1333" d="M8.533 23.467l14.933-14.933"></path>
</symbol>
<symbol id="icon-camera-open" viewBox="0 0 32 32">
<path d="M27.314 4.686c-3.022-3.022-7.040-4.686-11.314-4.686s-8.292 1.664-11.314 4.686-4.686 7.040-4.686 11.314 1.664 8.292 4.686 11.314 7.040 4.686 11.314 4.686 8.292-1.664 11.314-4.686 4.686-7.040 4.686-11.314-1.664-8.292-4.686-11.314zM30.645 12.911c-0.022 0.016-0.044 0.033-0.064 0.053l-5.521 5.521v-14.396c0.531 0.406 1.040 0.849 1.521 1.33 2.083 2.083 3.476 4.673 4.064 7.491zM13.012 24.023l-5.035-5.035v-6.511l4.501-4.501h6.511l5.035 5.035v6.511l-4.501 4.501h-6.511zM24.023 3.364v8.182l-10.332-10.332c0.757-0.117 1.528-0.177 2.309-0.177 2.886 0 5.647 0.812 8.023 2.327zM5.419 5.419c1.973-1.973 4.401-3.327 7.047-3.964l5.485 5.485h-13.862c0.406-0.531 0.849-1.040 1.33-1.521zM3.364 7.977h7.648l-9.863 9.863c-0.074-0.606-0.111-1.22-0.111-1.84 0-2.886 0.812-5.647 2.327-8.023zM1.355 19.089c0.022-0.016 0.044-0.033 0.064-0.053l5.521-5.521v14.396c-0.531-0.406-1.040-0.849-1.521-1.33-2.083-2.083-3.476-4.673-4.064-7.492zM7.977 28.636v-8.182l10.332 10.332c-0.757 0.117-1.528 0.177-2.309 0.177-2.886 0-5.647-0.812-8.023-2.327zM26.581 26.581c-1.973 1.973-4.401 3.327-7.047 3.964l-5.485-5.485h13.862c-0.406 0.531-0.849 1.040-1.33 1.521zM28.636 24.023h-7.648l9.863-9.863c0.074 0.606 0.111 1.22 0.111 1.84 0 2.886-0.812 5.647-2.327 8.023z"></path>
</symbol>
<symbol id="icon-camera-close" viewBox="0 0 32 32">
<path d="M27.314 4.686c-3.022-3.022-7.040-4.686-11.314-4.686s-8.292 1.664-11.314 4.686-4.686 7.040-4.686 11.314 1.664 8.292 4.686 11.314c3.022 3.022 7.040 4.686 11.314 4.686s8.292-1.664 11.314-4.686 4.686-7.040 4.686-11.314-1.664-8.292-4.686-11.314zM30.814 18.154h-12.462l10.245-10.245c1.543 2.392 2.371 5.178 2.371 8.092 0 0.727-0.052 1.446-0.153 2.154zM13.847 16.892v-1.784l1.261-1.261h1.784l1.262 1.261v1.784l-1.262 1.262h-1.784l-1.261-1.262zM28.003 7.054c-0.024 0.017-0.047 0.036-0.069 0.057l-8.749 8.749v-14.489c2.782 0.6 5.338 1.985 7.398 4.045 0.516 0.516 0.99 1.064 1.419 1.638zM18.154 1.186v12.462l-10.245-10.245c2.392-1.543 5.178-2.371 8.092-2.371 0.727 0 1.446 0.052 2.154 0.153zM5.416 5.416c0.516-0.516 1.064-0.99 1.638-1.419 0.017 0.024 0.036 0.047 0.057 0.069l8.749 8.749h-14.489c0.6-2.782 1.985-5.338 4.045-7.398zM1.186 13.847h12.462l-10.245 10.245c-1.543-2.392-2.371-5.178-2.371-8.092 0-0.727 0.052-1.446 0.153-2.154zM3.997 24.946c0.024-0.017 0.047-0.036 0.069-0.057l8.749-8.749v14.489c-2.782-0.6-5.338-1.985-7.398-4.045-0.516-0.516-0.99-1.064-1.419-1.638zM13.847 30.814v-12.463l10.245 10.245c-2.392 1.543-5.178 2.371-8.092 2.371-0.727 0-1.446-0.052-2.154-0.153zM26.584 26.584c-0.516 0.516-1.064 0.99-1.638 1.419-0.017-0.024-0.036-0.047-0.057-0.069l-8.749-8.749h14.489c-0.6 2.782-1.985 5.338-4.045 7.398z"></path>
</symbol>
</defs>
</svg>