<?xml version="1.0" encoding="utf-8"?>
<!-- Generator: Adobe Illustrator 25.2.1, SVG Export Plug-In . SVG Version: 6.00 Build 0)  -->
<svg version="1.1" id="Layer_3" xmlns="http://www.w3.org/2000/svg" xmlns:xlink="http://www.w3.org/1999/xlink" x="0px" y="0px"
	 viewBox="0 0 19.7 19.7" style="enable-background:new 0 0 19.7 19.7;" xml:space="preserve">
<style type="text/css">
	.st0{fill:#231F20;}
</style>
<path class="st0" d="M9.9,0C4.4,0,0,4.4,0,9.9s4.4,9.9,9.9,9.9c5.4,0,9.9-4.4,9.9-9.9S15.3,0,9.9,0z M17.1,4v2.1l-5.4-5.4
	C13.9,1.2,15.7,2.4,17.1,4z M17,6.8v6.1l-4.2,4.2H6.9l-4.3-4.3v-6l4.2-4.2h6L17,6.8z M9.9,0.6c0.3,0,0.7,0,1,0.1l1.5,1.5H4.7
	C6.2,1.2,8,0.6,9.9,0.6z M4,2.6h2.1L0.8,7.9C1.2,5.8,2.4,3.9,4,2.6z M2.1,15c-1-1.5-1.5-3.2-1.5-5.1c0-0.4,0-0.7,0.1-1.1l1.5-1.5V15
	z M2.6,15.7v-2.1L8,18.9C5.9,18.5,4,17.3,2.6,15.7z M9.9,19.1c-0.3,0-0.7,0-1-0.1l-1.5-1.5H15C13.5,18.5,11.7,19.1,9.9,19.1z
	 M15.7,17.1h-2.1l5.4-5.3C18.5,13.9,17.3,15.8,15.7,17.1z M17.6,12.4V4.7c1,1.5,1.5,3.2,1.5,5.1c0,0.4,0,0.7-0.1,1.1L17.6,12.4z"/>
</svg>
