<?xml version="1.0" encoding="utf-8"?>
<!-- Generator: Adobe Illustrator 25.2.1, SVG Export Plug-In . SVG Version: 6.00 Build 0)  -->
<svg version="1.1" id="Layer_5" xmlns="http://www.w3.org/2000/svg" xmlns:xlink="http://www.w3.org/1999/xlink" x="0px" y="0px"
	 viewBox="0 0 19.7 19.7" style="enable-background:new 0 0 19.7 19.7;" xml:space="preserve">
<style type="text/css">
	.st0{fill:#231F20;}
</style>
<path class="st0" d="M9.9,0C4.4,0,0,4.4,0,9.9c0,5.4,4.4,9.9,9.9,9.9c5.4,0,9.9-4.4,9.9-9.9C19.7,4.4,15.3,0,9.9,0z M14.1,1.6
	c2,1.1,3.6,2.9,4.4,5L14.1,11V1.6z M9.9,0.6c1.4,0,2.6,0.3,3.8,0.8v6.2L7.1,1C8,0.7,8.9,0.6,9.9,0.6z M6.6,1.2l4.4,4.4H1.6
	C2.7,3.6,4.4,2,6.6,1.2z M0.6,9.9c0-1.4,0.3-2.6,0.8-3.8h6.2L1,12.7C0.7,11.8,0.6,10.8,0.6,9.9z M5.6,18.1c-2-1-3.5-2.8-4.3-4.9
	l4.3-4.4V18.1z M6.1,8.4l2.3-2.4h3.1l2.2,2.2v3.1l-2.3,2.3h-3l-2.3-2.2V8.4z M9.9,19.1c-1.4,0-2.6-0.3-3.8-0.8v-6.2l6.5,6.6
	C11.7,19,10.8,19.1,9.9,19.1z M13.1,18.5l-4.3-4.4h9.3C17,16.2,15.2,17.7,13.1,18.5z M12.1,13.6l6.6-6.5C19,8,19.1,8.9,19.1,9.9
	c0,1.4-0.3,2.6-0.8,3.8H12.1z"/>
</svg>
