<?xml version="1.0" encoding="utf-8"?>
<!-- Generator: Adobe Illustrator 25.2.1, SVG Export Plug-In . SVG Version: 6.00 Build 0)  -->
<svg version="1.1" id="Layer_4" xmlns="http://www.w3.org/2000/svg" xmlns:xlink="http://www.w3.org/1999/xlink" x="0px" y="0px"
	 viewBox="0 0 19.7 19.7" style="enable-background:new 0 0 19.7 19.7;" xml:space="preserve">
<style type="text/css">
	.st0{fill:#231F20;}
</style>
<path class="st0" d="M9.9,0C4.4,0,0,4.4,0,9.9s4.4,9.9,9.9,9.9c5.4,0,9.9-4.4,9.9-9.9S15.3,0,9.9,0z M15.6,2.6
	c1.7,1.4,3,3.4,3.4,5.6l-3.4,3.4V2.6z M9.9,0.6c1.9,0,3.7,0.6,5.2,1.6V7L8.8,0.6C9.2,0.6,9.5,0.6,9.9,0.6z M15.1,7.7v4.2L12,15.1
	H7.8L4.6,12V7.9l3.2-3.3h4.3L15.1,7.7z M8.2,0.7l3.4,3.4h-9C3.9,2.4,5.9,1.1,8.2,0.7z M0.6,9.9c0-1.9,0.6-3.7,1.6-5.2H7L0.7,11
	C0.6,10.6,0.6,10.2,0.6,9.9z M4.1,17.1c-1.7-1.4-2.9-3.3-3.4-5.5l3.4-3.4V17.1z M9.9,19.1c-1.9,0-3.7-0.6-5.2-1.6v-4.8l6.3,6.3
	C10.6,19.1,10.2,19.1,9.9,19.1z M11.5,19l-3.4-3.4h9C15.8,17.3,13.8,18.5,11.5,19z M12.7,15.1l6.3-6.3c0,0.3,0.1,0.7,0.1,1
	c0,1.9-0.6,3.7-1.6,5.2H12.7z"/>
</svg>
