<?xml version="1.0" encoding="utf-8"?>
<!-- Generator: Adobe Illustrator 25.2.1, SVG Export Plug-In . SVG Version: 6.00 Build 0)  -->
<svg version="1.1" id="Layer_6" xmlns="http://www.w3.org/2000/svg" xmlns:xlink="http://www.w3.org/1999/xlink" x="0px" y="0px"
	 viewBox="0 0 19.7 19.7" style="enable-background:new 0 0 19.7 19.7;" xml:space="preserve">
<style type="text/css">
	.st0{fill:#231F20;}
</style>
<path class="st0" d="M9.9,0C4.4,0,0,4.4,0,9.9c0,5.4,4.4,9.9,9.9,9.9c5.4,0,9.9-4.4,9.9-9.9C19.7,4.4,15.3,0,9.9,0z M12.4,0.9
	c2.2,0.6,4.1,2.1,5.3,4l-5.3,5.3V0.9z M9.9,0.6c0.7,0,1.4,0.1,2.1,0.2v7.5L5.4,1.7C6.7,1,8.2,0.6,9.9,0.6z M11.9,9v1.6l-1.2,1.3H9
	l-1.2-1.2V9.1L9,7.8h1.7L11.9,9z M4.9,2l5.3,5.3H0.9C1.6,5.1,3,3.2,4.9,2z M0.6,9.9c0-0.7,0.1-1.4,0.2-2.1h7.5l-6.5,6.6
	C1,13,0.6,11.5,0.6,9.9z M7.3,18.8c-2.2-0.6-4.1-2.1-5.3-3.9l5.3-5.3V18.8z M9.9,19.1c-0.7,0-1.4-0.1-2.1-0.2v-7.5l6.5,6.6
	C13,18.7,11.4,19.1,9.9,19.1z M14.7,17.7l-5.2-5.3h9.3C18.1,14.6,16.7,16.5,14.7,17.7z M11.4,11.9l6.5-6.6c0.7,1.3,1.2,2.9,1.2,4.5
	c0,0.7-0.1,1.4-0.2,2.1H11.4z"/>
</svg>
